<?xml version="1.0" encoding="UTF-8" standalone="yes"?>
<svg xmlns="http://www.w3.org/2000/svg" width="168" height="243">
<!-- validated for SVG version="2.0" -->
<rect id="BordDeCarte" fill="white" stroke="black" stroke-width="0.5" x="0.5" y="0.5" rx="6" ry="6" width="167" height="242"/>
<rect id="CadreDHonneur" fill="white" stroke="black" stroke-width="1.5" x="8.5" y="4" width="151" height="234"/>
<!-- dessin de la partie haute -->
<g id="PartieHaute">
<!-- rouge fill:#E61408 -->
<path fill="#e61408"
 d="M87.74 102.34 h4.52 l -1.00 2.14 -3.00 4.61 -2.87 4.52 h -0.78
  m18.05 -94.93 v1.28 l 1.34 3.65 2.13 5.92 1.48 6.12 1.13 6.41 0.64 6.31 0.30 8.78 0.29 5.38 -0.39 9.57 1.92 -0.10 1.63 -3.9 1.38 -2.17 L 117.00 64.30 l 1.19 -1.54 1.48 -2.42 1.21 -2.11 0.36 -0.19 3.47 -5.39 -0.37 -1.54 -4.23 -6.27 -2.27 -3.25 -1.94 -6.09 -2.94 -9.91 -4.79 -3.44 -3.21 -2.31
  M41.65 147.41 l 2.26 -2.16 2.5 -1.73 2.74 -1.73 4.08 -2.00 3.36 -1.34 4.57 -1.64 1.84 -3.33 2.50 -6.68 2.40 -7.06 2.67 -7.74 2.36 -7.21 0.81 -3.51 L 71.00 99.80 l -3.27 -0.19 -2.49 1.39 -3.24 4.67 -4.61 8.74 -5.19 9.65 -4.08 7.88 -3.22 6.30 -1.68 4.22 -1.25 2.74
  M32.00 109.38 l -4.00 9.74 -3.00 11.15 -1.26 8.00 -0.15 6.59 3.56 7.14 3.54 6.65 4.00 3.54 1.79 -5.53 -2.08 -5.82 -0.83 -10.28 1.26 -15.85 2.57 -12.27 -3.61 -0.44"/>
<path fill="#e61408"
 d="M32.78 107.73 l -1.07 3.00 2.67 2.66 3.00 -0.63 3.15 -8.63 3.06 -7.00 3.54 -6.44 2.76 -4.37 3.59 -5.00 L 55.9 80.00 l.49 -1.00 -1.80 -0.82 -2.52 0.77 -3.20 2.77 -4.94 6.20 -5.34 8.83 -3.53 6.44
  m31.25 -28.87 l -1.00 3.06 -2.51 3.79 0.20 2.35 2.00 6.71 4.84 4.28 21.37 1.22 1.16 -3.00 2.29 -5.86 -3.00 -2.83 -0.56 -3.91 1.50 -5.32 -11.60 -0.49 -9.51 -1.16 -2.78 -0.36"/>
<path fill="#e61408"
 d="M48.6 58 l -0.71 1.15 0.23 2.75 4.65 2.52 5.00 0.12 4.17 0.23 4.18 1.34 -0.33 -1.48 -3.42 -2.25 -1.83 -2.15 L 62.5 59.00 l 2.56 -2.54 v-1.23 l -3.60 -0.23 -3.34 0.21 1.63 -3.67 0.25 -2.18 -0.5 -0.36 -3.25 2.48 -4.00 2.19 -2.57 2.54"/>
<!-- bleu marine (navy) #1c1585 -->
<path fill="navy"
 d="M66.21 74.28 L 62.47 76.00 l -3.64 3.26 -5.25 1.43 -10.84 17.73 4.75 13.35 L 45.00 124.00 l -3.63 5.59 -7.23 3.85 -0.36 9.00 0.59 8.88 1.84 4.68 3.00 -4.89 7.20 -16.12 5.75 -11.25 10.75 -20.17 -2.79 -2.66 -1.46 -4.59 L 60.00 88.61 l 3.16 -4.84"/>
<!-- jaune #f8c20f -->
<path fill="#f8c20f"
 d="M89.41 8.00 l -0.35 3.42 L 94.82 14.00 l 6.52 3.66 7.58 4.87 4.33 3.00 1.94 -1.42 0.90 -1.00 2.08 -1.28 2.65 -0.21 4.48 -2.05 1.19 -1.05 -2.68 -0.88 -2.66 -1.21 -1.63 -0.68 -0.82 0.35 -1.16 1.35 -0.09 1.42 0.86 1.28 -0.93 0.56 -3.31 -1.63 -0.70 -2.54 2.35 -4.54 -0.58 -0.25 -1.00 0.21 -0.37 0.63 -0.65 2.00 -2.00 0.93 -2.85 -0.7 -1.27 -2.58 3.14 0.28 1.57 -0.44 0.74 -1.33 0.19 -1.75 -1.07 -0.63 -0.09 -2.37 -1.72 -1.12 -5.57 0.12 -0.94 1.00 -0.11 1.93 0.56 1.47 2.00 0.91 -2.70 1.52 -3.36 -2.15 -1.00 -2.77 -3.42 0.44 -4.78 -1.28"/>
<path fill="#f8c20f"
 d="M108.71 77.42 l 7.39 -11.24 -0.62 -0.9 -1.94 2.09 L 110.00 73.20"/>
<path fill="#f8c20f"
 d="M100.23 17.79 h1.54 l 3.41 8.83 2.64 9.28 1.18 8.37 1.15 15.38 -1.07 17.19 -12.62 19.63 -4.71 -1.19 2.73 -8.48 -3.12 -3.32 v-5.37 L 98.00 63.61 l 4.29 -16.27.89 -14.47
  M42.64 99.54 L 40.06 105.00 l -2.91 8.59 -1.46 6.66 -1.00 6.23 0.65 4.91 4.48 -0.62 4.47 -5.53 2.44 -9.46 L 46.00 108 l -1.38 -6.00
  M62.7 88.77 l -3.54 3.16 -0.16 5.76 1.08 3.39 2.55 2.06 3.93 -3.14 1.70 -4.12 L 66.73 92.00 l -2.61 -3.29
  m7.05 47.18 L 60.00 137.18 l -7.60 2.90 -7.25 4.19 -5.13 5.00 -3.28 6.22 -1.41 5.00 -0.38 5.30 0.73 3.79 2.12 4.19 2.40 3.00 3.56 2.39 4.91 -7.43 10.31 -16.00"/>
<path fill="#f8c20f"
 d="M17.09 77.86 l 1.27.39 -2.12 8.82 -0.33 4.00 0.55 1.75 -2.08 2.58 -0.83 -0.08 0.32 -7.00 1.18 -6.39 1.27 -3.49"/>
<path fill="#f8c20f"
 d="M32.94 62.08 l 1.00 2.18 5.00 -1.74 4.71 -0.52 4.66 0.07 v-2.00  l -0.42 -1.21 -2.87 0.54 -2.29 -.16.35-.51.22-.2 1.62-.8L48.56 53l1-1.29.73-5.14-.52-.15-3 2-1.46 2.44-1.85 1.52-.69 2-.46 1.52-.48 1.41 -0.46 0.88 -0.50 0.71 -0.73 0.73 -1.64 0.79
  m-4.87 4.41 L 32.9 66.00 l 1.25 1.21 1.30 2.00 4.22 2.17 6.94 0.84 0.81 -0.27 L 46.19 70.00 43.00 67.66 l -2.88 -2.00 -2.61 -0.75 -2.40 0.09"/>
<path fill="#f8c20f"
 d="M26.42 63.18 l 1.69 0.59 4.48 -1.64 1.63 -0.13 -0.22 2.50 -0.84 1.67 -3.29 -0.62 -2.00 1.00 -3.50 2.20 -2.46 0.44 2.09 -2.30 1.83 -2.06"/>
<path fill="#f8c20f"
 d="M34.15 46.00 l -2.48 2.31 -3.00 4.22 -2.63 5.49 0.24 5.38 1.41 0.69 L 31.06 59.00 l 2.83 -3.87 0.48 -6.53"/>
<!-- dessin de Wikipedia : Queen_of_spades_fr.svg = tous droits reserves -->
<!-- drawing form Wikipedia : Queen_of_spades_fr.svg = all rights reserved -->
<path id="MainDrawing" fill="black" stroke="none" d="M71.56 68.27a4.3 4.3 0 0 0-2.48 1.43 2.81 2.81 0 0 0-.63 1.52 2.16 2.16 0 0 1-.45 1.47 7.51 7.51 0 0 1-2.73 1.46 19.41 19.41 0 0 0-3.22 1.62A14.3 14.3 0 0 0 59.61 78c-.87.93-1.75 1.54-2.88.72-.86-.62-1.62-1.5-2.74-1.6a15.42 15.42 0 0 0-3.39.21c-2.1.27-4.19 1-6.33.94s-4.42-.88-6.66-.21c-2.55.77-3.35-2.46-4.35-4.14-1.12-1.88-3.21-3.11-5.09-4.09a6.81 6.81 0 0 1-1.17-.76c-.56-.44-.49-.82-.18-1.36s2.06-1.27 2.73-1.54a4.22 4.22 0 0 1 3.15.32 2.59 2.59 0 0 1 1.3 1.14 9.17 9.17 0 0 0 1 1.35c.75.8 1.89 1 2.76 1.55a10.45 10.45 0 0 0 3.23 1.54 12.64 12.64 0 0 0 3.37.2 14.06 14.06 0 0 1 3 .4 4.87 4.87 0 0 0 1 .1c-.21-1.21-1.58-2.46-2.37-3.32a15.83 15.83 0 0 0-3.57-2.61c-1.19-.73-2.2-1.75-3.63-2a6.61 6.61 0 0 0-2.06-.25 14.47 14.47 0 0 1-2.37.18c.46-.93 1.8-1.18 2.71-1.45a22 22 0 0 1 3-.74 45.15 45.15 0 0 1 6.68-.31 3.81 3.81 0 0 1 2.87 1.27 4.93 4.93 0 0 0 2.94 1.2c1.14.12 2.27.11 3.41.26a6.57 6.57 0 0 0 1.46-.14A6.92 6.92 0 0 1 59 65a25.76 25.76 0 0 1 4.11.39c.55.15 3.83 1.55 3.64.57a4.85 4.85 0 0 0-2.44-3.28c-1.15-.62-2.94-.89-3.25-2.43a6.25 6.25 0 0 0 2.77-1.75 18.63 18.63 0 0 0 1.38-1.43 2.29 2.29 0 0 0 .35-1.63c0-.86-2.72-.9-3.23-.92-1.2-.06-2.33.23-3.52.23 0-.87.74-1.5 1-2.28a7 7 0 0 0 .45-2.9c-.07-1.37-1.14-1-1.91-.36A25.28 25.28 0 0 1 56.26 51c-1.55 1.09-3.29 2-4.92 2.92-1.36.8-3.19 2.93-3 4.62.82-.74 1.26-1.83 2.08-2.57a23.48 23.48 0 0 1 3.19-2.42c1-.65 2.08-1.21 3.12-1.82a14.16 14.16 0 0 0 2.86-2.44 3.75 3.75 0 0 1-.65 3c-.25.46-.51.91-.78 1.37s-.38 1.09-.71 1.32a17.6 17.6 0 0 1-3.17 1.56c-.43.19-.89.32-1.35.47s-1.25.34-.62.93 2.13-.54 2.78-.83a26.64 26.64 0 0 1 3-1.09 12.4 12.4 0 0 1 3.34-.73 16.52 16.52 0 0 1 3.28.47h.1c-.2 1-1.39 1.91-2.13 2.54a11.23 11.23 0 0 1-3.1 1.77 17.91 17.91 0 0 1-3.26.64c-.58.12-3.37.17-2.76 1.3-.69.13-1.56-.39-2.25-.5.26 1.27 1.88 1.68 2.94 1.89a19.51 19.51 0 0 0 3.81.36 4.36 4.36 0 0 1-2.72.08A5.15 5.15 0 0 0 54 64a6.74 6.74 0 0 1-1.66-.17 5 5 0 0 1-2.53-1.31 6.28 6.28 0 0 0-2.75-1.25 5.85 5.85 0 0 0 1-.25c-.78-.65-2.58-.58-3.52-.42a14.76 14.76 0 0 1-2.21.2 9.21 9.21 0 0 1-1.77.22c.51.47 1.64.25 2.25.25a7 7 0 0 1-3 .54c-.44 0-.89-.39-1.33-.36s-1.14.07-1.71.07c1.54-.73 3.12-.89 4.5-2 .22 1.52 4.76.55 5.75.5-.27-.68-1.12-.71-1.75-.73h-1.35c-.08 0-.59.07-.65 0s0-.5.08-.5a2.34 2.34 0 0 0 2.13-1.19c.56-.77 1.18-1.36 1.67-2.18a15.25 15.25 0 0 1 1.38-1.89c.53-.64 1.36-1.3 1.5-2.13a43.58 43.58 0 0 0 .53-5.4c-2.06-.05-4 2-5.08 3.55a8.83 8.83 0 0 1-.83 1.23 12.38 12.38 0 0 0-1.32 1.29 6.46 6.46 0 0 0-1.29 3c-.45 2.18-1.23 4.42-3.54 5.08-2.06.58-4.13 1.11-6.19 1.68A16.94 16.94 0 0 0 29.06 63a7 7 0 0 1 1.11-1.87c.45-.64.83-1.33 1.22-2 .78-1.36 2.17-2.33 2.68-3.88a7.28 7.28 0 0 0 .24-2.42c0-.69.17-1.37.19-2.05a21.14 21.14 0 0 0-.19-5 6.28 6.28 0 0 0-2.47 2.11 24.32 24.32 0 0 0-1.95 2.23 49.18 49.18 0 0 0-3.42 6 7.45 7.45 0 0 0-.9 3 21.17 21.17 0 0 0 .43 3.17c.2 2.42-1.49 3.83-3.23 5.23a1.86 1.86 0 0 1-2.33.11 8.4 8.4 0 0 0-2.59-.57 3.39 3.39 0 0 0-2.4 1c-.69.64-.62 1.34-.36 2.25.05.18.36 1 .23 1.17 0 0-.59.16-.67.2a2.19 2.19 0 0 0-.5.36 3.13 3.13 0 0 0-.5 2.5c.13.87-.05 1.77 0 2.67s.74 1.29.87 2c-1-.25-2-.56-3-.79s-2.48.31-1.61 1.44c.61.78 1.9 1.11 2.81 1.49a6.64 6.64 0 0 1 1.46.89c.35.24.1 1.14 0 1.47a74 74 0 0 0-1 12.5 5.4 5.4 0 0 0 2.35-1.57 3.53 3.53 0 0 0 1.11-3 15.78 15.78 0 0 1 .07-6.67c.33-1.12.65-2 2-1.63.94.3 1.75 1 2.66 1.42a26.05 26.05 0 0 0 6.39 1.61 4.27 4.27 0 0 1 1.47.5c.54.28.33.79.24 1.27a10.39 10.39 0 0 1-1.35 2.57c-.5.86-1.09 1.7-1.56 2.59a5.25 5.25 0 0 0-.85 2.87c1.42-.7 1.47-2.31 2.1-3.59.55-1.11 1.33-3 2.9-2.66-.44 1.27-2.14 1.74-2.5 3 .48 0 1-.23 1 .32v1.93c.84-.46 1.38-1.51 2.5-1.25v-3.5c.32 0 2 .33 1.54-.55-.09-.18-.52-.38-.54-.45s.25-.85.3-1 .29-.63.13-.78-.6-.09-.84.18a2.9 2.9 0 0 0-.34 1.88c-2.31-1.36.23-3.93 1.15-5.29a22.34 22.34 0 0 1 4.38-5.29c.69-.53 2.35-1.09 3.11-.38.22.21.49.25.5.44s-.51.61-.41 1a.77.77 0 0 0 .3.46c.21.09-.13.33-.22.48a1.27 1.27 0 0 0-.1.37c-.09.45 1 .9 1.42.76s.15-1.07-.23-1.17-.48-.07-.42-.5c0-.21.46-.26.59-.42s-.06-.6 0-.89.58-.29.8-.3a17.17 17.17 0 0 0 2.27 0l2.47-.49c.7-.13 1.39-.26 2.09-.37a6.21 6.21 0 0 0 2.06-.37 1.27 1.27 0 0 0 .25.75c-1.37.48-2.49 2-3.48 3a30.22 30.22 0 0 0-3.15 3.72c-.94 1.3-1.87 2.59-2.78 3.92a35.25 35.25 0 0 1-2.5 3.87c0-.86-.61-.84-1.21-.64-.13 0-.07.61 0 .74a1.59 1.59 0 0 0 .71.65 10.8 10.8 0 0 1-1.48 1.54c-.49.36-1.4.8-1.52 1.46h1a7.94 7.94 0 0 1-1.24 3.1c-.5.94-1 1.85-1.52 2.8-1 2-1.79 4.06-2.78 6A119.61 119.61 0 0 0 27 121.27a19.68 19.68 0 0 0-.73 2.6c-.18.81-.57 1.58-.67 2.4a5.07 5.07 0 0 0-1.65-.49c-.22 0-.1-1.48-.1-1.76a1.18 1.18 0 0 0-.75 1.75c-.43-.14-1.45-.63-1.77-.08-.51.84.76 1.18 1.27 1.33-.39 1.34-1.72 2.61-1.75 4 .33-.09.66-.19 1-.25a11.18 11.18 0 0 1 .25 1.5 2.85 2.85 0 0 0 .75-1.75c.34.06.67.16 1 .25 0-.84-.44-1.64-.45-2.49 0-.14.1-1.28.25-1.24a4.78 4.78 0 0 0 1.45.23 67.6 67.6 0 0 1-1.2 8.48 48.6 48.6 0 0 0-.55 8.52c-1.38-.72-2.14-2.25-2.79-3.59s-.46-3.19-.46-4.69c0-.81-.06-1.66 0-2.47s.24-1.4.24-2.13.21-1.68.15-2.44a22 22 0 0 1-.14-2.43c-.84.55-.65 2.12-.45 2.94a8.18 8.18 0 0 1 0 3.27 22.51 22.51 0 0 0-.32 6.29 12.62 12.62 0 0 0 2.92 5.81c.78 1 1.51 2 2.23 3.09.58.84.86 1.83 1.39 2.69 1.15 1.93 2 4 3.06 6a17.3 17.3 0 0 0 1.78 2.91 14.47 14.47 0 0 0 2.57 2.37 3.13 3.13 0 0 1 1.3 2.57 19.25 19.25 0 0 0 .35 3.3 14.83 14.83 0 0 0 2.14 6 19.22 19.22 0 0 0 4 4.27 9.72 9.72 0 0 0 2.39 1.53c.24.08 1.12-1.64 1.33-2 1.24-1.87 2.44-3.74 3.61-5.65a49 49 0 0 0 2.9-4.62 12.92 12.92 0 0 1-2.19 1.44 15.62 15.62 0 0 1-2.9.54 8.78 8.78 0 0 1-2.93-.55c-.86-.22-1.63-.68-2.48-.93a7.87 7.87 0 0 1 2.47 0H47a5.67 5.67 0 0 0 3-.51c.58-.34 2.18-.8 2.35-1.49a5.37 5.37 0 0 0-2.08.84 6.71 6.71 0 0 1-2.17.69 13.12 13.12 0 0 1-4.75-.28c1-2 3.37-2.08 5.25-2.5-.94-1.09-3.28-.25-4.5-.25.92-.92 1.76-1.63 3.12-1.37a2.14 2.14 0 0 1 1.51 1c.3.4.6 1 1.12 1.14a3.18 3.18 0 0 0-3-3 5 5 0 0 1 1.67-1.71c.34-.23.67-.17.52-.66a1 1 0 0 0-.77-.57 4.59 4.59 0 0 0-2.69.61 12.86 12.86 0 0 1-2.23 1.58c-.19-.79.73-2.23 1-3-.65-.33-1.82.27-2.28.72a3.74 3.74 0 0 0-1.33 2.37c-.12.89 0 1.77 0 2.66a10.44 10.44 0 0 0 .4 2.75c-.73 0-2.41-.22-2.55-1.13a10.48 10.48 0 0 1 0-3.49 29.39 29.39 0 0 1 1.89-6.42 19.3 19.3 0 0 1 3.27-5.48 27.23 27.23 0 0 1 5.21-4.42 42.37 42.37 0 0 1 4.19-2.4 21.14 21.14 0 0 1 2.52-1 24.36 24.36 0 0 1 2.44-1c1.76-.46 3.5-.93 5.29-1.29a15.3 15.3 0 0 1 2.61-.35 7 7 0 0 1 2.41 0 12.13 12.13 0 0 1-1.55 3c-.69 1.09-1.32 2.2-2 3.28a25.34 25.34 0 0 1-2.13 2.92c-.69.8-2.18.4-3 .84.23.78 1.08.75 1.75.75a16.55 16.55 0 0 1-.54 1.59c-.23.39-1.46.55-1.88.71a6.14 6.14 0 0 0-3.08 2.45 4.26 4.26 0 0 0 3.25-.5 16.35 16.35 0 0 1-2.39 4.09c-.78 1.17-2.18 2.44-2.36 3.91a16.83 16.83 0 0 0 1.83-2.57 26.82 26.82 0 0 0 1.72-2.53c1.2-2 2.54-3.89 3.71-5.87S64 148 65.16 146c.6-1 1.2-1.92 1.81-2.87s1-1.89 1.62-2.74c2.66-3.6 4.88-7.57 7.27-11.35s4.88-7.53 7.2-11.37c2.18-3.62 4.62-7.09 6.82-10.71 1.11-1.82 2.31-3.59 3.41-5.42.58-1 1.22-1.88 1.81-2.83a12.76 12.76 0 0 0 1.46-2.46c-.85.19-2.35-.94-3-1.43-.33-.25-.94-.67-.86-1.14a5.69 5.69 0 0 1 .61-1.62 34.41 34.41 0 0 0 1.43-3.51c.43-1.32 1.67-1.51 2.82-1.8 0 1.49-1 2.89-1.5 4.25-.23.63-.63 1.7 0 2.19a9.21 9.21 0 0 0 1.8 1.31 4.25 4.25 0 0 0 .5-1c-1.14-.18-2-.87-1.56-2.06s.8-2.13 1.21-3.19a8.82 8.82 0 0 1 1.38-2.78c.74-.84 1.72-1.49 2.42-2.34a18.73 18.73 0 0 0 3.53-5.83c.73-2 1.29-4.17 1.9-6.25.43-1.45.74-3 1.11-4.42.2-.77.28-1.56.5-2.32a10.15 10.15 0 0 0 .51-2.31c.53 1 .26 2.65.25 3.75 0 1.39-.21 2.77-.27 4.16s-.45 2.59-.5 3.9a35.83 35.83 0 0 0-.48 3.69c1.17-.3 1.27-2 1.5-3 .17.29.38.25.67.25s.18-.49.19-.64c0-.52-.36-1 .19-1.4s1-.41 1.35-.77.37-.82.35-1.44a4.43 4.43 0 0 1 .5-1.5 7.17 7.17 0 0 1 .67-1.5 4.57 4.57 0 0 1 1-1.12 3 3 0 0 1 .69-.34c.33-.15.36.3.61.21a7.21 7.21 0 0 0 .64-1.07c.3-.49.64-1 1-1.43.6-.87 1.06-1.81 1.64-2.7s1.1-1.87 1.75-2.71c.43-.56-.11-.77-.41-1.34a11.28 11.28 0 0 1-.7-1.6c-.6-1.8-1.14-3.61-1.73-5.42-.52-1.58-.71-3.5-1.48-5a6.3 6.3 0 0 1 1.65 2.34c.53.9 1 1.83 1.53 2.75.9 1.64 2.06 3.2 2.82 4.91a2.67 2.67 0 0 0 1-1 5.77 5.77 0 0 1-1.79-2.21c-.62-1-1.23-2-1.83-3-1.1-1.79-1.94-3.74-3-5.53a18.33 18.33 0 0 1-2.46-6.38 18 18 0 0 0-1-2.91c-.43-1.09-.69-2.22-1.07-3.33-.31-.88-.57-1.8-.82-2.69a9.15 9.15 0 0 1-.66-2.94c2 .24 2.49 3.65 2.94 5.13.62 2 1.28 4.09 1.76 6.14a22.34 22.34 0 0 0 2.31 6.26c1.13 1.93 2.36 3.78 3.6 5.64.53.79 1 1.58 1.64 2.33s1.24 1.36 1.25 2.25c1.1-.51 0-1.75-.45-2.32-.71-.94-1.37-1.92-2-2.89s-1.21-2-1.86-2.91-1.48-1.62-2.04-2.62c-1.18-1.93-1.44-4.16-2.09-6.29s-1.18-4.13-1.76-6.19c-.26-.91-.68-1.82-.85-2.75s.69-1.87 1.5-2.36a3 3 0 0 0 1.1-.91 2.11 2.11 0 0 1 1-1 8.88 8.88 0 0 1 2.82-.72c-.17-.33-.33-.66-.5-1a2.73 2.73 0 0 1 1.5 0 5 5 0 0 0-.75 1.25c1.17-.56 2.4-.9 3.56-1.47s2.48-1.35 3.69-.78c0-1.47-1.57-1.9-2.71-2.36-.54-.22-1.18.12-1.7-.24a6.22 6.22 0 0 0-1.74-.84l-2-.69c-.28-.1-1.27.68-1.44.92a3.16 3.16 0 0 0-.8 2 2.19 2.19 0 0 0 .63 1.7c-1.89.53-5.26-2.94-3.63-4.58.75-.76 2-1.26 2.23-2.49a1.36 1.36 0 0 0-2.1-1.43 1.92 1.92 0 0 0 1.25.25 2.78 2.78 0 0 1-2 2V13c-.54.4-.52 1.14-1 1.54a2.36 2.36 0 0 1-2.15.61 3.68 3.68 0 0 1-3.12-2.9c.48.09 1 .31 1.44.44a6.26 6.26 0 0 0 1.62 0 2.62 2.62 0 0 0 1.6-.36 5.16 5.16 0 0 0 .77-1.6c.13-.37.42-1 .23-1.4a7.62 7.62 0 0 0-1.06-1.47c-.24-.28 0-.91-.13-1.25-.17-.65-.19-1.34-.7-1.78-.72-.63-2.16-.6-3-.6a17.64 17.64 0 0 0-3.41.11 2 2 0 0 0-1.81 2.27c0 .84-.11 2.5.67 3a3.74 3.74 0 0 0 1.58.62 3.42 3.42 0 0 1-4.35-.23 4.84 4.84 0 0 1-1.48-2.19c-.22-.6.78-1.33 1.09-1.81-.88.11-1.57.07-1.89-.91-.16-.49-.56-.47-.75 0s-.17.78-.34 1.18c-.42 1-1.51.67-2.21.25-.51-.3-.82-.39-1-.94a3.7 3.7 0 0 1 0-1.33c-1.22 0-1.26 1.05-1 2a2.75 2.75 0 0 1-1.4-.25c-.16-.07-.67-.16-.65-.29a1.25 1.25 0 0 0-.13-.71c-.25-.54-.48-.84-1.08-.75s-.67.78-.54 1.37c.22 1.06-.49 2-.39 3.07s-.21 2.52-1.21 2.89a25 25 0 0 1-3.22.72 14.9 14.9 0 0 0-3 1.17 18.08 18.08 0 0 0-5.45 4 20 20 0 0 0-3.74 5 24.58 24.58 0 0 0-1 3.25 11.82 11.82 0 0 0-.63 3.06 15.13 15.13 0 0 1-.29 3.35c-.25 1.08-.61 2.13-.84 3.21-.46 2.2-.8 4.39-1.45 6.54-.26.88-.62 2.28.61 2.45a6.33 6.33 0 0 1 1.69.24c.79.39 1 .35 1.15 1.22a6.22 6.22 0 0 0 1.06 3.08c.33.47.62 1 .91 1.44s0 1-.08 1.47c-.25 2.72 2.17 3.59 4.4 4.09a8.62 8.62 0 0 1 1.53.66c.58.28.33.86.09 1.25-.33.55-.44.95-1 1.13l-1.76.53c-.78.25-1.29 1.32-1.73 2s-1.23 1.37-1.79 2.11a4.67 4.67 0 0 0-.39 1.3 5.56 5.56 0 0 1-.52 1.07 4.72 4.72 0 0 0-.61 2.41M109.81 8a4.37 4.37 0 0 0 1.33.62c.47.15 1.45.15 1.38.68s-.32 1-.41 1.45c-.14.7-.28 1.05-1 1.26-.84.27-2.47.4-2.87-.56-.19-.44-.66-1.17 0-1.49.4-.2 1.14.16 1.54.29a4.67 4.67 0 0 1-1.24-2.19 4.56 4.56 0 0 1 .52-2.06c-.58.39-1 .86-1.61 1.24s-1.65 0-2.14-.24c.2.23 1.28 1.47.81 1.77-.74.48-1.43 1.08-2.26.36-.6-.52-.5-1.48-.5-2.19 0-1.13.23-1.51 1.38-1.65a42.18 42.18 0 0 1 5 0c.62 0 1.68.63 1.61 1.37s-.95 1.2-1.57 1.37M97.06 9.52c-.41.18-1.5-.09-1.72.42-.28.66-.5 1.46.33 1.89s1.3.9 2 .2.35-1.09.16-2a8.74 8.74 0 0 1 3 1.47c.76.45 2.4 1.06 2.54 2-.5 0-1.24 0-1.51.56s0 1.19 0 1.69c-1.38-.2-2.6-1.2-3.8-1.88s-2.4-1.5-3.68-2.16-2.44-1.12-3.57-1.83c-.42-.27.5-1 .34-1.5a14.1 14.1 0 0 0-.79-1.88 9.41 9.41 0 0 1 3.24 1.23 31.43 31.43 0 0 1 3.46 1.79m2-.25A5.43 5.43 0 0 1 96.56 8c.4-.42 1-.84 1.6-.5.48.27.71 1.28.9 1.75m-8.75-1.5c.35.2.12.81-.08.71-.6-.3-.47-.43.08-.71m2.25 1a.69.69 0 0 0 .5.5c-.12.15-.55.51-.5.75.09.41.72.31.86.05.4-.73-.06-1.34-.86-1.3m4.5 2.75a1.81 1.81 0 0 1-1.25-1.25c.63 0 1.66.48 1.25 1.25m1.25 3.25c-.66.29-1.65-.41-2.22-.67-.75-.35-1.48-.74-2.22-1.1s-1.57-.68-2.34-1-1.81-.59-2-1.44c1.59 0 3.12 1 4.46 1.71s2.89 1.64 4.29 2.54m8-4c-.26 1.44 1 2.8 1.5 4-1.36 0-2.8-1.38-3.89-2.1a1.37 1.37 0 0 1-.51-.61c-.17-.49.43-.48.86-.63a7.06 7.06 0 0 1 2-.66m-12.25 3.5a2.28 2.28 0 0 1-1.5.25c.9 1.59 3.46.34 4.75 1.25-.5.8-1.93.92-2.75.68-1.1-.31-2.13-.9-3.22-1.29-2.09-.76-4.41 1-6 2.18-1.86 1.4-4.18 1.92-6.2.58-1.12-.75-.6-2 .09-2.74a8.16 8.16 0 0 1 2.78-1.55 20.45 20.45 0 0 1 3.06-1 13.83 13.83 0 0 1 3.13-.39 11 11 0 0 1 5.81 2m5.62-1.75c-.22.14-.15 1 0 1.13a1.23 1.23 0 0 0 1.2.17c.24-.09.31-.88.14-1-.59-.37-.67-.46-1.34-.31m-20.87 4c.52.91 2 .85 2.94.78a5.51 5.51 0 0 0 2.88-1.14 10.59 10.59 0 0 1 3.14-1.8 4.66 4.66 0 0 1 1.59-.3 6.65 6.65 0 0 0 1.7.21c-1.27-1.58-4.48-.35-5.88.39A32.26 32.26 0 0 1 82 16.35a5.19 5.19 0 0 1-3.19.17m25.5-.75a2.71 2.71 0 0 1-1.75-1.25c.75-.4 2.25.28 1.75 1.25m-5.5-.77a13.23 13.23 0 0 1 3.58 2c1.16.72 2.49 1.32 3.17 2.57a16.88 16.88 0 0 1-3.76-2.07c-.64-.37-3.21-1.56-3-2.43m8 .25a3.08 3.08 0 0 1-1.5 2.5c-.19-.9.76-2.08 1.5-2.5m6.5 3a5.27 5.27 0 0 1-3.75-2.5 11.54 11.54 0 0 1 2.82 0c.62.17.92 1.92.93 2.46m-13.25 2c-1.56.33-2.89-2-4.5-2A12.53 12.53 0 0 1 98.28 20c.62.55 2.3 1.33 2.28 2.27a7.07 7.07 0 0 1-3-1c.17.34.33.67.5 1-1.16-.21-2.14-1.45-3-2.2a6.68 6.68 0 0 0-3.27-1.55c.43.72 1.85 1.17 2.55 1.57a15.79 15.79 0 0 1 2.44 2.19 7.87 7.87 0 0 0 2.49 1.52c.69.27 2 .16 2 1.22-2.06 0-4.51.49-6-1.27-1.18-1.54-2.12-3.75-4.46-3.75a9.67 9.67 0 0 1 2.57 2 3.85 3.85 0 0 1 .62 1.08 9.28 9.28 0 0 0 1 1.66c1.35 1.91 4.13 1 6.07 1-.6.52-1.65.54-2.36.94a4.88 4.88 0 0 1-3 .59 4.42 4.42 0 0 1-3.69-4 3.23 3.23 0 0 0 .32 2.73 3.73 3.73 0 0 0 2.59 2c1 .39 2-.06 3-.43a8.57 8.57 0 0 1 3.13-.59c0 .32-.2.31-.4.5s-.35-.17-.35.13a1.5 1.5 0 0 0 .25.62c-2.77.12-6 2-8.13-.72a10.54 10.54 0 0 1-1.21-1.92c-.28-.54-.08-1.31-.24-1.9a5.22 5.22 0 0 0-2.17-3.46A8.22 8.22 0 0 1 90.05 24c0 1-.25 3.08-1.49 3.3.19-.55.31-1.14.45-1.71a4.46 4.46 0 0 0-.35-1.59 3.84 3.84 0 0 0-1.6-2.46c.42.83 1.16 2 1.08 2.91s-.08 2.89-1.33 2.84c.1-.6.4-1.15.56-1.75a3.42 3.42 0 0 0-.3-2 4.75 4.75 0 0 0-2.51-2.28c.42.39.82.8 1.24 1.19a4.92 4.92 0 0 1 .76 1.55c-.52-.31-.81-.89-1.3-1.23a9.66 9.66 0 0 0-2.17-1.17c-1.1-.44-3-.68-3.28-2.1a15.32 15.32 0 0 0 2.71 0 7.17 7.17 0 0 0 2.76-1.44c1.6-1.11 3.24-2.5 5.34-2.18 1.94.3 3.37 1.61 5.43 1.2a5.18 5.18 0 0 1 1.59-.29c.61.11.9.54 1.34 1a3.35 3.35 0 0 1 1.08 2.48m20.25-3.5c.38 0 1.71-.06 1.9.42.11.28.37.66.29 1l-.33 1.29c-.08.29-.51.47-.76.55s-.26-.35-.38-.51-.38-.66-.75-.77-.65-.08-1-.19v1c-.5-.13-1.35-.13-1.49-.67s-.51-1.39.45-1.53c.55-.08.15-1.06.82-1.21s1.23-.17 1.22.66m-10.72.19a1.93 1.93 0 0 1-.75.75c0-.46.23-.8.75-.75m-32.25.25c.55.77.57 1.73 1.25 2.42L80 21.13c.33.34 1.15.45 1.59.61a25.25 25.25 0 0 1 3 1.19c.77.38 1.3 2.05.57 2.72a1.37 1.37 0 0 1-1.48.15c-.19-.12-.61-1-.66-1-.55 0-.68.51-.6 1.09.1.74.43.85 1 1.26a6.67 6.67 0 0 0 1.39.8c.47.19 1.14.43 1.31.94s.06 1 .2 1.44.32 1.15.49 1.72c.34-.69-.23-1.73.5-2.25a11.37 11.37 0 0 1 .69 2.04 2.72 2.72 0 0 1 .06 2.16 3 3 0 0 1-.5-1.5 9.17 9.17 0 0 0-.49 1.7c-.08.33-1.36-.56-1.51-.7-.14 1.21.81 1.61 1.72 2 .32.13.94-.53 1.13-.74a2.32 2.32 0 0 0 .65-1.26c.69.52.4 1.94 0 2.55a13.36 13.36 0 0 0-.89 1.28 3.15 3.15 0 0 0-.17 1.8c0 .89 1.06 1.67 1.81 2.06s.78.38 1.45 0a1.39 1.39 0 0 0 .85-1.19c.14-.77-.64-.44-1.14-.4-.66.07-.61-.65-.68-1.11-.15-1 .91-1.88 1.48-2.65.13-.18.46-.86.64-.8a1.08 1.08 0 0 1 .79.88c.08 1.11.08 2.13 1.36 2.33a2 2 0 0 1-.25-2.75c.47.49.76 1.11 1.5 1.25a4.36 4.36 0 0 0-.48-1.83c-.3-.44-1-1.16-.91-1.77s1-.13 1.29.2a2.78 2.78 0 0 1 .56 1.9 6.94 6.94 0 0 1-.27 1.83 5.06 5.06 0 0 0-.27.94c0 .27.14.54.12.75a2.73 2.73 0 0 1-1 1.42 1.52 1.52 0 0 1-1.71.33 3.23 3.23 0 0 1 .3 2.31 13.59 13.59 0 0 0-.73 2.82 4.66 4.66 0 0 0 .39 2.7c.33.89.59 2.11 1.79 1.92 0 1.07-.82 2-.9 3s0 2.24-.16 3.35a5.15 5.15 0 0 0 .17 3.16 5.51 5.51 0 0 1 .9 3.22c-.05.3-.22 1.26-.53 1.36a11.73 11.73 0 0 1-1.73.49 15.71 15.71 0 0 1-3.14-.09 44.82 44.82 0 0 1-6.4-1c-.61-.11-3.36-.64-3.09-1.52a2 2 0 0 1 1.34-1.36c.46-.22.46-.08.6.32s.25.7.36 1.05c.66-1.28-.6-3.44-.84-4.75-.18-.94-.2-1.69.84-2.07.75-.28 1.49-.72 2.25-.93-.94-.35-2.32.5-3.25.65a25.34 25.34 0 0 1-3.7.1 5 5 0 0 1-3.16-1.4c-.68-1-.94-2.59.61-2.85-.21-.85-.64-1.43 0-2.25-.76.22-2 .27-2-.75h2.75a4.7 4.7 0 0 0-.25-1.25c-.23-.14-.93.19-1.27.1A7.52 7.52 0 0 0 73 46.6c-.6-.05-1 .12-.93-.58a3.12 3.12 0 0 1 1.62-2.14c.89-.64 0-1.65-.62-2.11a12.16 12.16 0 0 0 .74 1.23c-1 .48-2-.17-2.94.35a4 4 0 0 1-1.51.59c-.37.06-1.08-.42-1-.82a21.75 21.75 0 0 1 .64-3.35c.22-1 .37-2 .62-3 .53-2.15 1.49-4.16 1.49-6.4a17 17 0 0 1 1-6.2A15.75 15.75 0 0 1 74.4 20c.74-.93 1.64-2.46 2.91-2.7m23.5.75a5.07 5.07 0 0 1 1.72 2.32 14.48 14.48 0 0 1 1.18 3.18 27.9 27.9 0 0 1 .85 6.22v7.08c0 2.16-.48 4.28-.51 6.43a51.3 51.3 0 0 1-.71 6.29 61 61 0 0 1-1.34 6.56 57.48 57.48 0 0 1-2 6.2c-.77 2-1.27 4.17-2.11 6.19s-1.67 4.24-2.66 6.31a16.49 16.49 0 0 0-1.06 3.3 8.28 8.28 0 0 0 .14 3.36 4.92 4.92 0 0 0 2 2.32 10.3 10.3 0 0 0 1.5.62c.35.11.47 0 .44.39a1.24 1.24 0 0 1-.29.71c-.55.82-2.33.77-3.13.58a4.72 4.72 0 0 1-2.65-2 5.57 5.57 0 0 1-.62-3.11 16.24 16.24 0 0 1 .74-3.21 35.58 35.58 0 0 1 2.59-6.1 87.71 87.71 0 0 0 4.83-12.5c.59-2.09 1.33-4.12 1.85-6.22a17.42 17.42 0 0 0 .69-3.17c0-1.11.22-2.2.36-3.3a101.92 101.92 0 0 0 .94-13.07c0-1.36-.23-2.67-.28-4a16.61 16.61 0 0 0-.6-3.7c-.37-1.37-.6-2.78-1-4.15-.18-.6-.35-1.21-.55-1.81s-.69-1.25-.32-1.75m25 .75a3.73 3.73 0 0 1-1.52 1c-.51.25-1.39.85-2 .71a6 6 0 0 1 1.2-1.6c.43-.39.63-.74 1.22-.7a2.84 2.84 0 0 1 1.08.55m-17.75 0v.75c-.62-.31-.62-.44 0-.75m3 1a1.65 1.65 0 0 1-1.75-1 2.12 2.12 0 0 1 1.75 1m-1 52v-3.14c0-1 .23-2 .24-3v-6.66c0-2.22-.25-4.56-.27-6.86 0-1.09-.21-2.18-.23-3.28a19.48 19.48 0 0 0-.32-3c-.4-2.13-.36-4.33-.78-6.47s-1-4.47-1.45-6.71a60.29 60.29 0 0 0-1.87-6.28c-.72-2.1-1.79-4.09-2.44-6.22a3.18 3.18 0 0 1-.14-.53 5.66 5.66 0 0 1 2.79 1.38 4.58 4.58 0 0 1 1.65 2.66c.72 2.13 1.48 4.24 2.11 6.4 1.23 4.16 2.36 8.37 3.55 12.54.6 2.1 1.35 4.15 1.9 6.27s1.2 4.28 1.87 6.41c.31 1 .52 2.08.82 3.12a13.65 13.65 0 0 1 .71 3.33c.05 2.4-3.14 2.94-4.28 4.69-.64 1-1.19 2-1.76 3-.45.83-1.08 2.21-2.11 2.41m-4-52.25c1.34.27 2.62 1.49 3.74 2.22s3.31 1.64 3.51 3c-1.4-.21-2.81-1.65-4-2.4-.64-.42-3.48-1.92-3.27-2.85m7.25 0c-.15.95-.9 2.49-2 2.5 0-.87 1.06-2.48 2-2.5m1.25 1a2 2 0 0 1-1.5 1.25c.14-.49.89-2.27 1.5-1.25m3.75 1a.61.61 0 0 1-.75-.5 1.74 1.74 0 0 1 .75.5m-2.5-.25a1.43 1.43 0 0 1-.75.5.66.66 0 0 1 .75-.5m-2.75.75c.25.48-.07.83-.5 1a1.23 1.23 0 0 1 .5-1m-5 .5a4.63 4.63 0 0 1 2 2.24 25.3 25.3 0 0 1 1 2.81c.7 2.17 1.36 4.37 2 6.56 1.22 4.22 2.62 8.42 3.63 12.69a53.31 53.31 0 0 0 2.23 7c.44 1.11.66 2.32 1 3.46a3.32 3.32 0 0 1-.41 3c-.82-.46-.9-1.8-1.12-2.61-.3-1.06-.66-2.1-1-3.16-.61-2.15-1.25-4.31-1.94-6.45s-1.21-4.12-1.87-6.17-1.56-4.36-2.1-6.58-1.23-4.25-1.95-6.34c-.38-1.13-.9-2.24-1.24-3.38-.26-.85-1-2.25-.32-3.06m7.5 1a.81.81 0 0 1-.75-.75c.52-.05.7.29.75.75m-29 2c-.12.52-.23 1-.75 1.25a2 2 0 0 1 .75-1.25m-14.5 3.25c-.17.93 1.23.75 1.84.75.9 0 1.9-.25 2.8-.34a7 7 0 0 1 2.87.28c.8.22 1.49 1.18 2 1.81.68-.8-.66-1.72-1.15-2.16a5.45 5.45 0 0 0-2.83-.84c-1.77-.19-3.93-.57-5.52.5M90.81 28c.44.85 1.28 1.42 1.75 2.25-.63 0-1.14 0-1.46-.6s-.78-1.12-.29-1.65m-2.25 1.25a6.44 6.44 0 0 1 1.25 3c-.8-.43-2-2.11-1.25-3m17 .25c1 1.9 1.32 4.16 1.84 6.22a63.24 63.24 0 0 1 1.12 6.28c.16 1 .24 2.1.34 3.14s0 2.09.23 3.06a35.83 35.83 0 0 1 .22 6.55c0 4.46-1.16 8.67-2.1 13-.45 2.11-1.14 4.18-1.76 6.24a30.72 30.72 0 0 1-2.35 6.08c-1.14 2.08-2.44 4-5.06 3.66a3.72 3.72 0 0 1-2.75-1.47 5.07 5.07 0 0 1-.69-3.17c.14-2.32 1.25-4.44 2.23-6.53s1.49-4.16 2.3-6.2 1.34-4.09 2.15-6.09a31 31 0 0 0 1.77-6.27c.36-2.18 1.19-4.39 1.24-6.59 0-1.15.23-2.26.26-3.41a10.54 10.54 0 0 1 .2-1.57c.09-.49 0-1 .08-1.51a33.64 33.64 0 0 0 .48-5.67v-3.66c0-.63-.17-1.54.25-2.07m-6.5.25a8.6 8.6 0 0 1-.25 1 4.64 4.64 0 0 1 3 1.19c.42.33.4.78.43 1.26 0 .69-.22.89-.91 1-1.06.09-2.28-1-3-1.6s-1.92-1.49-1-2.56h-1.77c.69-.61 2.68-.25 3.5-.25m-8.75.75c.72 1.37 1.9 2.34 1.23 4a6.9 6.9 0 0 1-3 3.48 3.91 3.91 0 0 1 1.06-1.83 19.65 19.65 0 0 0 1.22-1.89c.26-.42-.19-1.59-.31-2s-.62-1.3-.22-1.77M74.06 31a9 9 0 0 1-.32 1.63 3.42 3.42 0 0 0 .2 1.67 10.12 10.12 0 0 1 .37 1.7c.07.49.14 1.17.75 1.25v-1.5a9.14 9.14 0 0 0 2.13.17c.72-.2 1.41-.43 2.12-.67a7 7 0 0 1-.5 1.75c.88-.46 1.38-1.36 2.18-1.92.33-.23.93-.51.57-1.08-.18-.29-1.28-.61-1.63-.77-1.83-.85-3.75-2.23-5.87-2.23m23.25 3c-.71-.58-.92-1.32-1.83-1.65-.49-.19-.92-.49-1.42-.18a2.21 2.21 0 0 0-.75 1.08c-.81-1 1.12-2.07 1.94-1.93A2.79 2.79 0 0 1 97.31 34m-18.25-.25c-.89.56-3.49-.79-3.75-1.75 1.29 0 2.71 1.09 3.75 1.75m-2 1.25a3.15 3.15 0 0 1-1 .16c-.52 0-.43-.29-.34-.66s.23-.62.7-.35a1.23 1.23 0 0 1 .69.85m21.5-.25a3.4 3.4 0 0 1 1 1.25c-.48-.12-1.51-.63-1-1.25m3.75 1.75a2.86 2.86 0 0 1-2.5-1.75c1.23 0 2.56.29 2.5 1.75m0 .75c.19 1-1.56.82-1.75 0a2.76 2.76 0 0 1 1.75 0m-1.75 1.25c.41.2.85.29 1.25.5-.38.32-1.43.1-1.25-.5m-11.3.5a2.51 2.51 0 0 1 .75 1.5c-.49-.24-1.08-1-.75-1.5m7.5.5c.35.67.12 1.39.27 2.08s.36 1.55.54 2.32c.41 1.68.91 3.17.09 4.81a18.57 18.57 0 0 1-1.48 2.51 5.24 5.24 0 0 0-1 2.33 4.35 4.35 0 0 0 .08 2.45c.28.68 1.16 1.25 1.25 2a3.77 3.77 0 0 1-1.81-1.49 3.51 3.51 0 0 1-.39-2.51c.12-1.91 1.55-3.3 2.45-4.91a3.62 3.62 0 0 0 .64-2.09c-.22-1-.51-1.83-.81-2.77-.23-.73-1.18-5.08.17-4.75m1.5.25a16.17 16.17 0 0 0 .91 4.27 18.23 18.23 0 0 1 .47 2 8.12 8.12 0 0 1-.13 2.25c.85-1.3.53-2.56.25-4a21.73 21.73 0 0 1-.5-4.25c1.08.14 1.41 3.13 1.64 4a27.47 27.47 0 0 1 .55 2.73c.12.76-.59 1.71-1 2.31-.92 1.46-2.44 2.32-3.39 3.75s-.24 2.76.41 4.22a2.56 2.56 0 0 1-1.84-1.5 3.55 3.55 0 0 1 .32-2.46 6.32 6.32 0 0 1 1.19-1.9 14 14 0 0 0 1.4-2.44c.7-1.42-.15-3.29-.48-4.69-.22-1-.88-3.58.19-4.25m7.75 2.5c.71 0 1-.61 1-1.25a1.06 1.06 0 0 0-1 1.25m-4.5.25c-.1.56.24 1.18.25 1.75-.38-.36-.65-1.32-.25-1.75m-8 .75c1 0 1.44.73 1.58 1.66.11.68.44 2.51-.37 2.86-.5.22-1 .49-1.34-.07a2.5 2.5 0 0 1-.33-1.47c.15-1 .28-2 .46-3m.5 1.25a17.46 17.46 0 0 1 .5 2.75c.61-.65.11-2.23-.5-2.75m2 .25c1.75 1.42.78 4.37-1 5.25a7.27 7.27 0 0 1 .85-2.8c.25-.75-.35-1.81.15-2.45m10 1a4.24 4.24 0 0 0-.62 1.55c0 .12 0 .84.13.85l1.11.18c.91.14.59-2.8-.62-2.58m-72 .5a32.21 32.21 0 0 1 0 5.29c-.31 1.81-.23 3.5-1.33 5.07a17 17 0 0 1-1.63 1.77 14.24 14.24 0 0 0-1.23 2.1c-.84 1.35-2.56 2.64-2.77 4.27a35.46 35.46 0 0 0 3.39-1.55 10.12 10.12 0 0 1 3.61-.95c-.43.53-1.22.8-1.75 1.25h.5c-.79 1.82 2.09 2 3.18 1.83a10.49 10.49 0 0 1 2.17 0 7.12 7.12 0 0 1 2.3.78c.62.28 1.07.93 1.63 1.29s1.39.85 2.11 1.25a6 6 0 0 1 2.61 3.11 18.82 18.82 0 0 1-2.88-.4 19.62 19.62 0 0 0-3.07-.1 5.24 5.24 0 0 1-2.77-1.2c-.93-.7-2.09-.93-3-1.67a2.52 2.52 0 0 1-.61-1.32 2.18 2.18 0 0 0-.94-1.21 6.79 6.79 0 0 0-3.22-.79c-1.83-.23-3.78 1.91-5.29 2.69a2.93 2.93 0 0 1 .75-1.25 5.85 5.85 0 0 0-1.53 1.07c-.45.42-1 1.19-1.72 1.18.45-.9 1.43-1.42 2.12-2.12a7.22 7.22 0 0 0 .89-1.17 5.79 5.79 0 0 0 1-1.5 7.33 7.33 0 0 0-.28-3.15 6.08 6.08 0 0 1 .29-3.32A21.65 21.65 0 0 1 28 54.77a25.88 25.88 0 0 1 1.43-3c.62-.94 1.23-1.9 1.9-2.81a21.06 21.06 0 0 1 2.16-2.17 4.7 4.7 0 0 1 .58-.51m15.75.5a15.29 15.29 0 0 1-.43 3.88 11.52 11.52 0 0 1-2.28 3.48c-.76 1-1.4 2.1-2.2 3.08-.63.76-2.27 2.06-3.34 1.81a26.68 26.68 0 0 1 1-3.44 7.07 7.07 0 0 1 2-3.51 34.94 34.94 0 0 0 2.14-3c.7-.87 1.93-2.12 3.07-2.29M43.56 56c1.27-.2 2-2.17 2.62-3.15a10.85 10.85 0 0 0 1.63-3.35c-1.14.17-1.87 2-2.35 2.9-.32.58-.62 1.18-1 1.73a3.92 3.92 0 0 0-.9 1.87m-11.5-6a18.41 18.41 0 0 0-3 5.38c-.37 1.06-.6 2.14-.92 3.22a7.62 7.62 0 0 0-.61 2.9c.9-.2 1.11-1.93 1.31-2.64a23.72 23.72 0 0 1 1-3.06c.45-1 .78-2 1.33-3 .33-.61 1.32-2.08.87-2.78m66.75 2c0 1.12-1 2.43-.75 3.5-1.79-.36-.6-3.31.75-3.5m1 1c-.17 1.1-.09 2.16-.25 3.25-1.66-.31-1-2.85.25-3.25m6 1.75a1.26 1.26 0 0 0 .65-.91c.05-.18 0-.89-.25-.8-.83.28-.89 1.07-.4 1.71m-25.23 1.75a2.56 2.56 0 0 1 .44 1.81 1.83 1.83 0 0 1-1.4 1.59c-.63.23-1.53 0-2.08.29a3.15 3.15 0 0 0-1.46 1.31c-1-1.19 1.67-1.69 2.19-2A3.53 3.53 0 0 0 79.92 58c.26-.47.28-1.09.64-1.51M48.81 60c.27 1.53 4.4-.25 5.3-.56s2-.6 2.92-.93c.7-.23 2-.42 2.28-1.26-1.78.07-3.54 1-5.27 1.34S50.56 59.8 48.81 60m56-2.75c-.48.83-2.63 2.3-2.36 3.3a12.78 12.78 0 0 1 .64 2.2 5.71 5.71 0 0 0 0 1c.12.17.85.15 1 .06a1 1 0 0 0 .44-.78c.11-.64 0-.38.52-.53 1-.26 1-.8 1.35-1.71.16-.48-.36-1.55-.5-2s-.32-1.65-1.1-1.51m-9.5 1a11.62 11.62 0 0 1 .47 2.13 9.85 9.85 0 0 0 .28 2.37c.51-1 .25-2.4.25-3.5.9.12 1 1.76.94 2.45a4.58 4.58 0 0 1-1 3c-.81.87-1.74 1.24-2.11 2.45a3.88 3.88 0 0 0-.27 1.45 3.4 3.4 0 0 1 0 1.42c-.78-.49-.49-2.09-.37-2.84s1.06-1.75 1.4-2.6a4.33 4.33 0 0 0 .39-3.15c-.11-.43-.46-.82-.5-1.25 0-.64-.11-1.27-.17-1.91h.75m-16.25 3a5.39 5.39 0 0 1-2.14 2.17c-.9.3-2.42 1.22-3.36 1.08.1-.55.65-.68 1.12-.81a2.73 2.73 0 0 0 1.54-1.11c.79-.89 1.53-2 2.84-1.33m-13.5 4c-.83.18-2-.66-2.81-.83a18.11 18.11 0 0 0-2.99-.47c.8-.71 2.55 0 3.5 0a2.44 2.44 0 0 0-1.88-.73 16.53 16.53 0 0 1-2.51-.46c-1.53-.32-3.07-.3-4.61-.56.53-.73 1.95-.66 2.75-.75a9.61 9.61 0 0 1 3.21 0c1 .19 1.72 1.33 2.73 1.64s2.38 1 2.56 2.11m-28.75-3.73a1.75 1.75 0 0 1-1.5.5 2 2 0 0 1 1.5-.5m-.75 1a3 3 0 0 1-2.25.75 3.8 3.8 0 0 1 2.25-.75m57.25 3c-.74 1-2.48.8-3.56.61-1.23-.21-2.49-.18-3.73-.47-2.44-.57-5.59-.7-7.71-2.14.62-.91 2.53.19 3.32.44a19.51 19.51 0 0 0 3.86.82c1.26.12 2.49.47 3.75.52s2.69.22 4.07.22m-16.25-1.34c1.61.27 1 1.89 0 2.55A5.48 5.48 0 0 1 73.25 68c-.7 0-1-.36-.8-1a2.11 2.11 0 0 1 1.11-1.46 6.4 6.4 0 0 1 3.5-1.33m2.5 1.21c.92 0 3 .06 3.35 1.07S81 68.74 80.25 69a3.43 3.43 0 0 1-1.94.45c-.58-.14-1.2-.52-1.09-1.15a3.89 3.89 0 0 1 2.34-2.94m23 .38l-.32 1.13c.5.13 1 .45 1.32-.09.18-.3-.52-1.34-1-1m-67.5.22c.22 1.22 2.79 1.48 3.75 1.86 1.4.56 2.75 1.65 4.25 1.89-.67-1.17-2.66-1.83-3.84-2.29S36.48 66 35.06 66m52.5 1a4.22 4.22 0 0 1-2.1 2.71 2.31 2.31 0 0 1-1.51.54c-.39 0-1.32.07-1.21-.61.19-1.16.28-2.51 1.57-3a5 5 0 0 1 3.25.38m8.25-.5a22.45 22.45 0 0 1-1 3c-.85-.93.15-2.5 1-3m-4 .5c.43.81-.26 1.86-.89 2.35a4.31 4.31 0 0 1-1.36.81c-.28.09-1.21.31-1.32-.14s-.37-1-.16-1.36.46-1.3.81-1.44c.93-.36 2 .07 2.92-.22m-71 2a4.72 4.72 0 0 0-1.8.27 6 6 0 0 1-1.7.73c.5.47 1.24 1 1.25 1.75a2.92 2.92 0 0 1-2.42-1c-.67-.77-1-1.7-.11-2.37a3.15 3.15 0 0 1 2.65-.78c.79.14 2 .46 2.13 1.4m55.75 0c.18 1-1.18.61-1.75.5.17-.73 1.19-.8 1.75-.5m-42.75 7.5a.64.64 0 0 1-.75-.25v2.25a9.43 9.43 0 0 0 .5-1.5c1.82.55-.09 3.06-1.25 3.25.61.24 1.19-.32 1.62-.66s1.24-1.1 1.76-.78c.9.55-1.21 2.82-1.53 3.28-.8 1.18-1.69 2.31-2.49 3.5-.26.4-.89 1.55-1.23.58-.17-.49.27-1.19.37-1.67a7 7 0 0 1-1.28 1 4.88 4.88 0 0 1-1.67.2 12.22 12.22 0 0 1-3.26-.63 25.75 25.75 0 0 1-6-2.57c-.18-.11-.82-.92-.78-1.1a14.64 14.64 0 0 0 .47-1.69c.17-1.53 1.42-1 2.53-1.26s1.67-1.6 1.93-2.5c.1-.37.4-1 .14-1.35s-.89-.62-1.23-1.1a2.62 2.62 0 0 1-.35-.5c.52-.33 1.46-.91 2.1-.69l1.43.49c.32.12.35.77.41 1.05.17.7-.15 1.47 0 2.21s.63 1.47.78 2.19a11.89 11.89 0 0 0-.46-2.76c-.2-1.14.37-1.66 1.21-2.24a11 11 0 0 1-1.36-.72 5.77 5.77 0 0 0-2.35-.77c-1.23-.1-2.92.15-3.79-1 .6-.27 1.26-.32 1.87-.61a10.5 10.5 0 0 1 2.34-.69 5.57 5.57 0 0 1 2.09-.29 5.88 5.88 0 0 1 2 1 18.78 18.78 0 0 1 3.8 2.37c1 1 2.4 2.43 2.4 4m65.5-2c-.09.41-.25.78-.33 1.18s.47.77.77 1.06c1.16 1.09.74-.93 1.06-1.24.16-.15.91 0 1.18 0a1.56 1.56 0 0 0 1.11-.61c.58-1 .16-1.85-.07-2.91a4.66 4.66 0 0 0-1.09-2.21c-.63-.59-1.8.52-2.34.88A4.3 4.3 0 0 0 98 72.52a1.59 1.59 0 0 0 1.3 2m-17.25-5c0 .17.29 1 .19 1a1.86 1.86 0 0 1-1.14.1c-1.51-.34.31-1 1-1.13m10.75 0c.12.27.23.55.36.81s.12.46-.26.61a5.73 5.73 0 0 1-1.85.08 2.06 2.06 0 0 1 1.75-1.5m0 3.5c0 1.89-4.27 1.25-5.44 1.25a45.44 45.44 0 0 1-6.9-.44c-1-.15-2.07-.15-3.1-.32S75.12 73.22 74 73a27.6 27.6 0 0 1-3.13-.8c-.64-.23-2.34-1.71-1-2.08 1.06-.3 1.85.24 2.82.66a24 24 0 0 0 2.84.91 51.1 51.1 0 0 0 5.48 1c1.9.34 3.83.43 5.75.6a55.7 55.7 0 0 0 6.05-.29m.5-1.5c-.19.68-1.26.69-1.83.72a21.6 21.6 0 0 1-2.61.27c-1.67-.11-3.34-.27-5-.32a47.45 47.45 0 0 1-10.55-1.92c.48-.46 1.58 0 2.14.13.85.2 1.69.37 2.55.5 1.71.26 3.43.42 5.13.74a13.63 13.63 0 0 0 2.64.13c.81 0 1.6.15 2.41.22 1.7.15 3.44-.4 5.13-.47m-6-1.5a2.68 2.68 0 0 1 .25 1 4 4 0 0 1-1.5 0 2 2 0 0 1 1.25-1m-68 3.5c.8-.23 1.1 0 1.43.7a11.1 11.1 0 0 1 .57 1.55 4.05 4.05 0 0 1-1.69-.39c-.64-.21-1.3-.35-1.95-.51s-3 .21-3.26-.67c-.16-.51-.66-1.37.11-1.6a5 5 0 0 1 1.83-.32c.83 0 3 0 3 1.24m51.7 20.27c-1.52.82-3.6-1.74-4.44-2.72a13.53 13.53 0 0 1-2.68-5.37 6.08 6.08 0 0 1-.52-2.68 13.64 13.64 0 0 1 1.35-2.77c.43-.85 1-1.63 1.56-2.44a8 8 0 0 0 1.48-2.54c-.62.36-1.11.94-1.75 1.25a13.41 13.41 0 0 1 .36-1.5c.18-.55.64-.78 1.14-1a7.37 7.37 0 0 1 1.25-.64c.77-.2 1-.06 1.08.64 0 .36-.5 1.17-.66 1.51-.25.53-.49 1.07-.73 1.61a15.32 15.32 0 0 0-.88 3.13 9.18 9.18 0 0 0 .13 3.18c.2 1.12.28 2.24.5 3.36a24.27 24.27 0 0 0 2.4 6 4.13 4.13 0 0 1 .41 1m.75-6c-.69-.51-1-1.92-1.23-2.69a9.49 9.49 0 0 1-.52-3.17v-3.64a13.84 13.84 0 0 1 .33-3.08c.22-.93 1.38-2.39 1.86-.68a6.15 6.15 0 0 1-.53 3.15c-.81 2.11-.6 4.62-.51 6.84a6.93 6.93 0 0 0 .19 1.7 5.31 5.31 0 0 1 .41 1.55m2-13.5c0 .25-.12.88-.5.5s.25-.55.5-.5m2.75.25c0 1-1.25 1-1.25 0h1.25m30.5.25c-.66 2.55-1.63 5.12-1.75 7.75a5.67 5.67 0 0 0 1.75-2.75c-1 .44-.12-2-.06-2.37.08-.5.71-2.38.06-2.63M65.81 75a7.59 7.59 0 0 1-1.57 2.54 27.27 27.27 0 0 0-1.77 2.94c-1 1.9-2.45 3.58-3.57 5.44a18.76 18.76 0 0 0-2.41 12.71 10 10 0 0 0 3 5.92l1.2 1c.47.41.11 1.12 0 1.62a2.68 2.68 0 0 1-.64 1.08c-.71.56-.8.67-1.65.35-1-.4-1.72-1.63-2.28-2.52a9 9 0 0 1-1.12-3.02c-.42-2.09-1.24-4.17-1.35-6.31-.06-1.1 0-2.21 0-3.32a10.94 10.94 0 0 1 .81-3.09A57.18 57.18 0 0 1 57 84.22a43.68 43.68 0 0 1 3.46-5.91 7.15 7.15 0 0 1 2.34-2 8.66 8.66 0 0 1 3-1.32h.1m12.5 0c-.52 1-.79-.16 0 0m7.25 8.5c-.91 1.69.75 4.55 1.56 6 .5.9 1.14 1.71 1.73 2.56.38.54 1.76 2.1 1.21 2.79s-2.37.37-2.92-.18a8.25 8.25 0 0 1-1.41-3c-.73-2.08-.46-4.35-2.07-6a11.51 11.51 0 0 0-2.35-2.17 16.65 16.65 0 0 1 .5 5.5 14.59 14.59 0 0 0 .1 2.91c.19 1 .66 1.92.79 2.87-1.08-.22-2-1.47-2.71-2.21a7.92 7.92 0 0 1-2-2.83 39.06 39.06 0 0 1-.44-4.06c-.17-1.3-.1-2.59-.3-3.9C76.4 83 77 84.59 77 86a19.93 19.93 0 0 0 .53 4.81c-1.41-.29-1.49-2.66-1.71-3.8-.14-.72 0-1.47-.15-2.2s-.21-1.5-.39-2.25a1.94 1.94 0 0 1-.5.75c-.49-.76.48-2.35.78-3a13.13 13.13 0 0 1 1.74-2.9 5.72 5.72 0 0 1 2.46-1.7 4 4 0 0 1 1.59-.43c.66 0 1.32.08 2 .1 1.1 0 2.19.24 3.31.27a4.93 4.93 0 0 1 2.89 1.12A3 3 0 0 1 91 79.31a7.72 7.72 0 0 0-.12 3.1 15 15 0 0 0 .74 2.17 3.49 3.49 0 0 1 .38 2.23c-.6 1.33-1.23 3.08-2.49 3.87s-4.11-6-3.91-7.16m-64.79-5.75c-1 .54-2.91-.24-4-.42a2.6 2.6 0 0 0-1.87.57c-.52.35-.84-1.21-.84-1.55 0-1.49 2.67-1 3.54-.86a5.27 5.27 0 0 1 2.05.67 5.72 5.72 0 0 1 1.1 1.59m71-2.5a10.25 10.25 0 0 1-.23 1.73 1.65 1.65 0 0 1-1.5-1.5 6.22 6.22 0 0 0 1.75-.25m-17 1c0 1-1 1-1.69.54-.37-.23.08-.69.39-.69a5.24 5.24 0 0 1 1.3.15m-42.5.5V78a1.05 1.05 0 0 0 0-1.25m44.25 0a29.22 29.22 0 0 1-2 4.23 7.86 7.86 0 0 0-.66 4.4c.29 1.48 0 3 .53 4.39s1.44 2.94 1.4 4.48a2.38 2.38 0 0 1-1.75-.75 8.37 8.37 0 0 1-1-1.7 11.16 11.16 0 0 1-1.22-3.55 1.41 1.41 0 0 0 1.45-.54c.27-.44 0-1.17 0-1.65 0-1.26.15-2.5.17-3.76 0-.5.33-1 .33-1.49a4.44 4.44 0 0 1 .35-1.8 4.05 4.05 0 0 1 2.4-2.26m-7.25 1c0 2.66-.3 5.53.7 8s2.1 5.29 3 8c-1.3-.25-2.14-2.11-2.7-3.16A21.2 21.2 0 0 1 68.84 86a15.8 15.8 0 0 1-.53-4.22c0-1 0-3.37 1-4M31.56 78a12.35 12.35 0 0 1-.25 1.5c.58-.19.58-1.08.25-1.5m41.5 0a2.68 2.68 0 0 1 .25 1h-1a1.12 1.12 0 0 1 .75-1m-55.5.5a19.13 19.13 0 0 1-.78 3.41c-.23 1.23-.46 2.49-.63 3.72s-.26 2.43-.35 3.68c-.07 1-.74 2.7-2 2.69a34.11 34.11 0 0 1 .85-7.25c.26-1.18.58-2.34.93-3.5.29-1 .7-2.8 2-2.75m38.25 1c-.94.48-1.83.55-2.61 1.38a20.33 20.33 0 0 0-2.06 2.66c-1.22 1.91-2.38 3.88-3.67 5.74A42.68 42.68 0 0 0 44.33 95c-.5 1-1.14 1.94-1.66 2.93a31.72 31.72 0 0 0-1.3 3.07 126 126 0 0 0-4.5 12.46 47.64 47.64 0 0 0-1.35 6.36c-.32 2.23-.94 4.42-1.23 6.66-.28 2.09-.33 4.14-.5 6.24-.09 1.06-.23 2.06-.23 3.13a22.75 22.75 0 0 1-.21 3.4 22.31 22.31 0 0 0 0 3.27 24.61 24.61 0 0 0 .08 3.33 34.9 34.9 0 0 0 1.1 6.42c.35 1.08.86 2.08 1.28 3.13s0 2.27-.26 3.46c-.11.48-.27.95-.41 1.43s-.1 1.25-.59 1.2c-1-.1-1.9-1.16-2.56-1.89a24.2 24.2 0 0 1-3.52-5.7c-1-2-2.14-3.86-3.11-5.85a13.26 13.26 0 0 1-1.36-3.12 15.9 15.9 0 0 1-.22-3.16c0-2.2.39-4.35.53-6.55a57.93 57.93 0 0 1 1.18-6.5c.41-2.14 1.1-4.24 1.72-6.32s1.52-4.08 2.24-6.14a63.63 63.63 0 0 1 2.58-6.36c1-2.05 2-4 3.14-6s1.85-3.89 2.94-5.74c2.26-3.83 4.41-7.78 7-11.4a33.62 33.62 0 0 1 4.29-5.09c1.63-1.5 3.36-3.53 5.74-2.91a1.09 1.09 0 0 1 .64.76M15.06 80v.85c0 .3-.47.15-.72.15a4.87 4.87 0 0 1-1.78-.31c-.75-.28-2.51-.83-2.75-1.69 1.83-.54 3.45 1 5.25 1m15.5-1a1.32 1.32 0 0 0-.25.75.53.53 0 0 0 .25-.75m67.5 1.75a1.21 1.21 0 0 0 .89-.53c.13-.16.14-.84-.06-1a.9.9 0 0 0-.93.32 1.67 1.67 0 0 0 .1 1.18m-61.75 3.8a3.84 3.84 0 0 0 1.22-.18c.27.87-.28 1.57-.22 2.43.48-.27.81-.71 1.29-1 .31-.18.4-.46.74-.55.09 0 .45.37.48.25s.09-.43.14-.64c.12-.57.11-1.15.24-1.72a3.27 3.27 0 0 0 .15-1.9 3.87 3.87 0 0 0-.48-.87c-.14-.18-.71-.47-.94-.33a.84.84 0 0 0 .13 1.45.48.48 0 0 1 .15.34c-.27 1.22-2.65 1.41-2.9 2.71m21.5-4a61.54 61.54 0 0 1-2.66 5.71 48.8 48.8 0 0 0-2.26 6.52c-.08.26-.22 1.27-.41 1.27-.58 0-.66-.46-.93-1a12.65 12.65 0 0 0-2.08-2.59c-.21-.23-.87-.94-.76-1.24a7.14 7.14 0 0 1 .74-1.67c.63-1 1.27-1.92 1.91-2.87a28.06 28.06 0 0 1 2.48-3.44 5.09 5.09 0 0 1 4-.74m6-.25a3.11 3.11 0 0 1-.5 1.25c-.35-.42.11-1 .5-1.25m9 .25c.57.34.14 1.33-.5 1s-.12-1.11.5-1M29.56 83c-.2.23-.4.21-.68.25s-.07.83-.07 1c.45-.18.48-.32 1-.25a1.53 1.53 0 0 0-.25-1m32.75 0c.48.9-.43 1.89-.93 2.58a11.22 11.22 0 0 0-1.68 2.74 20.55 20.55 0 0 0-1.41 6.32 11.34 11.34 0 0 0 .23 3.39 13.46 13.46 0 0 0 1.36 3.2 6.29 6.29 0 0 0 2.15 2.2c.55.35.58.45.2 1s-1 .28-1.46.13c-1.85-.54-3-3.27-3.48-4.95a14 14 0 0 1-.29-5.87 22.51 22.51 0 0 1 1.74-6.13c.64-1.44 1.84-4.26 3.57-4.59m10.25 0v.7c0 .08-.45.11-.5 0s0-.58 0-.69.4-.07.5-.06m-44.75.75v.75c.62-.31.62-.44 0-.75m-1.75.28c0 .31-.08.6.25.75a1.43 1.43 0 0 0-.25-.75m.75.25c0 .25.12.88.5.5s-.25-.55-.5-.5m38 .5a5.14 5.14 0 0 0 .5 2.25 2.47 2.47 0 0 0-.5-2.25m7.5.25v.75a.54.54 0 0 1 0-.75m2.75.75v1.5a1.25 1.25 0 0 1 0-1.5m7.75.25c1.52.51 1.52 3 1.85 4.3.18.77.34 1.56.55 2.33.1.38.63 2.16-.19 2-1-.14-1.32-.71-1.83-1.55a4.63 4.63 0 0 1-.63-2.08v-2.61a5.14 5.14 0 0 1 .25-2.39m10.49.71c1.38-.08 0 2.75-.22 3.24s-1.3 2.88-2.15 2.88c-.59 0-.78-.84-.71-1.33a5.24 5.24 0 0 1 .84-1.58 12.33 12.33 0 0 1 2.24-3.21M75.31 88a11.66 11.66 0 0 0 .25 2.25 1.87 1.87 0 0 1-.25-2.25m-11.25 1.5c.16.66-.52.68-1 .86s-1 .5-1.49.39c0-1 1.73-1.66 2.5-1.25m11.75 1c.52.58 1 1.19 1.48 1.8s1.27 1.36 1.27 2.2c-.93.12-1.64-.77-2-1.5-.32-.57-1-1.82-.72-2.5m-41.5 48a6.41 6.41 0 0 0 3-.75 31 31 0 0 0 3-1.41 19.83 19.83 0 0 0 4.79-4.44 31.57 31.57 0 0 0 5.6-11.9 26.15 26.15 0 0 0 .82-6.29c0-1.08.15-2.24.06-3.31a30.51 30.51 0 0 0-.13-3.32c-.21-1.08-.6-2.12-.87-3.18a29.35 29.35 0 0 0-.9-3.21 26.53 26.53 0 0 0-3.16-5.89c-.67-.94-.22-2 .39-2.88.15-.21.6-1.09 1-1a2.51 2.51 0 0 1 1.52.65 15.81 15.81 0 0 1 3.4 6.06c.71 2 1.08 4.16 1.59 6.25a20.5 20.5 0 0 1 .56 6.34c-.15 2.1-.2 4.21-.5 6.3a18.29 18.29 0 0 1-2.05 6c-1 1.89-2 3.76-3 5.63-1.11 2-1.91 4.23-3 6.24a35.69 35.69 0 0 1-2.79 4.61 15.67 15.67 0 0 1-4.24 3.44c-.95.6-3.92 2.11-5 1.16-.51-.45-.37-1.78-.37-2.37 0-.92.24-1.79.25-2.71M15.81 92a2.68 2.68 0 0 1 .25 1c-.33-.09-.66-.19-1-.25a3.14 3.14 0 0 1 .75-.75m44.75.75c-.28 0-1.59.1-.94-.56.36-.36.89.12.94.56m2.25-.25c0 .24.1.5-.16.5s-.77.09-.84 0 0-.5.16-.5h.84m4 .75c.12.65-.43.72-.93.9a6.25 6.25 0 0 0-1.48.85c-.57.39-2.2 2.08-2.54.93s1.1-2.09 2-2.63a3.5 3.5 0 0 1 3 0m-52 0a1.4 1.4 0 0 0 .14 1.03c.18.35-.56.65-.9.69a1.88 1.88 0 0 1 .75-1.75m46.5 1a2.9 2.9 0 0 1-1.21 0 4.85 4.85 0 0 1-.79 0c-.08-.09 0-.61 0-.75.6.07 1.83 0 2 .75m-.75.75v.75s-1.07.14-1.21 0a1.55 1.55 0 0 1 0-.75h1.21m-15.5.25c2 0 3.23 3.61 3.76 5.07a36.93 36.93 0 0 1 1.79 6.39 29.66 29.66 0 0 1 .44 6.24c0 1.08-.18 2.23-.31 3.3a24.6 24.6 0 0 1-.56 3.31 33.24 33.24 0 0 1-2.1 6.32c-.52 1-1 2.07-1.54 3.1a23.23 23.23 0 0 1-1.93 2.65 14.23 14.23 0 0 1-4.88 4.35c-1 .52-5.46 2.91-5.46.36 0-.54-.31-2.63.26-2.92 1-.49 2-.4 3-.86a14.14 14.14 0 0 0 5.3-4.31 22.57 22.57 0 0 0 3-6 21.6 21.6 0 0 0 1.67-6.35 16.88 16.88 0 0 0 .19-2.65c-.11-.92-.11-1.83-.19-2.75a31.38 31.38 0 0 0-1.27-5.4 30.61 30.61 0 0 0-1.92-4.8c-.23-.51-.47-1-.7-1.52-.17-.35.2-1.06.3-1.4a14.47 14.47 0 0 1 1.12-2.13m22.25 1.25a2.42 2.42 0 0 1-1.63.18c-.51-.1-1.29 0-1.12-.68.83 0 2.15-.2 2.75.5m-6.25 1a2.87 2.87 0 0 1-1.75-.5c.46-.67 1.77-.36 1.75.5m-35-.5a6.77 6.77 0 0 0-1.25 2.5c.79-.15 1.91-1.79 1.25-2.5m40.75 1.25c-.84 0-3.29.16-3.5-1 .79 0 3.35-.19 3.5 1m-.75.75c0 .14.06.75-.06.75a4.87 4.87 0 0 1-1.08-.07c-.62-.13-1.28-.26-1.9-.33-.79-.08-3.26-.09-3.46-1.1a20.81 20.81 0 0 1 3.25.23c.94.15 2.33.69 3.25.52m-33.75 2.5c-1 .24-1.08-.82-1.87-.86a1.39 1.39 0 0 0-.93.24c-.35.22 0 .44.19.72s.58.77.5.95a4 4 0 0 1-.58 1.14 3.6 3.6 0 0 0-1.06 1.56c.22 0 1-.12 1 .12V107a3.72 3.72 0 0 0 1-.59 2 2 0 0 1 1.48-.16c0-.6-.25-1.19-.25-1.79v-2a3.76 3.76 0 0 0 1.34 0c.27 0 .16-.87.07-1-.38-.55-.75.08-.52-.82a8.77 8.77 0 0 0 .11-1.45c-1.35.32-1.29 1.34-.5 2.25m32.75-1c-.53.79-1.78.44-2.54.31s-2.17-.11-2.46-1.06c.87 0 1.69.21 2.54.26a5.45 5.45 0 0 1 2.46.49m2.25-.25a10.85 10.85 0 0 1-1.3 3c-.49 1-1.05 1.91-1.55 2.88-1 2.07-2.08 4.15-3 6.27s-1.93 4-2.85 6-1.79 4.06-2.85 5.94a119 119 0 0 0-5.61 12.26c-.43 1-.84 2.06-1.21 3.11s-.54 2.33-1.42 2.94a55.46 55.46 0 0 0-5.22 3.73 1 1 0 0 1-.45.17 11.25 11.25 0 0 1 1.07-2.9c.5-1.07.91-2.17 1.43-3.22 1-2 1.93-4.1 2.94-6.13s2.1-4.21 3.16-6.31c1-1.93 2.07-3.78 3-5.71 2-4 4.2-7.82 6.33-11.72 1-1.91 2.12-3.79 3.23-5.66.92-1.53 2.33-4.3 4.31-4.6m0 6.75c.24 1.29 1.69.68 2.41 1.37a3.36 3.36 0 0 1 .61 3 4.31 4.31 0 0 1-2 2.54c-1 .56-2.06 0-3 .51-.61.32.55.64.79.68a3 3 0 0 1 1.3.69 3.12 3.12 0 0 1 .37 3.06 2.86 2.86 0 0 1-.84 1.31c-.43.29-1 .88-1.54 1a7 7 0 0 1-3.09-.4c-.09.32-.5 1.23 0 1.27a5.72 5.72 0 0 1 2.07.32c1.34.69 1.46 1.93 1.22 3.28s-1.47 2.07-2.64 2.59-2.49-.47-3.61-.46c0 1.39 1.86 1 2.73 1.63 1.25.94 1 2.31.76 3.64a3 3 0 0 1-1 1.4 4.62 4.62 0 0 1-1.8.83 7.91 7.91 0 0 1-1.75-.09 3.67 3.67 0 0 0-1.94-.16 1.5 1.5 0 0 0 1.25 1c.47.13 1.33.23 1.33.86 0 .89-2.37 1.33-3 1.57a32.64 32.64 0 0 0-3.48 1.37c-1 .5-2.23 1.44-3.33 1.45.27-2.13 1.39-4.3 2.22-6.26s2-4.1 2.86-6.19S56 125 56.89 123s1.84-4 2.9-6c2.12-3.91 3.75-8.1 5.91-12 .53-.95 1.21-1.82 1.77-2.75a2.36 2.36 0 0 1 2.3-1.54c.82 0 2.37.1 2.78.89a3.39 3.39 0 0 1 0 3.1 4.21 4.21 0 0 1-2.25 2.38c-1 .44-2-.13-3-.13m-42.75-5.75c-.4.6-1.17 1.79-1 2.5a3.71 3.71 0 0 0 1.5-2.5 2.78 2.78 0 0 0-.5 0m43.25 26a48 48 0 0 1 1.21-1.7c.09-.12.4-.51.37-.68s-.32-.39-.32-.4c.41-1.3.78-2.61 1.23-3.9s.74-2.37 1.09-3.59.58-2.86 1.67-3.48a16.29 16.29 0 0 1 .25 2.5c.6-1.16-.17-2.55 0-3.78a4 4 0 0 1 .6-2 18 18 0 0 1 1.14-1.61c.58-.64 2.7-2.28 2.48-3.2s-.91-3.14.78-3.39a5.27 5.27 0 0 0 0 2.13c.06.49.77 1.11 1.25 1s1.58-.23 1.89-.89a4.91 4.91 0 0 0 .63-2c1 .24.78 2 .34 2.55s-.67 1-1 1.43a3.11 3.11 0 0 0-.06 1.58c.11 1 .08 2.07.27 3a4 4 0 0 1-.59 3.23 24.44 24.44 0 0 1-2.28 2.39c-.92 1-1.36 1.59-1.23 3a3.84 3.84 0 0 1-1 2.76c-.34.39-.79.75-.85 1.29a5.53 5.53 0 0 0 .3 1.7c.12.54.63 2.35.11 2.79s-1.33-1.62-1.25-2c-.39.71 0 1.51 0 2.25-.45-.07-1.25-.07-1.25-.54s.06-1.17-.26-1.4a1 1 0 0 0-1.31.31c0 .1-.2.63-.22.63h-1a7.42 7.42 0 0 1 2.06-2.61 2.64 2.64 0 0 1 .51-.43c.37-.24.41-.24.6.13a3.64 3.64 0 0 1 .33 1.41c.48-.91-.1-2.07-.25-3-1.24.66-2 2.11-3.1 3a4.31 4.31 0 0 0-1.94 3.79c.16 1.5.7 3 .78 4.48 0 .5.37 1.67-.42 1.55-.53-.08-.62 0-.87-.49a1.77 1.77 0 0 1-.2-1c-.38.82-.17 1.75-1.26 2a6.28 6.28 0 0 1-1.3 0c-.39 0-.19-.91-.19-1.25-.46.87-1.08 1.9-2.25 1.71-.54-.08-.79-.06-.62-.65s.38-1.19.6-1.79c.76-2.08 1.59-4.16 2.27-6.27 1.35-4.2 2.75-8.37 4.27-12.52.74-2 1.37-4.12 2-6.18s1.25-4.46 2.14-6.54c.15-.35.63-1.1 1-1.15s.72.91.65 1.27a23.25 23.25 0 0 1-1 3.12c-.35 1.07-.67 2.15-1 3.22s-.82 2-1.07 3c-.61 2.54-1.5 5-2.28 7.5-.46 1.47-1 2.92-1.45 4.37a18.82 18.82 0 0 0-1 3.38m-24.25-25.5a.67.67 0 0 1-1.25-.25 2.8 2.8 0 0 1 1.25.25m20.25 0a1.26 1.26 0 0 1-2.25-.25 17.21 17.21 0 0 1 2.25.25m13 .25v1.85c0 .62.33 1.33.1 1.76-.5 1-1.29 2.65-2.59 2.64a13.69 13.69 0 0 1 1-3.14c.35-.88.65-2.57 1.49-3.11m7.75.25a7.89 7.89 0 0 1-.5 2.5 2.38 2.38 0 0 1-.25-1.27v-1.19c0-.08.64 0 .75 0m2 0c.66 1.24-.2 3.21-.56 4.45-.46 1.58-.77 3.21-1.23 4.8s-.94 3.15-1.38 4.73c-.29 1-1.37 3.54-2.58 3.77a5.43 5.43 0 0 1 .5-2.12c.21-.77.41-1.55.62-2.32.46-1.6.92-3.2 1.44-4.78s.74-3 1.14-4.47c.3-1.09.68-3.85 2-4.06m-6.75.25c-.06.37-.25 1.37.4 1.37s.45-1.06.35-1.37a.86.86 0 0 1 .54 1c-.14.88-.52.87-1.24.87s-1-.12-.93-.87c0-.57.25-1.12.88-1m11.75.25c0 1.31-.88 2.47-1.58 3.51s-2 1.87-2.61.24a4.18 4.18 0 0 1 .69-3.6c.27-.41 1.28-.39 1.75-.36a8.2 8.2 0 0 0 1.75.21m-47.5 1c-.72-.06-1.63 0-2-.75.6.07 1.83 0 2 .75m-2.5.25c1.31 2-1 4.49-1.8 6.27-.52 1.14-1 2.26-1.43 3.44s-1 2.19-1.27 3.29c-.65-.71.16-2.44.43-3.19.39-1.1.52-2.25.94-3.35s.87-2.51 1.35-3.75c.34-.87.66-2.54 1.78-2.71m3 1.5a2.87 2.87 0 0 1-1.75-.5 1.06 1.06 0 0 1 1.75.5m-21-.5a5.83 5.83 0 0 0-1 2.25c.55-.3 1.82-1.69 1-2.25m60.25 0c0 1.18-.2 3.5-1.25 4.25-1.14-1.6-.15-3.25 1.25-4.25M44 106.27c0 .24.1.5-.16.5s-1 .12-1.09 0 0-.5.16-.5H44m31.25 11.25c1-.12 2-1.17 2.69-1.84a9.78 9.78 0 0 0 2.47-2.68c.36-.94-.1-2.45-.29-3.43s-.3-2.22-.56-3.32c-1.06.18-2 1.31-2.72 2a12.12 12.12 0 0 0-2.17 2.53c-.57 1 0 2.28.12 3.38a27.72 27.72 0 0 1 .52 3.35m4.25-6.25c-1.4.19-.07-1.32-.65-1.87a.8.8 0 0 0-1.09.22 1.94 1.94 0 0 0-.26 1.15c-1.7-.37.15-2.79 1.1-2.92.36 0 .58-.18.7.22a8.58 8.58 0 0 1 .26 1.2 3.11 3.11 0 0 1-.06 2M44.06 108a6.25 6.25 0 0 0 .09 1c0 .69 0 .75-.48 1.19s-1.36 1-2 1.54a15.38 15.38 0 0 0-2.85 3.8c-.23-.59.41-1.48.58-2a20.79 20.79 0 0 1 1-2.52c.62-1.37 2.09-3 3.7-2.94m12 0a13.62 13.62 0 0 1 2 1.4c.9.78.65 1.44.11 2.39-.44.78-.91 1.53-1.3 2.33s-.68 1.91-1.54 2.13c0-1.44.18-2.87.23-4.31 0-.67.19-1.3.22-2s-.09-1.49.3-2m-33.25.25a5.22 5.22 0 0 0-.5 2 2.82 2.82 0 0 0 1-2 2.78 2.78 0 0 0-.5 0m65 .75c-.24 1.56-1.64 3.23-2.5 4.5-.47-.72.37-2.08.66-2.73a3.2 3.2 0 0 1 1.78-1.78m-41.75 2.75c-.62 0-1.85.14-2.25-.5a1.7 1.7 0 0 1 2.25.5m-24-.5a8.82 8.82 0 0 0-.5 2.25c.39-.24.83-.07 1.25 0s1.35.09 1-.63c-.24-.49-1-.12-1.25-.37-.41-.48.56-1.39-.5-1.25m55.75.5c.57.34.14 1.33-.5 1s-.12-1.11.5-1m1.5.25c0 .25-.12.88-.5.5s.25-.55.5-.5m-35.75.25c-.25.41-.47.78-1 .5a1.26 1.26 0 0 1 1-.5m32 0c.28.46.8 1.76 1.3 2 .72.27 1.44-.82 2.2-.45a6.28 6.28 0 0 1-1.28 1.53c-.28.25-1.45 1.52-2 1.22-.33-.19-.34-1.86-.41-2.25a2.61 2.61 0 0 1 .16-2m-29.5 1a.61.61 0 0 1-.75-.5 1.74 1.74 0 0 1 .75.5m31.28-.3c0 .43 0 .84-.5 1a1.23 1.23 0 0 1 .5-1m-55.75.75c-.14.88-.36 1.66-.44 2.56s-.67 1.84-.56 2.69a3.55 3.55 0 0 0 1.25-2 6.19 6.19 0 0 0 1.5.75 6.79 6.79 0 0 0-.71-2.25c-.24-.58-.39-1.48-1-1.75m22.25.5c-.18 1.12-1.39 1.86-2.22 2.52s-1.36 1.58-2.28 1.73a7.63 7.63 0 0 1 1.65-2.82c.63-.71 1.77-2 2.84-1.41m2 0c0 .11 0 .5-.06.5s-.62.08-.69 0 0-.5 0-.5h.7m0 1.75a1.27 1.27 0 0 1-.75.25c-.53 0-.85.12-.75-.5a3.46 3.46 0 0 1 1.5.25m27.75 0a15.1 15.1 0 0 0-1.42 1.59l-.75 1.39c-.16.29 0 1.07 0 1.39a3.29 3.29 0 0 1-.33 2.34 20 20 0 0 0-1.27 1.79 5 5 0 0 0 1.79-1.52 2.71 2.71 0 0 0 .61-1.22 11.74 11.74 0 0 0-.28-1.25 3.6 3.6 0 0 1 .58-2.46c.39-.43 1.53-1.35 1.09-2m7.25.25a46.81 46.81 0 0 1-1.53 5.48c-.39 1.38-.86 3.78-2.22 4.52-.3-.9-.76-2-.28-2.89s1.32-1.6 1.4-2.51-.16-2 .38-2.93a3.27 3.27 0 0 1 2.25-1.67m-36.5.75c0 .49 0 .5-.4.5-.2 0-1.22.14-1.35 0-.64-.68 1.53-.5 1.75-.5m1.25.75a2.46 2.46 0 0 1-1-.25.63.63 0 0 1 1 .25m28.5.16a2 2 0 0 0-1.16 2.34c.15.59 1.37 1.73 2 1.28.79-.56 1.66-1.13 1.33-2.28a1.71 1.71 0 0 0-2.18-1.34m-37 .34a4.09 4.09 0 0 1 .67 1.63c.07.46-.09 1.84-.85 1.47-.29-.14-.82-.23-.85-.59a4.66 4.66 0 0 1 0-1.18c.09-.57.33-1.45 1-1.33m6.5.25c.06 2-2 1.14-3.25 1.5.26-1.38 2.17-1.46 3.25-1.5m30.5.5a1.29 1.29 0 0 0 1 1.25 4.56 4.56 0 0 0-.5-1.75 1.26 1.26 0 0 1 1.15.94 3.43 3.43 0 0 1-.67 1.39c-.4.19-1.17-.63-1.49-.86s.27-1 .53-1m-28.75.25a.61.61 0 0 1-.75-.5 1.74 1.74 0 0 1 .75.5m-.25 1c0 .24.1.5-.16.5s-1 .12-1.09 0 0-.5.16-.5h1.09m-24.5.25a6.15 6.15 0 0 0-.5 1.5c.46-.26.86-1 .5-1.5m24 1.75a11.65 11.65 0 0 1-2.5-.25c.57-.54 2.3-.74 2.5.25m-6 2.5c-.71-.15-.85-2.17-1.5-1.75-.19.12-.41.85-.59 1.06a1.78 1.78 0 0 1-1.16.69c.11-1.18-.06-2.62 1.5-2.58a3.82 3.82 0 0 1 1.72.85c.22.14.11 1.44 0 1.73m5.5-1.5c-.59 1-4.07.38-4.25-.75a11 11 0 0 1 4.25.75m-24 .5a3.07 3.07 0 0 0-.25 1.25 1 1 0 0 0 .25-1.25m23.25 1.5c-.83 0-3.26 0-3.25-1.25.8 0 3.29 0 3.25 1.25m-.75.5v.75a7.4 7.4 0 0 1-3-.5c.68-.92 2.07-.18 3-.25m-6.25.25a22.53 22.53 0 0 1-.5 3.75 2.07 2.07 0 0 1-.19-1.64c.09-.65.05-1.69.69-2.11m1.25 0c.6 1.09-.21 3.15-.5 4.25-.42-.51-.24-1.33-.19-2s0-1.8.69-2.3m35.5.5c0 .45-.19.75-.66.75-.23 0 0-.87.66-.75m-31.25 1c-.31.48-.88.44-1.38.37a7.64 7.64 0 0 0-.82-.1c-.47 0-.3-.35-.3-.77a4.65 4.65 0 0 1 2.5.5m25.75-.25a20.39 20.39 0 0 1-.88 3 7.11 7.11 0 0 0-.62 2.8 2.85 2.85 0 0 0 .75-1.75c.25.13.58.17.5.5.42-.52.16-1.64.22-2.31s.41-1.68 0-2.19m2.5 1a4.43 4.43 0 0 0 1.45 3c.59.35.94-.19 1.43-.56a3.81 3.81 0 0 1 1.62-.41c-.15 1-1.27 1.51-1.88 2.25-.37.45-.74.88-1.14 1.3a1.27 1.27 0 0 1-.58.36c-.44.1-.39.1-.57-.31a15.12 15.12 0 0 1-.63-2.87 7.78 7.78 0 0 1-.2-1.67c0-.59-.25-1.16.5-1.06m1.25 0c-.06.13-.35.91-.57.69-.39-.39.11-.79.57-.69m-30.5 1c-.66 0-2.12.17-2.25-.75.66 0 2.11-.16 2.25.75m32-.5c.17.71-.49.68-1 .75v-1a2.83 2.83 0 0 1 1 .25m1 0a.54.54 0 0 1-.25 1 1.37 1.37 0 0 1 .25-1M39.56 130a1.06 1.06 0 0 1-1.25.25 2.05 2.05 0 0 1 1.25-.25m32.75.25c.11.58-.16.75-.67.75-.26 0-.3-.81-.33-1a2.83 2.83 0 0 1 1 .25m-4.75 2a8.59 8.59 0 0 0 .25 1.75 1.7 1.7 0 0 0-.25-1.75m-1.75 1a4.67 4.67 0 0 0-.25 1.5 1.26 1.26 0 0 0 .25-1.5m6.5.5a2.25 2.25 0 0 1-1.5 1.75 4.45 4.45 0 0 1 1.5-1.75m-2 3c-.39 2.62-3.45 2.11-5.31 2.34-1 .13-2.06.48-3.09.69a24.43 24.43 0 0 0-3.13.82c-4.19 1.45-8.52 3.17-12 6a24.68 24.68 0 0 0-7.61 10.87 19.07 19.07 0 0 0-1.36 6.22 11.82 11.82 0 0 0 .3 3.41 27.55 27.55 0 0 0 1 3.06 15.29 15.29 0 0 0 4 5c.42.39.85.77 1.29 1.15.17.15.24.35.4.49.35.33.07.44-.1.69-.65.93-1.65.66-2.47.1a14.59 14.59 0 0 1-4.56-4.59 20.35 20.35 0 0 1-2.21-6.17c-.82-4.43.55-9.05 2.41-13a23.72 23.72 0 0 1 8.41-9.92c.91-.58 1.8-1.14 2.75-1.65A21.68 21.68 0 0 1 52 141a30.45 30.45 0 0 0 2.78-1.57 18.49 18.49 0 0 1 2.93-.93 47 47 0 0 1 6.39-1.5 25.16 25.16 0 0 1 3.09-.41 6.83 6.83 0 0 1 3.12.22m-27 3.5c0 1.34-.89 2.65-1.36 3.87s-1.1 2.54-1.62 3.82a36 36 0 0 1-1.95 3.81c-.62 1.17-1.12 2.38-1.82 3.5a4.14 4.14 0 0 1-1.21-2 25.07 25.07 0 0 1-.78-2.69 10.7 10.7 0 0 1-.27-2.65 8.8 8.8 0 0 1-.06-2.56c.19-.74 1.59-.82 2.22-1a8.47 8.47 0 0 0 2.6-1 41.77 41.77 0 0 0 4.25-3.12m16.75 13a5.73 5.73 0 0 1-2.75 1.5 3.07 3.07 0 0 1 2.75-1.5m-17.25 6a17.1 17.1 0 0 1-.64 3.23 16.28 16.28 0 0 0-.36 3c-1.31-.26-.77-2.27-.75-3.2 0-1.14.43-2.77 1.75-3m4 .5c-.17.91-1.09 1.5-1.74 2.07s-1.39 1.71-2.26 1.93c-.16-1 .94-1.92 1.59-2.51a5.12 5.12 0 0 1 2.41-1.49m3 9.5c-.22 1.44-1.61 3-2.36 4.19a13.09 13.09 0 0 1-1.15 1.77 1.47 1.47 0 0 1-2 .17 14.78 14.78 0 0 1-3.53-3.57 6.38 6.38 0 0 1-1.67-4.06c1.8.22 3.61 1.32 5.34 1.84a6.3 6.3 0 0 0 2.68.31c.92-.12 1.82-.61 2.73-.65"/>
</g>
<!-- fin du dessin de la partie haute -->
<use href="#PartieHaute" transform="rotate(180,84,121)"/>
<!-- coins -->
<g id="Pallas" style="font-family:serif;font-size:9.5px;fill:black;stroke:none">
<text id="PallasHaut" x="154" y="42" stroke="none" transform="rotate(-90,154,42)">PALLAS</text>
<use href="#PallasHaut" transform="rotate(180,84,121)"/>
</g>
<g id="GrandPiqueHaut" fill="black" stroke="none">
<path d="M44.00 51.09 c-4.36 0 -6.65 -4.64 -7.85 -9.28 -1.20 -4.65 -1.32 -9.29 -1.32 -9.29 l -2.22 -0.02 s -0.42 18.59 -9.13 18.60 z
 M51.37 32.51 c -0.04 -9.07 -13.61 -15.64 -17.60 -22.82 -3.98 7.18 -17.56 13.8 -17.60 22.82 -0.02 4.28 3.94 7.75 8.80 7.75 4.86 0 8.80 -3.47 8.80 -7.75 0 4.28 3.94 7.75 8.8 7.75 s 8.80 -3.47 8.80 -7.75 z"/>
</g>
<use href="#GrandPiqueHaut" transform="rotate(180,84,121)"/>
<rect id="CacheGPH" x="10" y="7" width="13" height="40" fill="white" stroke="none"/>
<use href="#CacheGPH" transform="rotate(180,84,121)"/>
<path id="PetitPiqueHaut" fill="black" stroke="none"
 d="M18.89 39.43 c -1.10 0 -1.671 -1.17 -1.97 -2.34 a 11.74 11.74 0 0 1 -0.33 -2.34 l -0.56 0 s -0.11 4.675 -2.30 4.68 z
  M20.743 34.76 c -0.01 -2.28 -3.42 -3.93 -4.43 -5.74 -1.00 1.81 -4.42 3.46 -4.43 5.74 0 1.08 0.99 1.95 2.21 1.95 s 2.21 -0.872 2.21 -1.95 c 0 1.08 0.99 1.95 2.21 1.95 s 2.21 -0.872 2.21 -1.95 z"/>
<use href="#PetitPiqueHaut" transform="rotate(180,84,121)"/>
<g id="D" style="font-family:serif;font-size:18px;fill:black;stroke:none">
<text id="DHaut" x="10" y="17" transform="scale(1,1.534)">D</text>
<use href="#DHaut" transform="rotate(180,84,121)"/>
</g>
<!-- diagonale -->
<g id="Separation">
<path id="BandeauHaut" fill="none" stroke="black" stroke-width="7.5" stroke-linecap="round" transform="rotate(-57.25,84,121)"
  d="M84,121 h77"/>
<use href="#BandeauHaut" transform="rotate(180,84,121)"/>
<g id="DisqueBandeau0">
<circle cx="84" cy="121" r="2" fill="white" stroke="none"/>
<circle cx="84" cy="121" r="0.65" fill="black" stroke="none"/>
</g>
<g id="DisquesHaut">
<!-- progression : 151,233 = 3.02,4.66 -->
  <use href="#DisqueBandeau0" transform="translate(3.02,-4.66)"/>
  <use href="#DisqueBandeau0" transform="translate(6.04,-9.32)"/>
  <use href="#DisqueBandeau0" transform="translate(9.06,-13.98)"/>
  <use href="#DisqueBandeau0" transform="translate(12.08,-18.64)"/>
  <use href="#DisqueBandeau0" transform="translate(15.10,-23.30)"/>
  <use href="#DisqueBandeau0" transform="translate(18.12,-27.96)"/>
  <use href="#DisqueBandeau0" transform="translate(21.14,-32.62)"/>
  <use href="#DisqueBandeau0" transform="translate(24.16,-37.28)"/>
  <use href="#DisqueBandeau0" transform="translate(27.18,-41.94)"/>
  <use href="#DisqueBandeau0" transform="translate(30.20,-46.60)"/>
  <use href="#DisqueBandeau0" transform="translate(33.22,-51.26)"/>
  <use href="#DisqueBandeau0" transform="translate(36.24,-55.92)"/>
  <use href="#DisqueBandeau0" transform="translate(39.26,-60.58)"/>
</g>
<use href="#DisquesHaut"  transform="rotate(180,84,121)"/>
</g>
</svg>
