<?xml version="1.0" standalone="no"?>
<!DOCTYPE svg PUBLIC "-//W3C//DTD SVG 20010904//EN"
 "http://www.w3.org/TR/2001/REC-SVG-20010904/DTD/svg10.dtd">
<svg version="1.0" xmlns="http://www.w3.org/2000/svg"
 width="167.000000pt" height="243.000000pt" viewBox="0 0 167.000000 243.000000"
 preserveAspectRatio="xMidYMid meet">
<metadata>
Created by potrace 1.16, written by Peter Selinger 2001-2019
</metadata>
<g transform="translate(0.000000,243.000000) scale(0.100000,-0.100000)"
fill="#000000" stroke="none">
<path d="M0 1215 l0 -1215 835 0 835 0 0 1215 0 1215 -835 0 -835 0 0 -1215z
m1626 1174 c18 -21 19 -52 16 -1173 -4 -1123 -4 -1151 -23 -1171 -19 -20 -34
-20 -786 -23 -678 -2 -769 -1 -790 13 l-23 16 2 1160 3 1161 24 19 c22 18 50
19 791 19 l767 0 19 -21z"/>
<path d="M894 2125 c-4 -8 -1 -22 5 -29 19 -23 9 -69 -19 -88 -37 -26 -50 -22
-67 21 -20 52 -59 70 -102 48 -28 -14 -32 -14 -41 1 -12 22 -13 1 -1 -31 6
-14 19 -28 31 -32 21 -7 50 -62 50 -99 1 -23 22 -56 37 -56 19 0 45 38 39 58
-4 11 0 24 9 32 8 7 15 8 15 2 0 -13 38 -23 46 -11 10 17 46 9 51 -11 3 -11 9
-18 13 -15 9 6 50 -41 50 -59 0 -7 9 -25 20 -39 25 -32 18 -53 -23 -62 -28 -6
-30 -8 -12 -15 57 -24 164 0 186 42 9 16 17 19 47 14 21 -4 48 -7 61 -7 13 -1
31 -9 40 -19 21 -25 51 -29 64 -8 16 24 0 36 -17 13 -16 -22 -51 -13 -42 10 4
11 -2 15 -20 15 -17 0 -30 9 -42 30 -21 37 -51 46 -102 31 -52 -15 -70 -14
-70 7 0 70 131 145 170 97 7 -8 21 -15 32 -15 19 0 19 1 -1 29 -26 36 -61 47
-170 55 -92 7 -139 26 -185 75 -33 35 -44 38 -52 16z"/>
<path d="M670 1682 c0 -7 -4 -21 -10 -31 -8 -16 -14 -17 -69 -6 -32 7 -64 16
-70 19 -6 4 -20 2 -32 -4 -14 -8 -29 -8 -50 -1 -24 8 -29 7 -29 -5 0 -9 9 -18
20 -21 24 -6 25 -21 5 -47 -15 -19 -15 -19 -40 4 -22 21 -28 22 -35 10 -5 -8
-10 -19 -10 -24 0 -5 -8 -2 -17 5 -10 8 -2 -6 18 -31 19 -25 45 -60 58 -78
l23 -32 -24 -20 c-57 -47 -65 -47 -105 -1 l-36 43 -13 -24 c-19 -33 -17 -38
11 -38 21 0 25 -5 25 -28 l0 -28 78 8 c42 5 97 15 121 23 64 21 68 20 76 -27
9 -53 26 -82 64 -104 17 -10 32 -25 34 -33 3 -9 5 -5 6 8 1 24 2 24 84 18 99
-7 187 -27 187 -41 0 -6 -4 -15 -8 -21 -9 -12 -272 -14 -272 -1 0 5 -9 -3 -21
-17 -11 -15 -35 -34 -53 -42 -26 -13 -36 -26 -46 -60 -14 -48 -37 -61 -69 -38
-25 17 -27 6 -5 -25 8 -12 24 -22 34 -22 31 0 13 -26 -32 -49 l-40 -20 36 -3
36 -3 -25 -37 c-29 -43 -30 -45 -10 -45 8 0 12 4 9 9 -3 4 0 8 5 8 6 0 11 7
11 16 0 13 5 11 21 -7 l21 -24 -16 25 c-21 32 -20 46 1 29 9 -8 14 -9 10 -3
-4 7 5 17 23 24 27 11 33 10 53 -6 19 -17 20 -17 8 -1 -12 15 -12 22 -1 42 12
23 30 25 30 4 0 -6 -4 -8 -9 -4 -5 3 -13 0 -17 -6 -3 -6 6 -23 22 -38 l28 -26
-22 26 c-25 29 -28 40 -9 37 12 -3 13 8 3 49 -2 12 1 24 8 26 12 5 16 -5 17
-45 0 -9 7 -22 15 -29 8 -7 14 -8 13 -3 -4 23 2 26 17 8 8 -10 12 -12 8 -4 -7
13 -5 13 8 2 9 -7 15 -23 13 -35 -3 -11 2 -29 11 -38 20 -22 0 -36 -24 -17
-16 12 -16 11 -2 -6 27 -35 20 -60 -10 -33 -11 9 -11 8 0 -7 8 -11 14 -22 13
-25 -1 -3 5 -5 13 -3 9 2 18 -6 21 -18 6 -23 28 -22 28 1 0 8 8 13 17 13 32
-3 12 31 -20 34 -20 2 -32 9 -32 18 0 17 31 18 50 2 12 -11 12 -10 1 5 -15 19
-2 24 16 6 7 -7 13 -7 17 -1 3 5 -4 18 -16 28 -12 11 -18 14 -15 8 4 -7 0 -14
-8 -17 -23 -10 -7 18 26 42 28 21 56 21 43 0 -3 -5 0 -8 8 -7 7 2 12 -3 10
-10 -1 -8 2 -11 9 -7 7 5 3 15 -12 31 -12 13 -19 24 -14 24 5 0 4 5 -3 12 -17
17 -15 47 3 44 17 -2 44 -26 30 -26 -5 0 2 -12 16 -27 18 -20 19 -24 4 -13
-19 14 -19 14 -3 -5 19 -22 19 -30 7 -62 -5 -14 -5 -23 1 -23 6 0 11 5 11 10
1 6 3 19 4 30 1 11 3 25 4 31 1 7 11 9 29 4 15 -4 41 -9 57 -12 17 -3 37 -11
46 -19 8 -8 29 -13 45 -13 16 1 22 3 13 6 -9 2 -22 18 -30 36 -11 25 -23 34
-58 42 -25 6 -46 16 -49 23 -5 16 3 15 40 -4 37 -19 182 -32 192 -16 4 6 -2 8
-13 5 -27 -7 -158 55 -182 85 -10 14 -19 35 -19 48 0 13 -16 41 -35 63 -37 41
-39 71 -4 71 10 0 33 13 51 29 28 25 35 41 48 112 l16 84 42 -3 c55 -5 64 2
46 36 -7 15 -14 31 -14 36 0 5 -7 18 -17 28 -15 17 -15 18 2 18 10 0 27 -8 37
-17 14 -13 21 -14 30 -5 7 7 8 12 2 12 -5 0 -33 15 -62 34 -28 19 -53 32 -56
28 -2 -4 -7 -22 -11 -40 -4 -21 -15 -37 -28 -42 -19 -7 -20 -9 -5 -15 36 -14
30 -38 -24 -92 -29 -29 -57 -53 -63 -53 -14 0 -75 62 -75 76 0 5 18 28 40 49
22 21 36 43 31 48 -4 4 0 38 10 74 10 37 17 68 15 71 -2 2 -16 -4 -30 -13 -14
-9 -44 -18 -66 -18 l-40 -2 0 -92 0 -93 -64 0 c-36 0 -68 5 -72 11 -3 6 -3 49
1 95 7 83 7 84 33 84 l27 0 -33 20 c-18 11 -31 24 -28 28 2 4 -7 7 -20 7 -13
0 -24 -6 -24 -13z m-79 -137 c15 -38 28 -75 28 -82 1 -10 -78 -43 -104 -43
-11 0 -81 158 -73 166 11 10 85 33 103 31 14 -1 26 -21 46 -72z"/>
<path d="M1278 1458 c-6 -13 -11 -33 -9 -46 4 -31 -23 -70 -51 -74 -16 -2 -24
-11 -26 -30 -3 -23 2 -28 45 -41 57 -18 133 -31 117 -20 -6 4 -21 28 -34 52
l-22 45 21 17 c26 21 26 22 -4 66 -13 20 -22 40 -19 45 3 4 3 8 0 8 -3 0 -11
-10 -18 -22z"/>
</g>
</svg>
