<?xml version="1.0" encoding="UTF-8" standalone="yes"?>
<svg xmlns="http://www.w3.org/2000/svg"  width="168" height="243">
<!-- validated for SVG version="2.0" -->
<defs>
<!-- ///// reperes ///// -->
<g id="reperes">
<path fill="none" stroke="red" stroke-width="0.5" stroke-dasharray="2,2" d="M168,0 L0,243"/>
<path fill="none" stroke="red" stroke-width="0.5" d="M159.5,4.5 L8.5,237.5"/>
<path fill="none" stroke="red" stroke-width="0.5" d="M8.5,4.5 L159.5,237.5"/>
</g>
<!-- \\\\\ reperes \\\\\ -->
</defs>
<rect id="BordDeCarte" fill="white" stroke="black" stroke-width="0.5"
 x="0.5" y="0.5" rx="6" ry="6" width="167" height="242"/>
<rect id="CadreDHonneur" fill="white" stroke="black" stroke-width="1.5"
 x="8.5" y="3" width="151" height="236"/>
<!-- dessin de la partie haute -->
<g id="PartieHaute">
<!-- rouge fill:#E61408 -->
<path fill="#e61408" stroke="none"
 d="M42.88 68.58 l 28.01 67.60 1.35 -1.44 5.45 -8.62 -3.65 -37.06 -14.97 -34.07 -14.30 9.55"/>
<path fill="#e61408" stroke="none"
 d="M42.35 68.79 l -0.106 4.627 2.03 0.08 0.65 -5.71 m 14.13 14.23 l 1.4 0.13 3.41 12.26 -6.4 18.25 -10.16 11.90 -4.33 -12.16"/>
<path fill="#e61408" stroke="none"
 d="M68.79 117.7 l -3.11 -14.62 -4.65 1.13 -3.63 6.28 -4.72 7.43 -3.64 4.8 5.51 -1.32 4.29 0.28 8.86 2.59 m 40.70 -46.12 l 16.05 -25.20 -1.38 -1.50 -5.59 -1.71 -3.06 2.13 -6.46 13.85 -0.49 12.20"/>
<path fill="#e61408" stroke="none"
 d="M68.86 118.79 l 2.59 16.60 -0.25 0.88 -9.83 15.38 3.96 -26.78 1.81 -3.12 0.40 -1.58"/>
<path fill="#e61408" stroke="none"
 d="M55.52 160.55 l 5.60 -8.61 1.83 -12.37 1.69 -7.69 -2.42 0.39 -6.40 14.81"/>
<!-- jaune #f8c20f -->
<path fill="#f8c20f" stroke="none"
 d="M83.06 117.59 l 2.00 -3.03 2.98 -4.25 3.86 -6.00 -1.09 -0.63 -8.18 0.50"/>
<path fill="#f8c20f" stroke="none"
 d="M20.81 143.73 l 16.20 45.77 -0.04 0.95 -4.26 5.13 -15.82 -51.94 m 37.75 -0.24 l 3.00 0.63 -1.42 8.11 -1.83 10.18 -.57 0.99 -2.47 3.73"/>
<path fill="#f8c20f" stroke="none"
 d="M49.18 123.64 l 0.39 6.81 -3.66 1.64 -7.36 3.84 -6.55 3.51 -10.05 3.65 -8.15 1.98 -0.85 -1.86 0.84 -1.64 5.67 -1.00 6.27 -1.88 4.15 -1.71 3.76 -2.58 8.76 -5.50"/>
<path fill="#f8c20f"
 d="M61.94 133.05 l 0.21 -0.9 2.93 -0.76 1.38 -3.27 -0.07 -4.64 -1.95 -0.64 -5.09 -0.84 -4.50 -0.92 -6.05 2.71 0.43 6.93 2.73 -0.69 0.36 1.34 1.74 0.77"/>
<path fill="#f8c20f" stroke="none"
 d="M54.24 131.89 l 5.71 0.39 2.21 1.06 -0.02 1.11 -0.96 1.14 -0.09 0.234 -0.53 0.43 -1.07 2.71 -1.52 4.80 -1.61 0.17 -2.00 -0.51 -0.69 -4.22 0.33 -4.71 -0.90 -1.21
  M24.84,120.64 l -4.77 0.154 -3.5 1.03 -0.25 0.87 -0.21 3.68 1.01 2.78 2.12 1.93 -0.02 2.28 1.31 1.21 1.93 -0.86 0.69 -3.41 2.04 -1.19 m -7.00 -21.84 l -2.15 1.78 0.11 2.08 4.61 -0.73 3.48 0.60 -0.21 -4.53 -0.61 0.22 -0.72 1.51 m 32.46 -18.02 l 1.54 1.67 1.37 4.40 -0.29 6.57 -1.44 3.75 -2.77 3.42 -4.36 2.24 -5.12 0.24 -3.05 -3.18
  M16.18,66.19 l 5.93 -0.43 0.47 7.61 0.45 9.67 0.54 8.58 0.43 6.57 0.01 3.85 -3.38 0.54 0.39 1.52 0.96 1.53 -3.25 -0.86 -2.50 -0.01 m 1.23 -55.61 l 1.42 -0.03 -0.13 2.28 1.58 1.16 1.17 1.95 1.09 3.26 1.80 1.29 0.51 1.07 -1.45 0.72 -1.32 3.53 -0.22 1.4 -3.96 0.10 -1.75 0.13 -0.84 -1.91 -1.39 -2.87 -1.74 -0.83 0.18 -0.91 1.86 -0.95 0.28 -2.38 0.92 -2.77 1.89 -1.97 m 60.83 8.94 l 4.95 1.77 6.58 1.36 3.47 -0.41 L 99.30 61 l 4.18 -2.48 1.30 0.18 -1.24 10.95 -0.75 16.51 0.02 0.96 -3.60 5.74 -4.00 -0.09 -6.1 0.54 -4.44 0.02 -2.63 -0.05 -4.97 -32.02
  M63.39,10.35 l 4.07 3.72 4.7 2.14 0.83 3.55 1.69 1.54 9.69 -2.20 10.38 -0.79 7.52 2.44 6.39 3.28 1.26 -3.08 0.18 -1.36 -0.03 -1.63 1.45 -1.51 1.60 -1.17 1.01 -0.10 0.47 -0.98 3.57 -2.61 -0.10 -0.39 -2.66 -0.13 -4.7 0.73 0.08 0.85 -0.60 1.77 0.51 1.20 -1.38 0.69 -3.27 -1.50 -1.02 -2.64 1.94 0.38 2.05 -0.25 0.49 -2.49 -1.17 -3.78 -0.84 -1.25 -1.94 -0.02 -3.77 2.04 -1.02 1.87 0.30 1.44 2.89 2.54 -4.55 0.85 -2.35 -2.7 1.24 -3.02 -0.49 -1.71 -1.66 0.25 -0.72 1.62 0.22 1.54 -1.08 2.08 -3.89 0.41 -2.21 -1.31 2.45 -2.68 -0.58 -1.65 -2.84 -2.933 -3.41 0.40 -2.63 3.05 -0.16 1.06 3.76 2.13 -0.46 1.01 -2.54 1.56 -2.70 -0.61 -0.85 -1.55 0.07 -2.27 -0.72 -0.98 -1.31 -0.40 -0.65 1.95 1.69 2.567 -1.96 2.88 -3.83 0.62 0.42 -1.46 -0.24 -2.96 -1.84 -1.14 -1.99 0.22 -3.51 -0.08"/>
<!-- bleu marine (navy) #1c1585 -->
<path fill="navy" stroke="none"
 d="M37.54 136.77 l 5.19 -3.19 4.76 -2.00 0.22 8.34 -2.32 12.51 -3.03 9.04 -3.07 4.78 -3.08 4.37 -3.64 3.93 -5.42 -12.26 3.48 -2.88 3.71 -6.60 1.99 -6.93
  M25.36 101.73 l 3.55 -0.36 5.78 2.03 4.76 3.43 3.83 6.59 2.93 7.96 0.53 3.71 -3.97 3.42 -4.64 3.4 -1.52 -20.03 -1.09 -1.96 -2.11 -2.32 -2.27 -1.04 -3.49 -2.53"/>
<path fill="navy" stroke="none"
 d="M58.72 77.87 l 0.92 3.59 -10.78 18.13 -6.89 8.45 -2.26 -0.64 0.71 -2.42"/>
<path fill="navy" stroke="none"
 d="M47.90 66.46 l 4.00 1.83 4.66 4.47 1.43 5.79 -4.27 7.17 -3.82 6.79 -10.24 13.86 -1.65 -0.76 -3.45 -2.44 -6.00 -1.74 4.18 -7.31 4.51 -5.03 4.57 -4.06 0.41 -7.00 0.611 -4.16 2.04 -4.79 0.70 -2.06"/>
<!-- drawing form Wikipedia : King_of_spades_fr.svg = all rights reserved -->
<path id="MainDrawing" fill="black" stroke="none"
 d="M84.75 10.19 c -0.54 0.99 -1.43 1.27 -2.41 1.76 -0.93 0.46 -2.00 -0.08 -2.81 -0.55 -1.09 -0.63 -0.58 -1.5 -0.7 -2.5 -0.12 -0.96 -0.44 -2.37 -1.66 -2.47 -1.29 -0.10 -1.22 1.55 -1.37 2.41 -0.15 0.86 1.32 1.82 1.06 2.54 -0.31 0.89 -0.67 1.99 -1.65 2.39 -1.13 0.47 -1.90 0.60 -3.12 0.68 0.07 -0.44 0.36 -0.85 0.36 -1.3 0.01 -0.55 0.01 -1.10 0.01 -1.65 0 -1.26 -0.71 -1.8 -1.8 -2.30 -0.57 -0.26 -0.86 -0.38 -1.48 -0.17 -0.76 0.25 -0.96 0.34 -1.71 0.04 -0.69 -0.28 -0.83 -0.33 -1.56 -0.19 a7.50,7.50  0,0,0 -1.45,0.44 c -0.47 0.19 -1.16 0.28 -1.28 0.84 -0.15 0.67 0.37 0.87 0.85 1.10 0.99 0.50 1.74 1.24 2.32 2.17 0.25 0.40 0.38 0.91 .80 1.16 0.44 0.27 1.10 0.30 1.58 0.48 0.82 0.31 2.41 0.71 2.96 1.42 0.45 0.58 0.62 0.96 0.83 1.66 0.15 0.50 -0.13 1.17 0.12 1.64 0.23 0.44 0.81 0.78 1.14 1.18 0.56 0.69 0.57 0.88 0.59 1.78 0.02 0.49 -0.14 1.01 -0.23 1.49 -0.12 0.63 -0.06 1.25 -0.05 1.89 0.02 1.15 -0.26 2.16 -1.45 2.57 0.83 0.51 2.30 -0.88 2.97 -1.31 -0.01 1.06 -1.31 1.78 -2.21 2.05 0.42 0.33 1.00 0.23 1.51 0.22 -0.2 0.65 -0.67 1.17 -0.96 1.77 0.72 -0.13 1.33 -0.72 1.98 -1.04 0 0.9 -0.02 1.74 -0.15 2.64 -0.18 1.25 -0.52 1.99 -1.11 3.11 -0.57 1.09 -3.48 2.57 -4.34 1.12 0.59 0.02 1.14 -0.14 1.68 -0.37 0.88 -0.37 1.08 -0.73 1.65 -1.52 0.73 -1.01 1.05 -2.31 1.56 -3.46 -1.54 0.33 -2.87 1.78 -3.94 2.83 -0.57 -1.87 1.30 -2.94 2.16 -4.30 -0.97 0.17 -1.78 0.90 -2.47 1.55 -0.15 -0.89 0.19 -1.67 0.45 -2.50 -2.36 0.41 -0.67 5.56 -0.60 7.02 -0.75 0.07 -1.50 -0.22 -2.25 -0.20 0.04 0.55 0.36 1.04 0.58 1.55 0.22 0.52 -0.14 1.07 -0.41 1.53 -0.27 0.47 -0.5 0.95 -0.78 1.42 -0.42 0.70 -0.7 0.63 -1.51 0.80 -1.31 0.26 -1.60 0.99 -2.22 2.06 -0.56 0.96 -1.27 1.70 -1.42 2.85 -0.14 1.07 -0.48 2.02 -0.46 3.1 0.02 0.76 0.145 0.77 -0.55 0.90 -0.60 0.11 -1.18 0.23 -1.77 0.37 -1.06 0.25 -1.58 1.46 -2.11 2.30 -0.19 0.30 -0.79 0.75 -1.16 0.74 -0.50 -0.01 -1.44 -0.28 -1.26 0.48 0.13 0.53 0.47 1.16 0.96 1.43 -1.61 1.60 -3.74 2.7 -5.58 4.01 -1.78 1.27 -3.70 2.33 -5.43 3.69 -0.96 0.75 -1.76 1.51 -2.45 2.51 -0.54 0.78 -0.78 1.95 -0.92 2.89 -0.31 2.14 -0.71 4.09 -0.31 6.26 0.21 1.15 0.26 2.04 0.16 3.20 a55.48,55.48 0,0,0 -0.19,3.09 c -0.02 1.01 -0.07 2.21 -0.60 3.09 -0.56 0.93 -1.48 1.59 -2.28 2.32 -1.70 1.53 -3.19 3.16 -4.61 4.94 -1.38 1.73 -2.78 3.50 -3.93 5.40 -1.04 1.72 -2.05 4.30 -4.46 4.11 -0.74 -0.06 -0.94 -0.02 -1.29 -0.67 -0.22 -0.42 -0.18 -1 -0.26 -1.48 a22.33,22.33 0,0,1 -0.26,-3.01 c -0.05 -2.24 -0.34 -4.41 -0.39 -6.64 -0.048 -2.34 -0.35 -4.65 -0.40 -6.99 -0.02 -1.15 -0.05 -2.31 -0.08 -3.46 -0.03 -1.09 -0.29 -2.15 -0.31 -3.24 a885.18,88.18 0,0,0 -0.08,-3.42 c -0.03 -1.06 -0.29 -2.08 -0.31 -3.15 -0.02 -1.10 -0.17 -2.22 -0.14 -3.31 0.04 -1.27 0.26 -2.16 0.71 -3.35 0.14 -0.38 0.36 -0.94 0.63 -1.24 0.34 -0.38 1.05 -0.44 1.31 -0.86 0.73 -1.198 -0.38 -1.84 -1.24 -2.38 -1.84 -1.15 -1.4 -3.97 -2.83 -5.55 -0.34 -0.37 -0.62 -0.71 -1.06 -0.95 -0.10 -0.06 -0.72 -0.23 -0.76 -0.29 -0.04 -0.06 0.08 -0.71 0.08 -0.81 0.02 -0.51 0.18 -1.15 -0.15 -1.6 -0.43 -0.60 -0.94 -0.23 -1.51 -0.02 -0.38 0.14 -0.55 .76 -0.55 1.13 0.00 0.82 -0.04 1.04 -0.58 1.66 -0.69 0.78 -1.38 1.54 -1.73 2.545 -0.365 1.045 -0.36 2.15 -0.69 3.199 -0.315 1.01 -1.96 1.355 -2.07 2.42 -0.07 0.65 0.49 0.94 0.92 1.32 a7.48,7.48 0,0,1 1.03,1.10 c .73 0.93 1.28 1.83 1.63 2.97 0.60 2.00 0.50 4.06 0.54 6.14 0.10 4.66 -0.06 9.26 0.04 13.92 0.04 2.07 -0.16 4.12 -0.12 6.18 0.02 1.22 0.05 2.43 0.08 3.65 0.01 0.57 0.05 1.14 0.02 1.71 -0.03 0.53 -0.21 1.09 -0.20 1.62 l 0.08 3.62 c 0.02 1.09 0.18 1.99 -0.69 2.75 -0.67 0.58 -2.36 1.01 -2.56 1.98 -0.26 1.21 0.02 2.18 0.26 3.38 0.08 0.40 0.50 0.93 0.67 1.31 0.24 0.54 0.05 1.12 -0.04 1.68 -0.18 1.05 0.59 2.08 0.26 3.14 -0.41 1.31 -0.01 1.88 0.32 3.12 0.13 0.48 0.04 0.95 0.02 1.44 -0.03 0.59 0.06 1.11 0.22 1.68 0.28 1.05 0.02 2.30 0.02 3.39 0.00 1.00 -0.18 1.98 -0.16 2.99 0.02 1.08 -0.20 2.14 -0.18 3.2 0.02 1.05 0.09 2.10 -0.03 3.14 -0.16 1.40 -0.05 2.79 -0.26 4.18 -0.19 1.30 -1.19 2.45 -0.94 3.80 0.17 0.89 0.29 1.32 0.81 2.05 0.20 0.30 1.57 0.30 1.95 0.25 1.34 -0.18 2.60 -0.94 3.98 -0.96 -0.00 0.901 0.04 1.79 -0.25 2.66 -0.09 0.28 -1.02 2.62 -0.31 2.6 0.88 -0.02 0.62 -1.33 0.69 -2.01 0.10 -0.94 0.36 -1.86 0.63 -2.76 1.45 2.17 0.12 5.05 -0.38 7.34 -0.05 0.22 -0.16 0.54 -0.09 0.78 0.07 0.23 0.31 0.68 0.65 0.39 0.30 -0.255 0.18 -1.45 0.22 -1.81 0.15 -1.34 0.47 -2.63 0.66 -3.96 0.84 1.48 0.41 3.35 0.17 4.94 -0.13 0.90 -0.27 1.79 -0.41 2.68 -0.12 0.79 -0.66 1.59 -0.56 2.39 1.22 -0.02 0.96 -2.02 1.12 -2.87 0.24 -1.23 0.45 -2.45 0.74 -3.67 1.02 1.46 0.39 3.44 0.16 5.06 -0.12 0.85 -0.19 1.76 -0.40 2.60 -0.19 0.77 -0.72 1.84 -0.30 2.60 1.08 -0.90 0.97 -3.22 1.24 -4.51 0.09 -0.42 0.07 -2.01 0.37 -2.28 0.70 -0.61 0.76 1.65 0.78 1.94 0.12 1.50 -0.37 3.28 -0.6 4.75 -0.15 0.85 -0.26 1.68 -0.46 2.52 -0.14 0.58 -0.58 1.59 0.29 1.79 0.22 -1.31 0.40 -2.63 0.60 -3.95 0.19 -1.26 0.26 -2.75 0.99 -3.84 0.36 1.09 0.58 1.96 0.29 3.09 -0.11 0.44 -0.33 0.86 -0.29 1.32 0.04 0.49 0.13 1.01 0.06 1.50 -0.14 1.04 -0.26 2.08 -0.50 3.10 -0.16 0.68 -0.82 2.28 0.43 2.24 -0.05 -2.56 0.40 -5.06 1.09 -7.52 1.22 1.78 0.60 4.15 0.26 6.12 -0.17 0.98 -0.26 1.98 -0.47 2.96 -0.19 0.90 -0.85 2.40 0.21 2.93 0.29 -0.60 0.22 -1.3 0.21 -1.95 -0.01 -0.73 0.24 -1.56 0.34 -2.28 0.21 -1.45 0.42 -2.87 0.77 -4.30 1.24 1.66 0.68 3.92 0.47 5.78 -0.23 2.05 -0.32 4.27 -0.86 6.26 -0.14 0.54 -0.33 1.04 -0.32 1.60 0.01 0.41 -0.03 0.38 0.38 0.37 0.35 -0.01 0.38 0.06 0.37 -0.28 -0.02 -1.13 0.12 -2.17 0.29 -3.29 0.32 -2.14 0.38 -4.40 1.00 -6.47 0.64 1.02 1.54 2.63 1.46 3.88 -0.09 1.44 -0.22 2.93 -0.45 4.35 -0.23 1.42 -0.42 2.84 -0.61 4.26 -0.09 0.69 -0.14 1.42 -0.36 2.07 -0.22 0.66 -0.54 1.56 0.30 1.93 0.35 -0.72 0.23 -1.67 0.33 -2.45 0.14 -1 0.26 -2.00 0.36 -3.01 0.09 -0.92 0.23 -1.94 0.39 -2.85 0.16 -0.93 0.27 -1.88 0.68 -2.73 0.72 2.04 1.62 3.92 1.92 6.08 0.14 1.06 -0.23 2.33 -0.4 3.36 -0.17 1.01 -0.21 2.02 -0.32 3.04 -0.12 1.08 -0.41 2.15 -0.70 3.20 -0.06 0.21 -0.34 1.14 -0.15 1.32 0.04 0.04 0.71 0.02 0.75 -0.02 0.10 -0.09 -0.02 -0.81 -0.02 -0.96 -0.02 -0.99 0.33 -2.06 0.44 -3.05 0.11 -1.07 0.24 -2.14 0.42 -3.20 0.15 -0.86 0.30 -1.71 0.46 -2.57 1.01 1.44 1.72 3.55 1.99 5.28 0.15 0.97 0.00 2.02 -0.14 2.99 a45.88,45.88 0,0,0 -0.2,1.66 c -0.043 0.40 -0.25 0.90 -0.16 1.230 0.66 -0.58 0.83 -2.11 1.078 -2.93 0.09 -0.30 0.04 -0.35 0.36 -0.35 0.51 -0.01 0.04 0.21 0.26 0.494 0.52 0.67 0.801 0.02 1.02 -0.43 0.06 -0.14 0.51 -1.06 0.39 -1.14 -0.48 -0.31 -0.70 -0.68 -0.93 -1.19 -0.41 -0.94 -0.76 -2.12 -0.58 -3.15 0.40 -2.24 0.62 -4.51 0.99 -6.75 0.17 -1.00 0.22 -2.06 0.33 -3.08 0.12 -1.08 0.40 -2.16 0.54 -3.24 0.11 -0.84 0.12 -1.61 0.30 -2.44 0.17 -0.77 0.70 -1.44 1.10 -2.11 0.74 -1.23 1.5 -3.07 2.76 -3.85 -0.05 2.11 -0.58 4.15 -0.62 6.26 0.52 -0.55 0.60 -2.00 0.65 -2.71 0.07 -1.06 0.26 -2.15 0.48 -3.19 0.21 -1.02 0.19 -2.04 0.45 -3.04 0.28 -1.10 0.78 -2.12 1.15 -3.20 0.71 -2.11 1.31 -4.28 1.74 -6.46 0.41 -2.06 0.98 -4.12 1.22 -6.22 0.25 -2.12 0.51 -4.24 0.60 -6.37 0.05 -1.04 0.02 -2.09 0.07 -3.12 0.05 -0.99 -0.26 -2.43 0.46 -3.26 0.29 -0.34 0.99 -0.46 1.18 0.06 0.18 0.47 -0.01 1.09 -0.01 1.58 -0.01 1.10 -0.31 2.18 -0.40 3.28 -0.18 2.14 -0.49 4.32 -0.87 6.44 -0.18 1.02 -0.20 2.09 -0.35 3.12 -0.14 1.02 -0.42 2.09 -0.48 3.11 -0.13 2.21 -0.46 4.43 -0.82 6.61 -0.72 4.38 -1.00 8.84 -1.80 13.21 -0.230 1.61 -0.30 3.33 -0.54 4.96 -0.23 1.58 -0.56 3.30 -0.52 4.89 0.85 -0.76 0.71 -1.73 0.69 -2.77 -0.02 -1.06 0.25 -2.16 0.40 -3.22 0.29 -2.06 0.35 -4.16 0.68 -6.22 0.71 -4.29 1.00 -8.65 1.71 -12.93 0.32 -1.95 0.62 -3.92 0.82 -5.88 0.22 -2.02 0.62 -4.01 0.71 -6.04 0.04 -1.02 0.32 -2.01 0.39 -3.03 0.06 -0.94 0.25 -1.91 0.41 -2.84 0.17 -0.99 0.29 -1.99 0.44 -2.99 0.08 -0.53 0.19 -1.06 0.28 -1.60 0.07 -0.42 0.64 -0.69 0.95 -0.93 0.34 0.97 1.09 1.71 1.31 2.72 0.22 1.02 1.12 1.80 1.03 2.88 -0.09 1.17 -0.33 2.29 -0.39 3.47 -0.02 0.44 0.09 0.92 0.19 1.36 0.12 0.52 0.02 1.06 0.12 1.57 0.22 1.06 0.36 2.11 0.15 3.19 -0.24 1.17 -0.29 2.3 -0.45 3.48 -0.28 2.11 -0.55 4.24 -0.90 6.34 -0.35 2.09 -0.52 4.23 -0.95 6.31 -0.22 1.05 -0.30 2.12 -0.48 3.18 -0.13 0.76 -0.51 2.05 -0.35 2.78 1.03 -0.66 0.82 -1.78 1.02 -2.80 0.22 -1.14 0.34 -2.29 0.53 -3.44 0.33 -2.03 0.46 -4.10 0.81 -6.13 0.40 -2.30 0.75 -4.61 1.08 -6.92 0.14 -0.98 0.20 -2.01 0.38 -2.98 0.04 -0.21 0.14 -1.32 0.29 -1.32 a4.83,4.83 0,0,1 1.55,0.24 c 0.20 0.06 0.40 0.15 0.61 0.21 -0.30 0.59 -0.25 1.35 -0.36 2.00 -0.14 0.86 -0.22 1.71 -0.34 2.58 a141.60,141.60 0,0,1 -0.73,4.82 c -0.28 1.67 -0.43 3.37 -0.77 5.03 -0.16 0.75 -0.11 1.73 -0.40 2.42 -0.31 0.72 -0.8 1.49 -1.00 2.24 0.80 -0.49 1.43 -1.73 1.85 -2.54 0.48 -0.91 0.49 -2.11 0.51 -3.14 0.05 -2.20 0.69 -4.43 0.94 -6.62 0.25 -2.09 0.44 -4.38 1.05 -6.39 0.28 -0.93 0.81 -1.93 1.18 -2.84 0.47 -1.14 0.66 -2.30 0.89 -3.5 0.16 -0.83 0.51 -1.58 0.75 -2.38 -0.32 -0.16 -0.76 -0.19 -1.07 -0.02 -0.24 0.13 -0.46 0.23 -0.63 0.46 -0.08 0.12 -0.21 0.55 -0.28 0.60 -0.06 0.04 -0.69 0.06 -0.75 0.02 -0.11 -0.08 -0.15 -0.67 -0.18 -0.81 -0.11 -0.48 -0.11 -0.94 -0.12 -1.44 -0.98 0.05 -1.61 1.40 -2.21 2.05 -0.04 -0.88 -0.64 -1.72 -1.05 -2.48 1.90 -0.02 3.61 0.17 5.39 0.84 0.41 0.15 0.84 0.27 1.26 0.39 0.34 0.10 0.97 -0.60 1.23 -0.81 0.82 -0.63 0.38 -1.46 0.08 -2.34 0.58 -0.13 1.15 -0.27 1.74 -0.29 -0.03 1.62 -0.58 3.43 -0.96 5.00 -0.39 1.64 -0.69 3.34 -0.93 5.01 a166.87,166.87 0,0,1 -0.74 4.69 c -0.31 1.75 -0.74 3.59 -0.71 5.37 1.57 -1.43 1.09 -3.99 1.46 -5.901 0.40 -2.04 0.46 -4.17 0.91 -6.19 0.48 -2.14 0.94 -4.29 1.34 -6.44 0.20 -1.08 0.58 -2.05 1.22 -2.94 0.58 -0.80 1.22 -1.91 1.25 -2.94 0.02 -0.78 0.03 -1.54 0 -2.32 -0.03 -0.70 -0.30 -1.50 -0.13 -2.17 0.29 -1.20 0.68 -3.28 1.77 -4.02 0.03 1.31 0.40 2.69 0.64 3.99 0.27 1.42 0.46 2.87 0.68 4.29 0.46 2.90 0.97 5.73 1.03 8.67 0.40 -0.24 0.68 -0.69 0.93 -1.08 0.24 -0.38 0.69 -0.84 0.27 -1.13 -0.70 -0.47 -0.65 -2.24 -0.80 -3.02 -0.39 -1.98 -0.56 -4.06 -0.92 -6.06 -0.76 -4.25 -1.31 -8.54 -2.11 -12.79 -0.80 -4.30 -1.32 -8.72 -2.40 -12.96 -0.54 -2.11 -0.94 -4.24 -1.52 -6.34 -0.57 -2.09 -1.25 -4.16 -1.77 -6.27 -0.34 -1.389 -0.90 -2.76 -1.38 -4.10 -0.52 -1.46 -1.27 -3.00 -1.53 -4.53 1.30 1.61 2.32 3.87 3.03 5.81 0.76 2.09 1.63 4.14 2.31 6.26 0.66 2.04 1.49 4.02 2.02 6.10 0.54 2.11 1.08 4.23 1.67 6.30 1.17 4.20 1.87 8.52 2.91 12.75 0.51 2.08 0.91 4.17 1.30 6.27 0.40 2.13 0.61 4.28 1.02 6.40 0.19 1.00 0.30 2.02 0.35 3.03 1.07 -0.65 0.96 -1.73 0.69 -2.76 -0.27 -1.04 -0.52 -2.19 -0.60 -3.26 -0.08 -1.11 -0.29 -2.22 -0.51 -3.31 -0.22 -1.04 -0.25 -2.10 -0.50 -3.15 -0.49 -2.07 -0.87 -4.18 -1.40 -6.24 -0.53 -2.07 -0.74 -4.18 -1.33 -6.23 -1.24 -4.3 -2.09 -8.72 -3.52 -12.96 -1.43 -4.26 -3.11 -8.38 -4.82 -12.53 -1.64 -3.98 -4.36 -7.94 -7.68 -10.72 -1.68 -1.41 -3.36 -2.73 -5.40 -3.58 -1.00 -0.42 -2.15 -0.64 -3.20 -0.26 -1.05 0.38 -1.71 0.96 -2.63 1.52 -0.067 0.04 -0.13 0.08 -0.20 0.12 0.50 -0.87 1.00 -1.79 1.70 -2.52 0.78 -0.81 1.78 -1.37 2.71 -1.99 1.88 -1.27 3.78 -2.52 5.67 -3.78 0.77 -0.51 1.73 -1.28 2.60 -1.60 0.57 -0.21 1.04 -0.54 1.60 -0.21 0.42 0.24 0.756 0.63 1.03 1.02 1.35 1.91 2.58 3.84 3.80 5.84 2.34 3.83 3.68 8.14 5.34 12.28 1.60 4.00 2.42 8.21 3.67 12.32 1.26 4.15 2.34 8.29 3.13 12.56 0.38 2.06 0.88 4.14 1.06 6.24 0.18 2.14 0.81 4.24 0.92 6.40 0.19 4.02 0.93 7.97 1.02 12.00 0.69 -0.61 1.13 -1.52 1.62 -2.28 0.63 -0.99 1.25 -1.97 1.88 -2.95 1.02 -1.60 2.42 -3.20 2.48 -5.14 0.07 -1.93 -0.03 -3.88 -0.07 -5.81 l  -0.08 -3.67 c -0.02 -0.87 0.08 -2.00 1.21 -2.04 0.07 3.60 -0.10 7.16 -0.025 10.75 0.88 -0.53 0.97 -1.63 0.85 -2.54 -0.13 -0.93 0.01 -1.82 0.01 -2.75 -0.00 -1.15 -0.01 -2.29 -0.04 -3.44 -0.02 -0.82 0.14 -2.05 1.21 -2.07 0.05 2.45 0.38 5.07 0.16 7.50 0.69 -0.64 1.79 -1.58 1.64 -2.61 -0.15 -1.04 -0.51 -2.51 -0.23 -3.54 0.14 -0.52 0.16 -1.24 0.68 -1.52 0.43 -0.23 1.28 -0.18 1.74 -0.14 0.51 0.05 1.16 0.62 1.42 0.20 0.30 -0.48 0.64 -0.97 0.81 -1.51 -1.97 0.06 -3.94 0.01 -5.90 0.16 -0.95 0.07 -1.90 0.05 -2.85 0.04 -0.74 -0.01 -0.74 0.10 -0.76 -0.65 -0.01 -0.62 -0.22 -0.85 0.40 -0.86 l 3.72 -0.08 c 0.85 -0.02 1.81 0.08 2.65 -0.06 0.97 -0.17 1.88 -0.32 2.87 -0.21 0.57 0.06 0.68 0.65 1.06 0.06 0.23 -0.36 0.44 -0.77 0.51 -1.19 -2.15 0.09 -4.26 0.34 -6.4 0.38 -1.47 0.03 -5.76 0.73 -5.09 -2.014 0.09 -0.37 0.11 -1.28 0.54 -1.41 0.54 -0.15 1.13 -0.38 1.69 -0.42 1.16 -0.07 2.23 0.01 3.39 -0.16 2.20 -0.31 4.47 -0.08 6.68 -0.38 0.52 -0.07 1.43 0.40 1.87 0.18 0.34 -0.17 0.66 -1.17 0.72 -1.52 -1.03 0.06 -2.03 0.29 -3.06 0.32 -1.10 0.02 -2.21 0.01 -3.31 0.08 -2.28 0.15 -4.53 0.10 -6.81 0.13 -0.97 0.01 -2.44 -0.82 -0.84 -1.43 0.86 -0.32 2.19 -0.10 3.10 -0.12 1.17 -0.02 2.36 -0.16 3.53 -0.10 1.06 0.06 2.26 0.08 3.31 -0.12 1.45 -0.28 3.81 -0.68 5.06 0.22 0.32 -0.65 0.84 -1.30 0.96 -2.02 -1.02 0.36 -1.89 0.54 -2.99 0.56 2.86 -3.16 3.36 -7.23 3.26 -11.32 -0.04 -2.02 -0.46 -4.01 -1.05 -5.94 -0.63 -2.05 -2.18 -3.53 -3.68 -4.97 1.13 -0.02 2.27 -0.29 3.37 -0.57 1.08 -0.27 2.25 -0.76 3.36 -0.82 0.03 1.51 -0.44 3.02 -0.40 4.53 l 0.11 5.26 c .03 1.53 0.10 3.00 0.28 4.51 0.22 1.72 0.43 3.23 0.16 4.96 0.76 -0.46 1.21 -1.512 1.68 -2.25 l 1.86 -2.93 c 1.02 -1.60 2.23 -3.23 3.00 -4.96 -0.89 0.38 -0.49 -2.23 -0.39 -2.74 0.19 -1.04 0.18 -2.13 0.34 -3.18 0.30 -2.08 0.81 -4.14 1.28 -6.18 0.95 -4.15 1.97 -8.29 4.02 -12.01 0.57 -1.03 1.44 -1.42 2.28 -2.15 0.33 -0.29 0.62 -0.98 1.03 -1.13 0.58 -0.21 1.06 0.08 1.63 0.26 1.03 0.32 2.042 0.64 3.02 1.06 0.49 0.21 1.06 0.30 1.51 0.59 0.11 0.08 0.98 0.96 1.04 0.87 0.29 -0.46 0.63 -0.90 0.86 -1.40 0.36 -0.80 0.36 -1.03 0.23 -1.90 -0.16 -1.06 -0.24 -2.06 -0.12 -3.14 0.27 -2.38 -0.63 -4.39 -3.22 -4.64 -1.10 -0.10 -2.14 0.34 -3.25 0.15 -0.93 -0.15 -2.18 -0.93 -2.06 -2.04 0.12 -1.045 0.92 -1.84 0.98 -2.94 0.07 -1.16 -0.16 -2.14 -0.80 -3.11 -1.31 -1.97 -3.90 -2.13 -6.02 -1.84 -0.16 0.02 -1.30 0.30 -1.30 0.12 -0.01 -0.63 0.06 -1.19 0.16 -1.82 0.14 -0.88 0.14 -2.25 -0.11 -3.12 -0.28 -0.95 -0.95 -2.30 -0.82 -3.30 0.14 -1.17 0.81 -2.10 1.03 -3.22 -0.82 0.02 -1.82 -0.30 -2.03 -1.21 l 2.25 -0.05 c -0.39 -2.04 1.86 -3.60 3.58 -4.02 0.97 -0.24 1.12 -1.62 1.89 -2.07 l 1.62 -0.96 c 0.34 -0.2 1.13 -0.10 1.52 -0.13 -0.01 -0.90 -0.71 -1.67 -1.61 -1.64 -0.56 0.02 -1.03 0.02 -1.57 -0.069 -0.74 -0.11 -0.99 -0.08 -1.69 0.16 -0.88 0.31 -1.82 0.24 -2.68 0.55 -0.52 0.18 -0.95 0.18 -0.95 0.79 -0.00 0.55 0.01 1.09 0.04 1.64 0.45 -0.22 0.56 -0.67 0.54 -1.12 -0.02 -0.59 -0.31 -0.88 0.42 -0.90 0.46 -0.01 1.04 -0.16 1.48 -0.10 0.47 0.06 0.83 0.42 1.28 0.54 0.18 -0.94 0.79 -1.02 1.58 -0.96 0.79 0.06 1.60 -0.08 2.40 -0.12 -0.35 0.66 -1.06 0.86 -1.65 1.23 -0.64 0.40 -1.23 0.87 -1.92 1.19 -0.74 0.34 -1.48 0.87 -2.25 1.10 -0.72 0.22 -1.42 -0.16 -2.12 -0.35 0.06 0.34 0.08 0.69 0.27 0.99 -1.86 0.69 -4.84 -0.65 -4.56 -2.90 1.14 0.86 2.30 0.36 3.48 -0.14 0.45 -0.19 0.43 -1.08 0.48 -1.51 0.08 -0.76 -0.02 -1.18 -0.34 -1.87 -0.28 -0.59 -0.16 -1.17 -0.32 -1.78 -0.13 -0.49 -0.49 -1.08 -0.73 -1.53 -0.30 -0.54 -0.42 -1.18 -1.10 -1.22 -0.77 -0.04 -1.17 0.17 -1.882 0.31 0.37 0.26 1.13 0.16 1.58 0.20 0.60 0.06 0.70 0.80 0.87 1.25 0.16 0.44 0.80 0.91 0.74 1.39 -0.07 0.50 -0.80 0.79 -1.10 1.112 0.41 0.40 1.07 0.65 1.54 0.99 0.46 0.34 0.00 1.68 -0.10 2.07 -0.12 0.49 -1.54 0.52 -1.92 0.52 -0.68 -0.01 -1.12 -0.68 -1.22 -1.29 l 1.5 -0.03 c -0.21 -1.15 -1.04 -1.99 -1.07 -3.23 -0.734 0.50 -1.57 1.16 -2.47 1.30 0.08 0.35 0.28 0.71 0.27 1.08 -0.01 0.67 -0.17 0.69 -0.77 0.91 -0.68 0.24 -0.62 0.27 -1.10 -0.27 -0.28 -0.32 -0.55 -0.65 -0.84 -0.96 -0.65 -0.71 -0.28 -1.58 0.36 -2.16 0.30 -0.26 0.66 -0.81 1.11 -0.69 0.39 0.10 0.78 0.27 1.18 0.34 -0.02 -0.86 0.81 -1.57 1.20 -2.28 -1.11 0.19 -2.11 0.92 -3.17 1.30 -0.86 0.31 -1.32 1.87 -1.48 2.64 -0.14 0.67 1.05 2.17 1.50 2.63 0.23 0.23 1.16 0.53 0.80 0.98 -0.15 0.20 -1.47 0.28 -1.74 0.29 -1.12 0.02 -2.26 -0.47 -3.07 -1.20 -1.12 -1.01 -0.10 -1.72 0.28 -2.74 0.30 -0.79 0.27 -2.41 -0.44 -2.98 -0.37 -0.29 -1.02 -0.25 -1.42 -0.08 -0.63 0.26 -0.69 0.84 -0.94 1.45 -0.32 0.81 -0.25 1.53 -0.23 2.40 0.01 0.87 -0.69 1.42 -1.53 1.65 -0.93 0.25 -1.71 0.27 -2.66 0.14 -0.41 -0.06 -2.03 -0.44 -2.04 -0.83 -0.02 -0.72 0.09 -0.36 0.50 -0.74 0.33 -0.31 0.59 -0.55 0.97 -0.80 0.85 -0.58 1.05 -1.16 0.58 -2.05 -0.33 -0.62 -0.52 -1.78 -1.29 -2.02 -0.62 -0.19 -1.78 -0.99 -1.16 -1.68 -0.96 -0.49 -2.38 -0.22 -3.40 -0.07 -0.71 0.10 -1.17 0.13 -1.74 0.60 -0.53 0.45 -1.01 0.98 -1.54 1.43 -0.34 0.28 -0.58 1.02 -0.65 1.46 -0.15 0.94 -0.37 1.23 0.42 1.79 1.00 0.70 1.78 1.64 3.05 1.61
  m2.91,-4.31 c 0.72 0.13 1.56 -0.43 2.13 0.27 0.37 0.45 1.27 1.78 0.28 2.09 -0.12 0.04 -0.19 0.09 -0.32 0.09 -0.49 0.01 -0.12 0.09 -0.34 0.39 -0.20 0.26 -0.30 0.53 -0.67 0.46 -0.88 -0.16 -1.63 -0.57 -1.79 -1.54 0.39 0.03 0.69 -0.00 0.99 -0.27 -0.88 -0.27 -1.69 -1.13 -2.04 -1.96 -0.42 0.54 -0.95 1.44 -1.63 1.67 -0.29 0.10 -0.34 0.06 -0.33 0.37 0.01 0.43 0.13 0.11 0.38 0.34 0.28 0.245 0.62 0.32 0.32 0.70 -0.37 0.46 -0.44 0.90 -0.98 0.59 -0.36 -0.20 -0.57 -0.58 -0.94 -0.75 -0.36 -0.16 -0.72 -0.31 -1.08 -0.48 -0.37 -0.17 0.02 -0.57 0.17 -0.85 0.19 -0.35 0.40 -0.69 0.58 -1.04 0.32 -0.60 0.38 -0.41 1.00 -0.31 0.62 0.10 0.51 -0.07 0.58 -0.69 0.04 -0.36 0.34 -0.66 0.64 -0.85 0.70 -0.44 1.71 -0.53 2.49 -0.30 1.17 0.34 0.69 1.17 0.55 2.07
  m10.28,1.29 c -0.60 0.35 -0.72 1.02 -1.03 1.59 -0.41 0.76 -0.89 1.00 -1.22 0.05 -0.246 -0.70 0.08 -1.54 0.60 -1.97 0.29 -0.24 0.55 -0.63 0.95 -0.46 0.36 0.16 0.57 0.41 0.70 0.78
  M78.47,8.57 c -0.39 -0.18 -0.69 -0.46 -1.02 -0.73 -0.02 0.70 -0.05 1.32 -0.21 2.01 -0.97 -0.16 -1.32 -1.54 -0.75 -2.27 0.30 -0.39 0.93 -0.14 1.36 -0.09 0.35 0.04 0.61 0.80 0.62 1.09
  m7.99,-0.67 c -0.58 -0.01 -0.99 -0.40 -1.02 -0.98 0.53 -0.03 1.02 0.45 1.02 0.98
  M67.77,11.04 c .624 0.10 0.60 -0.35 0.89 -0.77 0.17 -0.23 1.10 -1.08 1.39 -0.69 0.35 0.48 0.87 0.60 1.43 0.74 0.50 0.13 0.494 0.04 0.50 0.53 0.00 0.22 -0.12 0.47 -0.16 0.68 -0.07 0.38 0.16 1.39 -0.00 1.67 -0.16 0.26 -1.33 0.42 -1.68 0.50 -0.42 0.10 -1.61 0.48 -1.52 -0.23 0.06 -0.49 0.42 -1.06 0.68 -1.47 a8.08,8.08 0,0,1 -1.45,0.37 c -0.43 0.07 -0.98 -0.42 -1.46 -0.43 -0.20 -0.00 -0.26 0.19 -0.43 0.05 l  -0.98 -0.83 c -0.36 -0.31 -0.80 -0.55 -1.21 -0.79 0.37 -0.69 1.34 -0.70 2.02 -0.74 0.42 -0.03 0.99 -0.22 1.29 0.10 0.37 0.39 0.45 0.80 0.70 1.30
  m38.22 ,-1.80 c 0.00 0.17 0.13 0.89 0.02 1.00 -0.05 0.05 -0.95 0.07 -1.00 0.02 -0.05 -0.05 -0.07 -0.95 -0.02 -1.00 0.11 -0.11 0.83 -0.02 1.00 -0.02
  M88.80,12.10 c -0.76 0.05 -1.49 0.28 -2.27 0.30 l -2.73 0.06 c 0.23 -0.48 0.63 -0.86 1.02 -1.21 0.22 -0.20 0.49 -0.40 0.68 -0.63 0.10 -0.13 0.38 -0.65 0.49 -0.70 0.75 -0.31 2.66 1.54 2.80 2.19
  m7.73,-1.16 c .244 0.49 0.63 0.96 0.78 1.48 -0.87 0.49 -1.91 0.19 -2.75 -0.19 0.36 -0.73 1.15 -1.26 1.97 -1.29
  m-16.71,1.85 c -0.49 0.806 -2.34 1.189 -3.22 1.319 0.08 -0.825 0.737 -1.58 1.178 -2.242 0.16 -0.24 1.799 0.77 2.045 0.92 m -12.24 0.51 c 0.18 0.78 -1.04 0.55 0.00 0.00
  m7.16,7.60 c -0.06 -0.48 -0.07 -0.93 -0.09 -1.416 -0.04 -0.94 -0.11 -0.97 -0.85 -1.55 -0.18 -0.14 -0.92 -0.38 -0.85 -0.60 0.19 -0.59 0.64 -0.87 1.14 -1.19 1.79 -1.18 4.23 -1.63 6.27 -2.16 2.08 -0.54 4.15 -0.79 6.3 -0.83 l 3.7 -0.08 c 0.47 -0.01 0.94 -0.01 1.41 -0.01 0.77 0.01 0.84 0.57 1.06 1.17 0.24 0.62 -0.11 1.89 -0.17 2.55 -0.10 1.09 -0.38 1.44 -1.47 1.50 -0.87 0.07 -1.71 -0.01 -2.58 -0.08 -1.02 -0.09 -1.91 0.06 -2.92 0.18 -1.95 0.23 -3.88 0.52 -5.80 0.92 -0.87 0.18 -1.70 0.52 -2.53 0.83 -0.80 0.30 -1.734 0.80 -2.62 0.75
  m29.84,-8.127 c 0.45 0.64 0.79 1.44 0.80 2.23 -1.06 -0.16 -2.72 -0.36 -3.28 -1.43 0.84 -0.26 1.61 -0.64 2.48 -0.80
  m-10.49,0.47 c 0.26 0.44 0.09 1.17 -0.47 1.26 0.02 -0.48 0.05 -0.956 0.47 -1.26
  m1.50,0.22 c 0.08 0.35 0.212 0.67 0.02 1.00 -0.32 -0.32 -0.45 -0.71 -0.02 -1.00
  m1.51,0.22 c 0.20 0.40 0.22 0.85 0.03 1.25 -0.49 -0.26 -0.46 -0.96 -0.03 -1.25
  m-12.71,2.27 c 0.52 0.90 1.84 1.39 2.84 1.52 0.84 0.10 3.02 -0.29 2.99 -1.50 -0.02 -0.81 -2.23 -1.75 -2.86 -1.74 -0.95 0.02 -2.26 1.15 -2.97 1.72
  m 14.21 -2.05 c 0.45 0.80 0.20 1.77 0.07 2.62 -0.11 0.70 0.22 1.88 -0.46 2.39 -0.35 -0.66 -0.39 -1.65 -0.28 -2.38 0.11 -0.73 0.00 -2.16 0.67 -2.64
  m -9.46 2.20 c -0.58 0.21 -1.07 0.39 -1.69 0.47 -0.62 0.08 -1.22 -0.33 -1.82 -0.40 0.26 -1.69 3.47 -1.86 3.50 -0.07
  m10.96,-1.73 c 0.31 0.53 0.23 1.37 -0.47 1.51 -0.04 -0.52 0.00 -1.18 0.47 -1.51
  m-27.23,1.07 c -0.21 0.35 -0.63 0.33 -0.99 0.27 0.27 -0.24 0.64 -0.27 0.99 -0.27
  m 28.74 -0.60 c 0.03 0.34 -0.12 0.70 -0.48 0.76 0.12 -0.3 0.21 -0.56 0.48 -0.76
  m-21.74,0.83 c -0.95 0.22 -2.32 0.48 -2.81 1.38 -0.55 1.00 0.57 1.80 1.45 1.87 0.43 0.04 1.07 0.13 1.46 -0.14 0.36 -0.25 1.26 -0.64 1.45 -1.013 0.09 -0.17 0.06 -1.37 -0.07 -1.50 -0.52 -0.50 -0.76 -0.50 -1.48 -0.60
  m16.76,0.28 c -0.54 0.56 -2.98 0.88 -3.01 -0.19 -0.02 -1.10 2.50 -0.14 3.01 0.19
  m6.49,-0.39 l 0.02 1.00 c -0.34 -0.20 -0.51 -0.62 -0.52 -0.99 0.16 -0.00 0.35 -0.04 0.50 -0.01
  m-22.24,0.97 c 0.16 0.75 -0.71 0.91 -1.30 1.05 -0.40 0.10 -1.60 0.47 -1.93 0.01 -0.64 -0.88 2.64 -1.37 3.23 -1.07
  m23.75,-0.50 c 0.22 0.70 -0.10 1.35 0.04 2.00 -0.95 -0.12 -1.10 -2.18 -0.04 -2.00
  m6.75,-0.14 c -0.13 0.72 -0.89 0.73 -1.48 0.78 0.36 -0.48 0.95 -0.59 1.48 -0.78
  m-8.46,1.93 c -0.48 0.27 -0.98 0.28 -1.50 0.17 -0.31 -0.06 -1.55 -0.55 -1.27 -1.11 0.18 -0.37 1.20 -0.20 1.48 -0.14 0.66 0.14 1.06 0.42 1.29 1.09
  m3.22,-1.32 c 0.03 1.61 0.09 3.16 -0.15 4.75 -1.01 -0.16 -0.79 -1.85 -0.80 -2.58 -0.01 -0.46 0.13 -0.95 0.23 -1.40 0.10 -0.49 0.11 -0.88 0.73 -0.78
  m1.27,0.72 c 0.32 0.57 0.33 1.60 -0.46 1.76 0.02 -0.60 -0.10 -1.37 0.46 -1.76
  m-10.24,0.46 c 0.06 0.52 -0.28 0.71 -0.73 0.77 -0.12 -0.55 0.18 -0.86 0.73 -0.77
  m-22.97,1.73 a2.29,2.29 0,0,1 -1.25,-0.22 c .33 -0.48 1.14 -0.42 1.26 0.22
  m25.72,-1.29 l 0.01 0.69 c 0.00 0.08 -0.44 0.12 -0.50 0.07 -0.08 -0.07 -0.01 -0.58 -0.02 -0.69 -0.00 -0.11 0.39 -0.08 0.50 -0.07
  m9.00,-0.19 c 0.08 0.35 0.22 0.67 0.02 1.00 -0.31 -0.32 -0.45 -0.70 -0.02 -1
  m-4.4,27.35 c -0.06 -0.34 -0.17 -0.67 -0.27 -1.00 0.34 0.05 0.67 0.14 1.00 0.23 -0.19 -1.19 -2.06 -1.76 -1.82 -3.21 0.76 0.10 1.58 0.72 2.24 1.07 0.66 0.35 1.60 0.31 2.21 0.78 0.62 0.48 0.80 1.57 0.88 2.29 0.09 0.84 -0.27 1.67 -0.19 2.50 -0.96 -0.52 -0.60 -1.80 -1.16 -2.55 -0.64 -0.86 -1.26 -2.22 -2.45 -2.38 0.32 0.57 0.88 1.06 1.08 1.67 0.23 0.72 0.33 1.55 0.18 2.30 -0.09 0.41 -0.09 0.53 -0.50 0.40 -0.24 -0.07 -0.52 -0.27 -0.73 -0.41 -0.61 -0.43 -1.28 -0.88 -1.97 -1.17 0.61 1.11 1.82 1.80 1.82 3.21 -0.81 -0.16 -1.57 -0.78 -2.28 -1.20 0.38 1.06 1.52 1.77 1.56 2.97 -0.54 -0.27 -1.00 -0.68 -1.52 -0.97 0.46 0.85 1.00 1.77 0.56 2.74 -0.61 -0.47 -1.03 -1.37 -1.54 -1.97 -0.53 -0.63 -0.93 -1.44 -1.55 -1.97 0.30 1.67 2.72 3.10 1.85 4.96 -0.66 -0.49 -1.1 -1.46 -1.65 -2.09 -0.56 -0.64 -1.14 -1.29 -1.44 -2.10 -0.44 1.32 4.10 5.61 1.38 6.22 0.02 -1.78 -1.81 -3.09 -2.35 -4.70 -0.33 0.68 0.23 1.65 0.55 2.24 0.43 0.79 0.72 1.32 0.80 2.23 -1.28 -0.24 -2.91 -1.72 -3.31 -2.93 -0.38 1.06 0.83 1.92 1.47 2.54 0.42 0.41 1.0 0.86 1.21 1.48 0.10 0.52 -0.10 1.32 -0.50 1.69 -1.21 1.11 -2.05 -0.38 -2.10 -1.50 -0.05 -1.06 0.04 -2.60 -1.07 -3.19 0.13 0.46 1.02 2.26 -0.21 2.01 0.24 0.70 0.58 1.38 0.84 2.08 0.12 0.32 -0.04 2.05 -0.58 2.05 h-1.52 c -0.45 0.00 -0.50 -0.41 -0.65 -0.78 -0.27 -0.66 -0.06 -1.58 -0.32 -2.29 -0.45 0.992 0.06 2.24 -0.43 3.26 -1.18 -0.58 -1.54 -1.85 -2.06 -2.96 a2.29,2.29 0,0,0 -0.22,1.26 0.82 0.81 0,0,1 -0.77,-0.73 c -0.54 1.26 1.21 1.76 1.23 2.85 0.02 0.85 -0.62 0.89 -1.22 0.81 -0.51 -0.06 -0.22 -0.78 0.30 -0.67 -0.40 -1.12 -1.88 -1.05 -2.30 -2.20 -0.17 0.48 0.16 0.90 0.47 1.23 0.12 0.12 0.28 0.20 0.41 0.30 0.41 0.30 0.31 0.09 0.37 0.60 0.05 0.43 -0.17 0.94 0.06 1.35 0.34 0.60 0.90 0.46 1.44 0.32 1.03 -0.26 2.03 -1.05 3.04 -1.19 0.51 -0.07 1.00 0.22 1.50 0.16 0.57 -0.07 1.01 -0.51 1.48 -0.78 0.93 -0.53 2.21 -0.50 2.85 -1.51 0.65 -1.03 1.37 -1.67 2.28 -2.46 0.90 -0.78 1.77 -1.59 2.70 -2.34 0.85 -0.69 1.28 -1.48 1.79 -2.43 0.53 -0.97 0.77 -2.01 1.23 -3.00 0.14 -0.30 0.04 -0.4 0.39 -0.41 0.33 -0.01 0.33 0.16 0.36 0.49 0.05 0.55 -0.11 1.11 -0.27 1.63 -0.33 1.07 -0.77 2.10 -1.16 3.15 -0.34 0.92 -0.60 2.23 -1.12 3.06 -1.21 1.94 -3.27 3.06 -5.23 4.10 -1.94 1.02 -3.98 1.74 -6.08 2.35 -1.82 0.52 -3.90 0.40 -5.75 0.13 -1.07 -0.16 -2.12 -0.44 -3.18 -0.69 -0.68 -0.16 -2.10 -0.38 -2.30 -1.21 1.55 -0.24 3.07 -1.35 4.20 -2.34 -0.19 0.00 -0.89 0.12 -1.00 0.02 -0.11 -0.10 -0.02 -0.84 -0.02 -1 -0.29 0.37 -0.59 0.68 -0.92 1.01 -0.28 0.29 -0.70 0.91 -1.09 1.05 -1.17 0.42 -1.86 0.02 -3.00 -0.39 -1.12 -0.40 -0.50 -1.61 -0.03 -2.26 0.24 -0.33 0.72 -0.48 1.00 -0.77 a3.51,3.51 0,0,0 0.74,-1.07 c -0.55 0.45 -1.15 0.80 -1.72 1.22 -0.25 0.18 -1.334 1.25 -1.73 1.10 -0.66 -0.25 -0.14 -1.85 -0.06 -2.22 0.14 -0.61 0.86 -1.33 1.22 -1.81 -0.46 0.22 -0.80 0.54 -1.18 0.88 -0.63 0.55 -0.98 0.94 -1.46 0.10 -0.55 -0.97 1.16 -2.44 1.90 -2.79 1.19 -0.57 2.51 -0.97 2.89 -2.36 0.17 -0.64 0.12 -1.10 0.02 -1.75 s 0.02 -1.24 0.16 -1.88 c -0.34 0.46 -0.64 0.93 -0.96 1.40 -0.28 0.42 -0.73 0.69 -0.99 1.14 0.81 -0.43 1.58 0.01 1.52 0.97 -0.02 0.34 -0.33 0.82 -0.60 1.02 -0.53 0.40 -0.63 -0.00 -0.89 -0.49 -0.25 0.78 -0.82 1.24 -1.51 1.64 -0.65 0.38 -1.43 1.04 -2.18 1.18 -0.02 -0.94 0.65 -1.82 1.20 -2.53 -0.62 0.16 -0.88 0.64 -1.38 1.00 -0.12 0.08 -0.55 0.42 -0.62 0.24 -0.11 -0.28 -0.17 -0.50 -0.10 -0.81 0.27 -1.26 1.71 -1.64 2.30 -2.67 -0.80 0.40 -1.57 0.92 -2.48 1.05 0.04 -1.60 2.18 -1.83 2.43 -3.30 -1.23 1.16 -2.98 1.76 -3.43 3.57 -1.64 -1.08 0.84 -3.38 1.41 -4.28 -0.49 0.18 -0.97 0.45 -1.49 0.53 -0.05 -0.59 0.12 -1.18 0.21 -1.76 0.37 0.04 0.75 0.34 1.05 0.54 0.58 0.39 1.037 0.588 1.706 0.806.88 0.288 2.21 -0.36 3.04 -0.69 2.115 -0.85 4.18 -0.927 6.447 -0.91 1.036 0.01 2.052 0.196 3.09 0.23 0.48 0.02 1.05 -0.06 1.52 0.07 0.54 0.15 1.15 0.41 1.71 0.46 1.06 0.08 2.29 0.06 3.23 -0.57 0.49 -0.33 0.97 -0.65 1.48 -0.95 0.21 -0.12 0.42 -0.20 0.67 -0.22 0.44 -0.03 0.29 -0.30 0.23 -0.68 -0.11 -0.62 -0.38 -1.21 -0.48 -1.83 -1.19 1.11 -2.15 1.02 -3.70 0.83 -1.10 -0.13 -2.00 -1.41 -3.07 -1.69 0.61 0.53 1.24 0.98 1.90 1.46 0.42 0.30 1.26 0.69 1.40 1.23 -0.51 -0.14 -1 -0.33 -1.51 -0.47 0.49 0.84 1.42 1.14 2.28 1.45 -0.77 0.70 -2.31 -0.26 -3.02 -0.69 0.14 0.42 0.37 0.82 0.53 1.24 -0.63 0.14 -1.36 -0.43 -1.85 -0.73 -0.24 -0.15 -0.97 -1.21 -1.02 -1.21 -0.73 0.02 -0.12 0.20 -0.47 0.58 -0.26 0.28 -0.60 0.07 -0.98 0.03 -0.73 -0.08 -1.26 -0.03 -1.96 -0.29 0.14 1.00 -1.01 0.567 -1.42 0.19 -0.38 -0.35 -0.27 -0.44 -0.78 -0.16 -0.24 0.13 -0.48 0.06 -0.56 -0.22 -0.60 0.49 -1.62 0.62 -2.34 0.88 -0.31 0.11 -0.78 0.10 -1.09 0.02 -0.40 -0.10 -0.54 0.46 -0.79 0.82 -0.51 0.75 -1.66 0.76 -2.45 0.91 -0.69 0.14 -1.96 -0.65 -1.56 -1.46 0.35 0.18 1.06 0.58 1.41 0.40 0.71 -0.38 1.00 -0.63 1.45 -1.28 0.76 -1.11 1.31 -1.97 2.67 -2.37 1.17 -0.34 2.25 0.51 3.36 0.29 1.22 -0.25 2.28 -0.51 3.55 -0.54 -0.02 -0.82 -0.75 -1.41 -1.52 -1.06 -0.35 0.16 -0.63 0.48 -0.99 0.63 -0.46 0.19 -1.03 0.23 -1.51 0.34 -1.72 0.38 -1.06 -3.36 -0.94 -4.25 0.13 -0.96 0.10 -1.90 0.27 -2.86 0.15 -0.82 0.43 -1.65 0.44 -2.48 0.02 -1.15 -0.41 -4.45 -2.05 -4.43 0.63 1.16 1.57 2.61 1.58 3.97 -0.49 -0.12 -0.76 -0.61 -1.13 -0.92 -0.60 -0.5 -1.02 -0.66 -1.78 -0.90 -0.86 -0.28 -2.46 0.69 -2.85 1.44 0.92 -0.75 2.30 -1.42 3.48 -0.82 -0.73 0.66 -1.98 0.65 -2.80 1.23 -0.49 0.35 -0.65 0.77 -0.69 1.35 -0.04 0.49 -0.11 1.12 -0.68 1.26 -0.10 -0.71 -0.41 -1.37 -0.52 -2.08 -0.12 -0.74 -0.61 -1.94 -0.01 -2.57 l 1.09 -1.14 c 0.22 -0.23 0.76 -0.23 1.07 -0.31 0.90 -0.23 1.57 -0.36 2.50 -0.24 -0.83 -1.46 -3.58 -0.06 -4.74 0.35 -0.27 -1.00 0.04 -2.20 0.35 -3.12 0.16 -0.50 0.23 -0.96 0.74 -1.21 0.50 -0.25 0.95 -0.50 1.49 -0.64 1.23 -0.31 2.46 -0.61 3.69 -0.89 1.06 -0.24 2.14 -0.28 3.20 -0.47 2.15 -0.38 4.72 -0.38 6.88 -0.06 0.98 0.15 2.09 0.24 3.08 0.257.785 0.02 2.33 0.16 2.76 0.91 0.59 1.03 1.32 1.99 1.39 3.23 0.03 0.50 -0.10 0.99 -0.06 1.50 0.04 0.53 0.18 1.05 0.23 1.57 0.09 1.17 0.81 2.07 1.19 3.15 0.34 0.95 0.22 2.03 0.55 3.01 0.38 1.13 0.65 2.28 0.90 3.44 0.23 1.06 -0.13 2.15 0.04 3.24 0.16 1.04 0.09 2.10 0.11 3.15 0.01 0.35 -0.36 1.08 -0.10 1.37 0.34 0.39 0.69 0.78 1.15 1.03 0.12 0.06 0.23 0.13 0.34 0.19
  m-3.05,-26.44 l 0.01 0.69 c 0.00 0.08 -0.44 0.12 -0.50 0.07 -0.08 -0.07 -0.01 -0.58 -0.01 -0.69 -0.00 -0.12 0.39 -0.08 0.50 -0.07
  m3.00,0.19 c 0.07 0.22 0.42 2.12 -0.47 1.51 -0.24 -0.17 -0.17 -0.80 -0.18 -1.04 -0.01 -0.43 0.26 -0.54 0.65 -0.47
  m-1.49,0.28 l 0.01 0.70 c 0.00 0.08 -0.44 0.12 -0.50 0.07 -0.08 -0.07 -0.01 -0.58 -0.02 -0.70 -0.00 -0.11 0.40 -0.08 0.50 -0.07 m 4.53 1.41 c 0.02 0.53 -0.14 1.14 -0.72 1.26 l -0.02 -1.09 c -0.01 -0.30 0.49 -0.17 0.75 -0.17
  m-6.74,0.39 c 0.97 1.26 0.81 3.19 1.06 4.69 0.14 0.85 0.22 1.61 0.60 2.40 0.31 0.64 0.89 1.01 1.27 1.60 -2.01 0.04 -2.73 -1.65 -2.83 -3.40 -0.05 -0.93 -0.28 -1.91 -0.30 -2.83 -0.01 -0.71 -0.26 -1.85 0.20 -2.46
  m1.00,-0.02 c 1.56 0.89 1.55 3.79 0.86 5.23 -0.58 -0.39 -0.76 -1.75 -0.81 -2.39 -0.05 -0.69 -0.55 -2.28 -0.05 -2.84
  m-26.22,1.55 c -0.03 1.16 -0.18 2.12 -0.43 3.26 -0.98 -0.59 -0.41 -2.77 0.43 -3.26 m 29.00 -0.11 c 0.79 0.60 0.76 1.90 0.80 2.78 0.05 1.21 0.11 2.14 -0.74 3.05 -0.13 0.14 -0.31 0.44 -0.51 0.46 -0.12 0.01 -0.66 0.06 -0.66 -0.06 l -0.04 -1.65 c -0.01 -0.46 0.17 -0.92 0.19 -1.39 0.02 -0.49 0.02 -0.98 0.25 -1.43 0.33 0.37 0.40 1.03 0.53 1.49 0.34 -1.00 -0.50 -2.35 0.18 -3.26
  M86.62,27.65 c 0.79 -0.68 0.75 -1.85 1.90 -2.12 0.84 -0.20 2.38 -0.10 2.54 -1.23 -1.09 0.24 -2.22 0.27 -3.19 0.80 -0.84 0.45 -1.35 1.63 -1.24 2.55
  m4.70,-2.60 c 1.16 -0.08 2.24 0.07 3.38 0.06 1.13 -0.01 2.05 0.40 3.14 0.56 -0.74 -1.09 -2.07 -0.75 -3.15 -1.02 -0.96 -0.23 -2.81 -0.82 -3.36 0.40
  m14.99,-0.56 c 0.65 0.88 0.83 2.46 0.82 3.53 -0.01 0.69 -0.02 1.35 -0.22 2.02 -0.14 0.44 -0.49 1.82 -1.20 1.72 -0.16 -0.02 -0.51 -0.57 -0.63 -0.70 -0.16 -0.18 0.01 -0.61 0.08 -0.80 0.26 -0.79 0.32 -1.34 0.31 -2.16 -0.01 -0.66 0.20 -1.39 0.31 -2.04 0.09 -0.51 0.09 -1.21 0.54 -1.56
  m1.75,-0.04 c 0.97 1.56 1.59 3.36 1.60 5.22 0.01 0.74 0.03 2.33 -0.82 2.68 -0.55 0.22 -0.72 0.03 -0.59 -0.52 a6.78,6.78 0,0,0 0.19,-1.38 c -0.18 0.36 -0.35 0.73 -0.52 1.09 -0.24 0.50 -0.27 0.93 -0.86 0.94 -0.60 0.01 0.10 -2.27 0.17 -2.56 0.24 -0.94 0.41 -1.79 0.40 -2.77 -0.02 -0.75 -0.30 -2.21 0.44 -2.69
  m-17.83,8.38 c -0.17 -0.53 -0.64 -1.17 -0.54 -1.74 0.47 0.09 0.97 0.40 1.43 0.56 0.61 0.22 1.42 0.18 2.06 0.26 1.26 0.14 2.29 -0.49 3.51 -0.72 -0.24 0.49 -0.36 0.97 -0.47 1.51 0.43 -0.26 0.70 -0.87 0.96 -1.29 0.29 -0.48 0.78 -0.72 1.24 -1.01 -0.50 -0.56 -0.82 -0.96 -1.49 -1.29 a27.17 27.17 0,0,1 -1.67,-0.88 c -1.14 -0.66 -2.45 -1.38 -3.82 -1.16 -1.36 0.21 -2.53 0.94 -2.90 2.35 -0.22 0.85 -0.01 1.34 0.37 2.12 0.27 0.55 0.68 1.13 1.30 1.28
  m3.40,-4.57 c -0.74 0.02 -1.47 0.01 -2.21 -0.00 -0.61 -0.01 -1.19 0.47 -1.78 0.58 0.24 -1.53 3.56 -2.20 3.99 -0.58
  m14.74,-0.56 l 0.04 2.00 c 0.36 -0.43 0.34 -1.59 -0.04 -2.00
  m-13.74,0.79 c 1.05 0.28 1.97 0.91 3.02 1.19 -0.60 0.58 -3.22 -0.27 -3.02 -1.19
  m-14.47,1.55 a0.81 0.81 0,0,1 -0.77,-0.73 c 0.52 -0.06 0.71 0.27 0.77 0.73
  m11.73,-1.00 l 0.02 1.00 c -0.54 -0.10 -0.65 -0.52 -0.77 -0.98 z
  m1.50,0.22 c 0.68 2.27 -3.16 2.71 -3.24 0.57 0.36 0.20 1.23 0.95 1.62 0.64 0.45 -0.37 1.06 -1.30 1.62 -1.20 m -11.99 0.50 c 0.012 1.73 -2.60 2.35 -2.99 0.56 0.39 0.24 1.04 0.66 1.51 0.55 0.56 -0.13 1.03 -0.79 1.48 -1.11
  m1.26,0.22 c -0.09 0.88 -0.20 1.66 -0.45 2.51 0.28 0.03 0.50 -0.14 0.74 -0.26 0.13 0.94 0.12 1.86 -0.01 2.81 -0.09 0.63 -0.01 2.26 -0.86 2.42 -0.57 0.10 -0.22 0.75 -0.49 1.15 -0.25 0.37 -0.91 0.52 -1.28 0.75 -0.84 0.52 -1.32 1.48 -2.16 1.98 -0.34 -0.63 -0.22 -1.36 -0.42 -2.02 -0.26 -0.87 -0.58 -1.70 -0.64 -2.61 -0.05 -0.80 -0.19 -1.71 -0.06 -2.51 0.12 -0.75 0.08 -1.67 0.42 -2.35 0.56 0.42 1.02 0.99 1.53 1.47 -0.27 -0.40 -0.55 -0.81 -0.78 -1.23 0.76 -0.39 1.76 0.24 2.44 -0.33 0.40 -0.33 0.81 -0.61 1.09 -1.05 0.26 -0.42 0.33 -0.81 0.92 -0.71
  m13.01,0.23 c -0.01 1.00 -0.98 0.98 -1.73 1.04 0.17 -1.18 0.66 -1.19 1.73 -1.04
  M116.80,35.77 c -1.18 -0.36 -2.24 -0.98 -3.52 -0.93 0.80 0.52 1.69 0.86 2.51 1.38 0.54 0.35 1.62 1.49 1.00 2.16 -0.35 0.34 -0.98 0.16 -1.31 -0.07 -0.25 -0.167 -0.52 -0.76 -0.73 -0.74 -0.94 0.08 -2.08 -0.15 -2.37 -1.21 0.60 0.03 1.34 -0.07 1.90 0.14 0.59 0.22 1.07 0.47 1.62 0.78 -0.32 -2.22 -4.54 -1.66 -6.01 -1.62 -2.00 0.04 -4.46 -0.26 -6.10 -1.51 -0.94 -0.72 -1.37 -1.80 -1.20 -2.99 0.07 -0.52 0.14 -0.66 0.68 -0.50 0.60 0.19 0.96 0.50 1.36 0.98 0.67 0.80 1.55 1.43 2.60 1.64 1.17 0.23 2.25 -0.03 3.40 -0.33 1.32 -0.35 2.49 -0.36 3.82 0.02 0.93 0.27 3.06 1.54 2.44 2.80
  m-12.82,-2.98 c 0.31 1.53 2.34 2.74 3.79 1.92 -0.42 -0.54 -1.34 -0.40 -1.89 -0.72 -0.64 -0.38 -1.25 -0.84 -1.9 -1.20
  m-30.24,0.88 c -0.12 0.95 -0.88 2.27 -1.95 2.29 0.14 -0.96 0.97 -2.11 1.95 -2.29
  m38.32,14.95 c -1.99 -2.64 2.23 -6.42 -0.45 -8.77 -1.27 -1.11 -2.99 -1.25 -4.62 -1.54 -1.49 -0.27 -3.13 -1.16 -3.45 -2.76 0.83 -0.04 1.62 0.35 2.39 0.61 0.91 0.30 1.69 0.24 2.63 0.32 1.50 0.13 3.72 0.84 4.53 2.23 0.48 0.84 0.82 1.45 0.81 2.44 -0.01 0.95 -0.18 1.86 -0.35 2.80 -0.15 0.82 -0.47 1.55 -0.71 2.35 -0.20 0.69 -0.21 1.84 -0.77 2.33
  M76.30,36.37 c -0.00 1.09 -1.19 1.68 -1.87 2.37 -0.78 0.78 -1.28 1.60 -1.46 2.72 -0.17 1.08 -0.32 2.21 -0.89 3.17 -0.58 0.97 -1.36 1.36 -2.33 1.88 2.20 0.55 3.10 -2.32 3.51 -3.87 0.19 -0.71 0.27 -1.95 0.82 -2.49 0.69 -0.68 1.44 -1.73 2.51 -1.79 -0.34 0.54 -0.97 0.87 -1.28 1.40 -0.48 0.82 -0.83 1.46 -1.07 2.38 -0.20 0.77 -0.27 1.58 -0.34 2.37 -0.08 0.78 -0.54 1.45 -0.95 2.09 -0.39 0.61 -1.27 0.46 -1.88 0.43 -0.84 -0.05 -1.69 -0.05 -2.53 -0.06 -0.71 -0.01 -1.50 -0.33 -2.22 -0.44 a16.52,16.52 0,0,0 -2.32,-0.15 c 0.02 -2.01 2.467 -1.58 3.70 -1.31 1.54 0.34 3.15 -0.11 3.95 -1.56 0.34 -0.62 0.25 -1.49 0.30 -2.20 0.06 -0.99 0.43 -1.55 0.91 -2.43 0.56 -1.03 2.25 -2.31 3.43 -2.52
  m12.01,0.25 c 0.12 0.33 0.28 0.65 0.38 0.99 0.05 0.17 0.06 1.14 0.16 1.24 0.14 0.14 1.04 0.02 1.31 0.05 0.47 0.06 0.97 0.18 1.45 0.14 -0.38 -0.48 -1.22 -0.46 -1.68 -0.83 -0.62 -0.49 -0.73 -1.44 -1.62 -1.60
  m17.26,0.14 c 0.65 1.14 2.07 1.16 3.21 1.32 0.62 0.09 1.20 0.17 1.76 0.44 0.57 0.28 1.20 0.73 1.83 0.85 -0.18 -1.25 -2.02 -1.75 -3.04 -1.94 -1.23 -0.22 -2.51 -0.70 -3.77 -0.67
  m-3.74,0.33 l 0.02 0.92 c 0.00 0.21 0.20 0.64 0.51 0.31 0.10 -0.10 -0.02 -0.78 -0.02 -0.93 -0.01 -0.39 -0.09 -0.38 -0.51 -0.31
  m-30.97,1.65 c -0.13 1.00 -1.06 2.53 -2.20 2.55 -0.13 -1.18 1.03 -2.48 2.20 -2.55
  m30.49,-0.64 c -0.25 0.49 -0.10 1.00 0.03 1.50 0.33 -0.38 0.28 -1.12 -0.03 -1.50
  m3.26,0.43 c 0.92 0.16 1.90 0.85 2.76 1.23 1.16 0.51 2.06 0.88 2.68 2.01 0.24 0.44 0.62 0.89 0.61 1.41 -0.02 0.61 -0.02 1.16 -0.18 1.74 -0.15 0.54 -0.32 1.07 -0.39 1.62 -0.08 0.62 0.10 1.22 0.21 1.84 0.19 1.05 1.64 1.59 2.54 1.67 1.08 0.10 2.29 -0.39 2.80 -1.40 0.26 -0.52 -0.05 -0.91 0.68 -0.84 0.52 0.045 0.893 0.31 0.74 0.83 -0.17 0.58 -0.23 0.97 -0.72 1.33 -0.56 0.42 -1.02 0.67 -1.66 0.94 -1.14 0.49 -2.89 0.42 -3.83 -0.53 -0.71 -0.72 -0.94 -0.95 -1.13 -1.92 -0.15 -0.76 -0.17 -1.46 -0.18 -2.24 -0.02 -0.87 0.09 -1.24 -0.29 -2.03 -0.31 -0.65 -0.68 -1.24 -1.33 -1.61 -0.97 -0.55 -2.98 -1.09 -3.26 -2.30 0.82 0.12 1.62 0.89 2.35 1.27 0.79 0.42 1.65 0.73 2.45 1.13 -0.56 -0.94 -1.47 -1.31 -2.38 -1.82 -0.61 -0.34 -2.85 -1.32 -2.45 -2.33
  m11.77,1.00 c -0.20 0.70 -0.09 1.36 0.27 2.00 0.46 0.79 1.18 0.93 1.98 1.25 0.82 0.33 1.23 0.43 2.12 0.41 0.81 -0.02 1.59 -0.12 2.40 -0.22 1.84 -0.22 1.80 2.40 1.62 3.51 -0.13 0.77 -0.23 1.49 -0.10 2.26 0.12 0.70 0.43 1.40 0.45 2.12 -0.36 -0.21 -0.68 -0.48 -1.02 -0.73 0.21 0.38 0.26 0.82 0.28 1.24 -1.23 -0.67 -0.76 -2.86 -0.64 -3.97 0.14 -1.26 -0.92 -2.84 -2.26 -2.97 0.24 0.42 .5 0.84 0.78 1.23 -0.60 0.02 -1.21 -0.01 -1.80 0.06 -0.53 0.06 -1.19 0.25 -1.69 0.02 0.16 -0.29 0.45 -0.39 0.74 -0.52 -1.00 -0.51 -2.99 0.08 -3.56 -1.18 -0.43 -0.94 -0.68 -1.39 -0.58 -2.41 0.07 -0.69 0.04 -1.38 0.03 -2.08 -0.14 0.07 -0.702 0.46 -0.77 0.17 -0.07 -0.30 -0.16 -0.60 -0.25 -0.90 0.70 -0.02 1.44 0.34 2.02 0.71
  m-39.75,0.33 c -0.02 0.64 0.16 1.81 -0.45 2.26 -0.82 -0.96 -0.88 -1.92 0.45 -2.26
  m23.74,-0.50 c -0.37 0.71 -0.16 1.63 0.30 2.24 0.43 -0.47 0.13 -1.82 -0.30 -2.24
  m10.85,4.77 c -0.04 -0.74 0.01 -1.70 -0.41 -2.35 -0.45 -0.71 -1.03 -1.38 -1.44 -2.11 0.79 -0.43 2.35 0.40 2.54 1.26 0.24 1.12 0.52 2.52 -0.69 3.21
  M71.39,40.47 c 0.04 1.15 -0.46 2.67 -1.63 3.15 -1.24 0.51 -2.56 0.25 -3.85 0.13 -0.85 -0.08 -0.18 -0.95 0.28 -1.17 0.58 -0.29 1.37 -0.18 1.99 -0.29 1.29 -0.23 2.02 -1.56 3.21 -1.82
  m27.99,-0.59 c 0.02 0.94 -0.04 1.94 0.56 2.74 0.42 -0.59 0.01 -2.32 -0.56 -2.74
  m-21.99,0.71 l 0.02 1.05 c 0.00 0.21 -0.05 0.84 -0.49 0.46 -0.32 -0.28 0.21 -1.33 0.47 -1.51
  m24.55,2.24 c -0.52 0.47 -1.10 1.86 0.04 2.00 -0.13 -0.61 0.48 -1.46 -0.04 -2.00
  m14.25,0.05 c 0.13 0.57 0.72 0.91 1.27 0.97 -0.42 -0.37 -0.79 -0.68 -1.27 -0.97
  M83.47,44.22 c 0.33 1.65 1.83 1.71 3.23 1.68 1.22 -0.03 3.01 -0.17 3.02 -1.81 -0.46 0.10 -1.02 0.64 -1.44 0.88 s -1.14 0.17 -1.60 0.18 c -0.49 0.01 -1.29 0.11 -1.74 -0.10 -0.52 -0.25 -0.97 -0.55 -1.48 -0.83
  m16.75,-0.10 l 0.04 1.75 c 0.58 -0.44 0.54 -1.33 -0.04 -1.75
  m-1.50 0.28 c 0.16 0.78 0.68 1.46 0.80 2.23 0.58 -0.65 0.03 -2.09 -0.80 -2.23
  m16.28,1.16 c -0.29 0.47 -0.74 0.61 -1.23 0.78 0.12 -0.49 0.71 -1.62 1.23 -0.78
  m-17.50,0.37 c -0.11 0.71 0.26 1.74 0.30 2.49 0.68 -0.56 0.34 -2.01 -0.30 -2.49
  m-13.20,2.277 c 0.42 -0.13 0.78 -0.41 1.18 -0.59 0.59 -0.27 1.12 -0.33 1.77 -0.42 0.92 -0.13 2.05 0.35 2.55 1.15 0.41 -0.54 -0.27 -0.93 -0.65 -1.19 -0.67 -0.47 -1.01 -0.46 -1.84 -0.50 -1.12 -0.05 -2.64 0.39 -3.01 1.56
  m-14.25,0.30 c -0.79 0.66 -2.36 0.09 -3.22 -0.10 -1.09 -0.24 -2.58 -0.43 -3.26 0.74 0.28 0.05 0.84 0.04 0.67 0.42 -0.18 0.41 -0.38 0.87 -0.38 1.32 0.41 -0.41 0.89 -0.91 1.48 -1.03 -0.25 0.76 -0.75 1.15 -1.37 1.62 -0.59 0.44 -1.34 0.42 -2.03 0.67 -1.47 0.54 -2.29 2.11 -3.76 2.61 -0.01 -0.94 0.97 -2.84 1.96 -2.94 0.68 -0.07 1.62 -0.06 2.20 -0.51 0.61 -0.48 0.75 -1.29 0.78 -1.99 0.16 -3.29 5.17 -1.70 6.93 -0.80
  m25.22,-1.53 c -0.13 0.84 -0.24 1.52 0.30 2.24 0.31 -0.51 0.11 -1.64 0.20 -2.26 -0.16 0.00 -0.34 -0.02 -0.50 0.01
  m23.81,2.50 c 0.35 -0.34 1.02 -0.48 1.53 -0.50 0.17 -0.01 0.96 0.04 0.96 -0.13 -0.01 -0.56 -0.11 -0.42 -0.66 -0.41 -0.72 0.02 -1.41 0.08 -2.1 -0.09 -0.77 -0.19 -0.70 -0.92 -0.77 -1.60 0.73 0.07 1.36 0.78 2.12 0.93 0.18 0.04 0.36 0.02 0.55 0.02 0.18 -0.00 0.17 -0.50 -0.01 -0.50 -0.48 0.01 -0.93 -0.12 -1.40 -0.22 0.72 -0.74 3.93 -0.82 3.62 0.70 -0.18 0.89 -0.30 1.53 -1.37 1.72 -0.82 0.15 -1.61 0.10 -2.44 0.08
  m-25.55,-1.97 c -0.76 1.27 -1.41 2.85 -0.66 4.26 0.49 -0.68 -0.12 -1.72 0.45 -2.51 0.23 0.67 0.58 1.31 0.79 1.98 0.31 -0.51 -0.12 -1.25 -0.18 -1.79 -0.06 -0.53 0.00 -1.52 -0.39 -1.95
  m3.00,-0.06 l .02 1.25 c .28 -0.35 0.26 -0.91 -0.02 -1.25
  m-77.98,1.88 c 0.00 0.13 0.10 0.67 0.02 0.75 -0.03 0.04 -0.71 0.05 -0.75 0.02 s -0.05 -0.71 -0.02 -0.75 c 0.08 -0.08 0.62 -0.01 0.75 -0.02
  m95.98,-2.01 c 0.40 0.54 0.63 1.62 -0.32 1.76 -0.91 0.13 -0.13 -1.46 0.32 -1.76
  m-93.36,7.71 c -0.67 -0.38 -1.09 -1.10 -1.78 -1.46 0.51 0.81 0.98 1.57 1.30 2.47 0.08 0.23 0.39 0.99 0.28 1.24 -0.02 0.04 -0.34 0.19 -0.40 0.26 -0.17 0.18 -0.22 0.26 -0.27 0.52 -0.09 0.41 -0.65 0.12 -0.99 0.03 -0.48 -0.13 -1.04 -0.10 -1.54 -0.14 -0.78 -0.07 -1.56 1.05 -1.75 1.69 -2.16 -1.06 -1.39 -4.62 -0.26 -6.23 0.52 -0.74 0.73 -0.92 1.56 -1.28 0.50 -0.22 1.20 -0.20 1.67 0.03 1.06 0.53 2.12 1.60 2.19 2.87
  m53.42,-4.12 c 0.73 1.40 1.62 2.83 1.59 4.47 -0.45 -0.43 -0.87 -1.44 -1.05 -2.01 -0.18 -0.58 -0.88 -1.88 -0.54 -2.45
  m47.75,-0.75 c 0.26 0.20 0.39 0.44 0.52 0.74 -0.29 -0.12 -0.89 -0.40 -0.52 -0.74
  m-30.48,1.39 c -0.10 0.62 0.28 1.3 0.29 1.99 0.43 -0.51 0.24 -1.62 -0.29 -1.99
  m32.04,1.83 c -2.69 1.87 -4.56 4.34 -6.20 7.13 -1.59 2.68 -2.90 5.56 -3.72 8.58 0.58 -0.35 0.94 -1.08 1.28 -1.634 0.46 -0.77 0.94 -1.51 1.25 -2.35 0.55 -1.54 1.43 -2.97 2.24 -4.39 0.80 -1.40 1.69 -3.05 3.08 -3.95 0.35 -0.22 0.33 -0.09 0.58 -0.45 0.18 -0.28 0.36 -0.58 0.54 -0.87 0.31 -0.49 1.13 -1.40 0.95 -2.01
  m-43.47,1.66 c -0.22 0.23 -0.54 0.42 -0.48 0.76 0.30 -0.10 0.90 -0.43 0.48 -0.76
  m-3.73,1.08 c 0.76 0.54 1.19 1.40 1.66 2.18 0.43 0.70 1.06 1.26 1.43 2.01 -0.83 0.33 -2.14 -0.42 -2.46 -1.18 -0.27 -0.66 -1.23 -2.33 -0.63 -3.00
  m16.75,-0.1 c 0.21 1.02 0.34 2.05 0.81 2.98 0.99 -0.73 0.006 -2.52 -0.81 -2.98
  m-9.49,0.45 c -0.44 0.63 -1.07 0.93 -1.72 1.29 0.65 0.61 2.24 -0.52 1.72 -1.29
  m13.76,0.21 c -0.12 0.63 -0.62 1.14 -0.71 1.76 0.64 -0.14 1.19 -1.22 0.71 -1.76
  M20.07,61.55 c 0.83 -0.18 1.13 -1.11 1.46 -1.78 0.62 0.68 -0.02 1.79 -0.29 2.47 -0.30 0.74 -1.95 1.08 -2.64 1.09 -1.11 0.02 -1.98 -0.08 -3.07 -0.35 -0.60 -0.14 -1.345 -1.727 -1.236 -2.314 0.79 -0.02 1.46 0.52 1.78 1.21 0.43 -0.53 0.64 -0.95 0.72 -1.64 0.11 -0.95 0.40 -1.06 1.27 -1.24 0.78 -0.16 1.26 -0.26 1.56 0.63 0.2 0.61 0.42 1.26 0.44 1.91
  m-5.80,-2.13 c -0.35 0.68 -1.05 0.72 -1.73 0.79 0.14 -0.76 1.07 -1.13 1.73 -0.79
  m 10.264 0.535 c -0.683 0.128 -1.29 -0.36 -1.52 -0.969 0.586 -0.016 1.42 0.32 1.52 0.969 m 56.987 -1.19 c .194 0.96 1.40 0.64 1.75 -0.04 z
  m22.26,0.03 c -0.02 1.08 -0.40 2.27 -0.79 3.26 -0.28 0.71 -0.41 1.30 -0.99 1.78 -0.45 0.37 -1.16 0.55 -1.70 0.76 -2.22 0.87 -4.55 1.43 -6.87 1.91 -0.36 -1.81 2.53 -0.77 2.70 -2.31 -0.92 -0.01 -3.23 0.91 -3.26 -0.68 0.98 0.06 2.06 -0.48 2.96 -0.82 0.98 -0.36 1.94 -0.76 2.91 -1.13 0.87 -0.33 1.67 -0.92 2.47 -1.39 0.80 -0.48 1.61 -1.22 2.56 -1.38
  M78.32,60.83 c 3.31 1.52 7.24 2.39 10.82 3.02 -0.44 1.45 -2.58 0.84 -3.74 0.83 0.36 0.86 0.96 0.86 1.81 0.90 0.42 0.02 0.99 -0.11 1.28 0.22 0.29 0.32 0.45 0.62 0.46 1.06 -2.52 0.05 -4.90 -0.66 -7.34 -1.23 -1.03 -0.24 -2.43 -0.51 -2.92 -1.55 -0.37 -0.78 -0.96 -2.47 -0.37 -3.24
  m-56.69 3.44 c 0.20 0.97 -1.77 0.86 -2.44 0.98 -1.01 0.18 -1.95 -0.04 -2.94 -0.11 -0.21 -0.02 -0.12 -0.52 -0.12 -0.70 -0.00 -0.12 0.48 -0.07 0.58 -0.07 l 1.90 -0.04 c 0.98 -0.02 2.09 -0.5 3.02 -0.06
  m69.01 -0.34 c 0.53 -0.04 1.28 0.26 1.38 0.87 0.10 0.60 -0.49 1.50 -1.09 1.57 -0.67 0.08 -1.15 -0.41 -1.23 -1.03 -0.10 -0.78 0.36 -1.04 0.94 -1.42
  m -69.66 40.86 c -0.53 0.08 -1.02 -0.23 -1.51 -0.40 -0.59 -0.2 -1.10 -0.24 -1.71 -0.28 -0.189 -0.01 -1.29 0.09 -1.29 -0.03 l -0.04 -1.97 a8261.4,8261.4 0,0,0 -0.07,-3.48 c -0.02 -1.06 0.14 -2.08 0.17 -3.13 0.05 -2.26 -0.08 -4.54 -0.12 -6.81 -0.04 -2.08 0.16 -4.13 0.12 -6.22 l -0.08 -3.83 c -0.02 -1.02 0.19 -2.01 0.19 -3.03 -0.01 -2.28 -0.10 -4.57 -0.14 -6.85 -0.02 -1.18 -0.22 -2.2 1.2 -2.42 1.42 -0.26 1.91 0.73 2.04 1.91 0.11 1.04 0.08 2.06 0.22 3.09 0.15 1.11 0.14 2.24 0.17 3.36 l 0.07 3.42 c 0.02 1.08 0.29 2.17 0.32 3.27 0.03 1.09 0.05 2.18 0.07 3.28 0.02 1.05 0.33 2.08 0.29 3.12 -0.10 2.25 0.12 4.44 0.17 6.70 0.02 0.96 0.27 2.03 0.15 2.97 -0.14 1.07 0.18 2.27 -0.13 3.31 -0.20 0.68 -0.83 1.25 -0.78 2.02 0.05 0.71 0.61 1.30 0.73 1.99
  m81.19 -39.71 c 0.43 0.22 0.15 0.90 0.03 1.25 -0.20 0.56 -0.47 0.75 -0.95 1.05 -0.75 0.47 -1.78 0.66 -2.634 0.85 -0.93 0.20 -1.86 0.36 -2.80 0.54 -0.69 0.13 -1.94 0.57 -2.62 0.36 -0.35 -0.11 -1.08 -0.23 -0.67 -0.72 0.44 -0.52 0.64 -0.60 1.29 -0.82 0.94 -0.31 1.91 -0.53 2.87 -0.80 1.82 -0.50 3.64 -1.39 5.49 -1.71
  m-80.48 1.94 c 0.22 1.11 0.30 2.16 0.32 3.29 0.02 1.02 0.28 2.00 0.31 3.02 0.03 1.15 0.05 2.30 0.08 3.45 0.02 1.11 0.28 2.20 0.31 3.31 0.03 1.14 0.06 2.29 0.08 3.44 0.02 1.15 0.28 2.28 0.32 3.43 0.08 2.16 0.34 4.27 0.38 6.44 0.04 2.08 0.62 4.30 0.30 6.37 -0.09 0.58 -0.15 1.09 -0.14 1.68 0.00 0.14 -0.50 0.04 -0.50 0.06 l -0.01 -0.54 -0.10 -4.52 c -0.09 -4.18 -0.67 -8.31 -0.76 -12.48 l -0.10 -4.67 c -0.03 -1.36 -0.30 -2.68 -0.35 -4.04 -0.06 -1.40 -0.29 -2.76 -0.32 -4.17 l  -0.05 -2.40 c -0.01 -0.55 -0.135 -1.187 0.215 -1.65
  m-1.245 0.276 c 0.02 1.113 0.24 2.144 0.31 3.24 0.07 1.03 -0.08 2.12 0.09 3.13 0.38 2.23 0.21 4.48 0.55 6.71 0.36 2.33 0.17 4.88 0.22 7.23 l 0.06 3.01 c 0.02 1.04 0.29 2.05 0.32 3.10 0.03 1.25 0.03 2.44 0.27 3.67 0.23 1.17 0.107 2.48 -0.12 3.63 -0.70 -0.42 -0.54 -1.84 -0.55 -2.53 l -0.09 -4.14 c -0.05 -2.15 -0.34 -4.27 -0.38 -6.42 -0.09 -4.43 -0.42 -8.80 -0.53 -13.23 -0.03 -1.24 -0.30 -2.44 -0.32 -3.69 -0.02 -0.96 -0.45 -2.92 0.17 -3.72
  m58.99 -1.24 c 1.94 0.35 3.79 0.97 5.73 1.32 1.06 0.19 2.12 0.38 3.18 0.57 0.34 0.06 1.01 0.12 1.27 0.40 0.31 0.33 0.31 0.93 -0.16 1.05 -0.99 0.24 -1.96 0.04 -2.97 0.038 -0.98 -0.01 -1.96 -0.18 -2.93 -0.35 -1.01 -0.18 -2.12 -0.29 -3.07 -0.68 -0.82 -0.36 -1.50 -1.46 -1.05 -2.34
  M54.52 82.58 c -1.36 -1.87 -2.76 -3.48 -4.89 -4.48 a13.84,13.84 0,0,0 -3.12,-1.06 c -0.55 -0.12 -1.06 -0.24 -1.62 -0.25 -0.42 -0.01 -1.36 -0.08 -1.58 -0.48 -0.43 -0.79 0.31 -2.39 0.52 -3.20 0.27 -1.04 0.58 -2.09 0.99 -3.09 0.20 -0.50 0.45 -0.98 0.66 -1.48 0.07 -0.16 0.26 -1.31 0.28 -1.32 0.90 -0.38 1.96 -0.22 2.88 0.07 3.24 1.01 5.77 3.67 7.47 6.48 0.84 1.38 1.75 3.10 1.31 4.73 -0.22 0.81 -0.80 1.58 -1.25 2.28 -0.41 0.65 -0.80 1.62 -1.65 1.78
  M44.47 68.54 c -0.22 1.55 -1.19 3.04 -1.66 4.54 -0.55 -0.65 -0.30 -2.17 -0.31 -2.96 -0.01 -0.23 0.10 -0.50 0.16 -0.72 0.10 -0.42 0.10 -0.25 0.49 -0.32 0.47 -0.09 0.86 -0.42 1.32 -0.54
  m47.00 -0.73 c 0.08 0.93 0.28 1.62 0.55 2.49 l -1.50 0.03 c 0.11 -0.54 0.23 -1.06 0.22 -1.61 -0.01 -0.52 0.15 -1.00 0.73 -0.91
  m-4.44 2.84 c -0.31 0.84 -1.10 1.51 -1.57 2.28 -0.62 1.01 -1 1.89 -1.39 3.01 -0.67 1.90 -0.60 3.77 -0.56 5.75 0.04 1.78 0.38 3.89 0.99 5.58 0.36 1.01 0.82 2.00 1.37 2.92 0.44 0.73 1.35 1.56 1.37 2.47 -0.96 0.06 -2.08 0.31 -3.04 0.20 -0.52 -0.06 -1.11 0.06 -1.33 -0.48 -0.21 -0.52 -0.26 -1.07 -0.36 -1.63 -0.18 -1.07 -0.10 -2.17 -0.16 -3.25 -0.06 -1.04 -0.27 -2.02 -0.30 -3.07 -0.03 -1.13 -0.28 -2.20 -0.33 -3.32 -0.05 -1.11 -0.21 -2.25 -0.41 -3.34 -0.38 -2.04 -0.72 -4.09 -1.06 -6.14 -0.03 -0.19 -0.43 -2.17 0.10 -2.08 0.74 0.13 1.47 0.35 2.22 0.49 1.48 0.28 2.97 0.36 4.45 0.60
  m5.99 -0.38 c 1.11 0.35 2.18 0.75 3.02 1.58 0.75 0.73 1.22 1.85 1.65 2.78 0.88 1.92 1.26 4.24 1.30 6.33 0.02 1.08 -0.07 2.11 -0.18 3.19 -0.10 0.99 -0.16 2.10 -0.45 3.05 -0.28 0.94 -0.66 2.27 -1.34 3.01 -0.67 0.73 -1.56 1.90 -2.64 2.03 a1.74,1.74 0,0,1 -0.4,0.01 c 0.46 -0.81 1.43 -1.26 1.95 -2.07 0.66 -1.01 1.13 -1.87 1.54 -3.01 0.70 -1.94 1.07 -4.05 0.85 -6.11 -0.21 -1.91 -0.17 -4.16 -1.10 -5.92 -0.56 -1.06 -1.07 -1.93 -1.89 -2.8 -0.71 -0.75 -1.70 -1.27 -2.56 -1.82 0.08 -0.08 0.15 -0.20 0.24 -0.26
  m-4.48 0.84 c -0.60 0.79 -1.31 1.45 -1.86 2.28 a11.21,11.21 0,0,0 -1.29,2.60 c -0.63 1.88 -0.62 4.16 -0.41 6.12 0.19 1.81 0.34 3.91 1.17 5.58 0.84 1.67 1.92 3.75 3.83 4.39 -0.71 0.69 -2.04 -0.43 -2.54 -0.90 -0.92 -0.87 -1.34 -1.70 -1.90 -2.82 -0.90 -1.81 -1.23 -4.26 -1.27 -6.26 -0.05 -2.07 -0.34 -4.134 0.29 -6.16 0.55 -1.77 1.91 -4.48 3.98 -4.83
  m1.76 0.28 c 0.90 -0.06 2.39 -0.35 3.20 0.13 1.16 0.67 1.82 1.27 2.51 2.43 a9.61,9.61 0,0,1 1.14,2.87 c 0.24 1.10 0.19 2.20 0.40 3.30 0.40 2.03 0.25 4.38 -0.38 6.36 a19.05,19.05 0,0,1 -1.37,3.22 c -0.52 0.97 -1.75 1.42 -2.71 1.73 -2.23 0.72 -4.43 -0.63 -5.58 -2.44 -1.21 -1.90 -1.54 -4.09 -1.97 -6.26 -0.39 -1.97 -0.02 -4.38 0.46 -6.30 0.57 -2.26 1.66 -4.17 3.98 -4.92 z
  m-0.20 14.44 c -1.35 -0.01 -1.84 1.76 -1.10 2.72 0.16 0.22 0.48 0.27 0.70 0.43 0.33 0.23 0.43 0.44 0.62 0.80 0.08 0.14 0.045 0.72 0.13 0.79 0.11 0.10 0.83 -0.01 1.00 -0.02 0.81 -0.07 1.13 -0.18 1.59 -0.85 0.34 -0.49 1.20 -0.84 1.38 -1.38 0.23 -0.70 0.28 -1.28 -0.11 -1.93 -0.34 -0.57 -1.07 -0.63 -1.24 -1.38 1.96 -0.30 3.96 -2.61 3.22 -4.62 -0.20 -0.53 -0.40 -1.05 -0.80 -1.46 -0.12 -0.12 -0.35 -0.30 -0.52 -0.36 -0.41 -0.13 -0.24 -0.26 -0.10 -0.60 0.20 -0.48 1.34 -2.57 0.49 -3.01 -0.12 -0.06 -0.52 0.14 -0.65 0.20 -0.27 0.13 -0.61 0.12 -0.90 0.15 -0.61 0.07 -1.02 -0.66 -1.39 -1.05 -0.25 -0.26 -0.93 -0.68 -1.22 -0.43 -0.49 0.44 -0.90 0.91 -1.38 1.36 -0.63 0.59 -2.32 -0.60 -2.60 0.56 -0.13 0.55 0.04 1.04 0.15 1.59 0.10 0.49 0.71 0.83 0.59 1.40 -0.14 0.69 -0.71 1.29 -0.97 1.95 -0.20 0.52 -0.23 1.64 0.02 2.14 0.34 0.70 0.81 1.20 1.51 1.55 0.65 0.33 1.54 0.57 1.57 1.44
  m1.76 -11.29 c 0.25 0.37 0.50 1.24 0.83 1.48 0.40 0.29 0.53 0.47 1.00 0.39 0.32 -0.05 0.63 -0.15 0.95 -0.17 -0.40 2.88 -6.61 2.96 -6.75 -0.11 0.94 0.00 1.67 0.67 2.52 0.95 0.18 -0.88 0.34 -2.34 1.45 -2.53
  M53.82 84.85 c -1.04 0.01 -1.74 -1.23 -2.36 -1.92 -0.85 -0.93 -1.60 -1.62 -2.69 -2.26 -0.98 -0.57 -1.95 -0.83 -3.03 -1.12 -0.41 -0.11 -0.91 -0.22 -1.34 -0.23 -0.23 -0.01 -1.59 0.12 -1.70 0.00 -0.39 -0.44 0.42 -1.02 0.68 -1.16 0.60 -0.32 1.08 -0.24 1.76 -0.23 0.96 0.02 2.22 0.20 3.12 0.54 2.31 0.87 3.78 2.14 5.25 4.10 0.52 0.69 0.44 1.49 0.32 2.27
  M58.45 79.00 c 1.12 2.01 -0.36 4.04 -1.22 5.84 -1.00 2.10 -2.27 3.98 -3.44 5.98 -2.20 3.77 -4.86 7.33 -7.45 10.83 -1.29 1.74 -2.58 3.63 -4.25 5.02 -0.65 0.55 -2.25 1.22 -1.71 -0.29 0.33 -0.93 1.15 -1.53 1.74 -2.31 2.71 -3.59 5.24 -7.26 7.77 -10.99 1.51 -2.24 2.89 -4.65 4.20 -7.02 0.67 -1.21 1.61 -2.29 2.21 -3.52 0.55 -1.13 1.16 -2.72 2.15 -3.54
  m33.26 0.13 c 1.29 -0.00 1.89 0.52 2.03 1.88 0.06 0.59 -0.05 0.96 -0.46 1.32 -0.36 0.32 -0.92 1.06 -1.43 1.08 -0.68 0.02 -0.98 -0.24 -1.56 -0.60 -0.53 -0.32 -0.57 -0.84 -0.78 -1.42 -0.33 -0.94 1.49 -2.07 2.19 -2.26
  M46.48 80.75 c 0.123 0.588 -0.27 0.66 -0.677 0.94 -0.47 0.32 -0.949 0.637 -1.426 0.95 -0.386 0.256 -0.79 0.547 -1.22 0.72 -0.50 0.20 -0.87 0.45 -0.88 -0.23 -0.01 -0.39 0.11 -0.98 0.22 -1.35 0.23 -0.84 0.27 -0.86 1.07 -1.20 0.78 -0.34 2.12 -0.06 2.91 0.17
  m47.57 2.76 c 0.07 -0.68 0.38 -1.33 0.42 -2.01 0.05 -0.76 -0.29 -1.49 -0.26 -2.24 2.14 0.26 1.86 3.97 -0.16 4.26
  M88.97 79.86 l 0.05 2.21 c 0.01 0.60 0.44 1.19 0.54 1.78 a2.56,2.56 0,0,1 -1.04,-0.50 c -0.60 -0.49 -0.61 -0.66 -0.77 -1.43 -0.2 -0.98 0.10 -1.87 1.23 -2.05
  m2.56 0.45 l -0.39 1.17 c -0.11 0.33 0.86 0.31 1.03 0.33 0.11 0.02 0.35 -1.03 0.40 -1.18 0.13 -0.45 -0.87 -0.32 -1.03 -0.32
  M48.25 93.47 c -0.10 -2.19 -0.34 -4.35 -0.39 -6.56 l -0.07 -3.49 c -0.03 -1.29 0.55 -1.98 1.79 -1.19 0.91 0.59 1.70 1.47 2.24 2.41 0.69 1.20 0.87 1.93 0.21 3.16 -0.52 0.96 -1.07 1.91 -1.62 2.86 -0.45 0.79 -1.03 2.01 -1.75 2.58 -0.12 0.10 -0.24 0.19 -0.41 0.23
  m-1.48 -10.97 c 0.48 0.85 0.30 2.16 0.32 3.10 l 0.07 3.21 c 0.02 1.16 -0.01 2.323 0.08 3.48 0.08 1.04 0.46 2.30 -0.07 3.26 -0.49 0.88 -1.67 -1.63 -1.66 -2.05 0.02 -1.16 -0.05 -2.31 -0.08 -3.46 -0.02 -1.10 -0.08 -2.22 -0.04 -3.32 0.03 -0.86 -0.05 -2.50 0.34 -3.26 0.21 -0.41 0.54 -0.87 1.04 -0.96
  m13.00 -0.27 c 0.73 0.98 0.95 2.56 1.32 3.72 0.44 1.38 0.73 2.81 1.20 4.17 0.38 1.10 1.09 2.85 0.74 3.98 -0.33 1.05 -1.01 3.01 -2.20 3.36 -0.05 -1.02 -0.36 -2.11 -0.15 -3.12 0.19 -0.923 0.80 -2.24 0.65 -3.18 -0.11 -0.71 -0.02 -1.06 -0.65 -1.41 -0.45 -0.26 -0.96 0.93 -1.06 1.19 -0.38 1.02 0.08 2.06 0.11 3.09 0.03 1.10 0.19 2.17 0.23 3.27 0.05 1.16 -0.10 2.32 -0.09 3.49 0.03 2.17 -0.64 4.29 -1.55 6.24 a74.49,74.49 0,0,1 -4.91,8.90 c -0.87 1.35 -1.76 2.72 -2.76 3.98 -0.96 1.20 -2.16 2.89 -3.54 3.61 -0.36 -0.70 -0.39 -1.53 -0.61 -2.27 -0.29 -0.98 -0.55 -1.97 -0.85 -2.95 -0.30 -0.96 -0.64 -1.91 -0.94 -2.87 -0.25 -0.79 -0.90 -1.74 -0.82 -2.60 1.03 0.02 2.02 0.20 3.06 0.21 1.15 0.01 2.20 -0.36 3.28 -0.74 2.08 -0.74 3.69 -2.07 5.05 -3.79 0.71 -0.91 1.35 -1.84 1.89 -2.86 0.58 -1.10 0.82 -2.16 1.06 -3.37 0.39 -1.98 0.65 -4.21 0.15 -6.19 -0.31 -1.24 -0.63 -2.68 -1.24 -3.80 -0.49 -0.90-1.68 -2.40 -1.10 -3.48 0.63 -1.17 1.31 -2.31 1.90 -3.50 0.46 -0.94 0.93 -2.44 1.82 -3.05
  M44.55 84.04 c 0.16 1.29 0.06 2.63 0.08 3.94 l 0.11 5.31 c -1.25 -0.21 -2.46 -1.40 -3.54 -2.023 a21.50,21.50 0,0,0 -2.00,-1.04 c -0.24 -0.11 -0.65 -0.17 -0.83 -0.35 -0.34 -0.33 -0.49 0.00 -0.35 -0.59 0.15 -0.63 0.91 -1.17 1.33 -1.60 0.44 -0.45 0.91 -0.86 1.40 -1.25 1.05 -0.83 2.37 -2.30 3.795 -2.38
  m49.32 2.97 c -0.19 0.59 -0.64 0.96 -1.07 1.37 -0.37 0.36 -0.56 0.88 -0.95 1.25 -0.55 0.52 -0.75 -0.44 -0.94 -0.80 -0.31 -0.58 -0.58 -0.72 -1.12 -1.04 -0.75 -0.45 -0.34 -0.72 0.28 -1.11 0.48 -0.30 0.86 -0.93 1.22 -1.36 0.43 -0.51 0.99 0.42 1.24 0.70 0.41 0.45 0.81 0.71 1.34 1.00
  m-57.92 4.71 c 0.71 -2.32 4.02 -0.05 5.18 0.60 0.93 0.51 1.82 1.08 2.62 1.77 0.49 0.42 2.00 1.53 2.03 2.23 0.01 0.21 0.19 1.29 -0.32 1.19 -0.58 -0.12 -0.81 -0.30 -1.24 -0.737 -0.77 -0.78 -1.56 -1.58 -2.48 -2.19 -1.73 -1.16 -3.65 -2.59 -5.78 -2.86
  m19.23 -0.90 c 1.72 0.83 2.50 4.06 2.60 5.85 0.12 2.27 0.06 4.50 -0.49 6.72 -1.10 4.40 -4.66 7.73 -9.04 8.70 -2.01 0.45 -4.74 -0.08 -5.98 -1.82 -0.22 -0.30 -0.58 -0.70 -0.51 -1.08 0.16 -0.85 0.11 -0.97 0.99 -0.87 0.99 0.11 2.10 0.81 3.08 1.10 0.98 0.29 2.05 0.45 3.08 0.30 1.25 -0.19 2.21 -0.78 3.29 -1.42 0.94 -0.56 1.60 -1.63 2.26 -2.47 0.69 -0.89 1.11 -1.83 1.42 -2.90 0.59 -2.03 0.64 -4.35 0.12 -6.38 -0.28 -1.09 -0.77 -2.11 -1.33 -3.07 -0.19 -0.33 -0.64 -0.87 -0.49 -1.26 0.28 -0.76 0.30 -1.02 1.02 -1.40
  M34.00 93.76 c 1.07 -2.08 4.31 -0.25 5.73 0.5.88 0.46 1.78 1.23 2.54 1.88 0.44 0.38 0.86 0.75 1.26 1.17 0.49 0.52 0.59 0.91 0.80 1.60 0.10 0.32 -0.62 0.94 -0.94 0.90 -0.38 -0.04 -0.87 -0.70 -1.12 -0.94 -0.87 -0.83 -1.72 -1.61 -2.69 -2.32 -1.73 -1.27 -3.63 -1.91 -5.56 -2.79
  m19.25 -0.23 c 1.10 -0.18 1.13 1.93 0.90 2.56 -0.16 0.44 -0.58 0.93 -0.98 1.17 -0.38 0.23 -1.12 0.68 -1.08 1.22 0.04 0.50 0.87 0.46 1.21 0.48 0.88 0.05 0.95 0.25 1.54 0.92 0.58 0.67 0.59 2.13 0.10 2.86 -0.71 1.05 -1.71 0.91 -2.74 0.39 -0.51 -0.26 -1.08 -0.41 -1.08 0.30 -0.00 0.47 0.46 1.02 0.69 1.42 0.63 1.12 -0.38 2.20 -0.92 3.10 -0.63 1.05 -2.08 -0.07 -2.50 -0.69 -0.43 -0.64 0.14 -2.56 -0.81 -2.80 -0.37 -0.09 -0.77 0.63 -0.79 0.95 -0.04 0.71 -0.16 1.15 -0.40 1.82 -0.18 0.46 -0.52 0.80 -1.07 0.81 -0.36 0.01 -1.33 -0.26 -1.51 -0.58 -0.44 -0.75 -0.28 -0.82 0.10 -1.61 0.21 -0.44 0.67 -0.81 1.00 -1.17 0.38 -0.42 0.81 -0.70 1.29 -1.02 0.35 -0.24 1.13 -0.11 1.53 -0.17 0.83 -0.13 2.22 -0.68 2.46 -1.57 l 0.56 -2.11 c 0.14 -0.52 -0.04 -0.86 -0.13 -1.39 -0.20 -1.16 0.57 -2.21 1.18 -3.15 0.45 -0.69 0.79 -1.26 1.47 -1.73
  m-21.19 3.02 c 1.26 -4.00 9.58 1.74 10.40 4.10 0.24 0.69 0.42 0.91 -0.03 1.50 -0.43 0.55 -1.08 -0.03 -1.53 -0.26 -0.35 -0.18 -0.70 -0.73 -0.99 -1.00 -0.47 -0.44 -0.97 -0.86 -1.45 -1.28 -1.60 -1.41 -3.79 -2.37 -5.82 -2.90 l  -0.568 -0.149
  m-2.66 4.31 c 0.10 -1.01 0.88 -2.07 1.66 -2.65 1.03 -0.77 2.06 -0.24 3.19 0.12 2.04 0.65 4.17 2.16 5.63 3.70 0.82 0.86 1.27 1.76 0.52 2.86 -0.79 1.15 -1.80 0.76 -2.70 0.03 -1.78 -1.46 -3.64 -2.56 -5.85 -3.21 -0.82 -0.24 -1.74 -0.36 -2.46 -0.84
  m20.21 -1.92 c 0.896 1.59 -0.58 3.20 -2.07 3.52 -0.87 0.19 0.37 -1.65 0.50 -1.82 0.46 -0.64 0.90 -1.28 1.58 -1.70
  M38.28 130.93 c -0.15 -1.11 -0.05 -2.22 -0.07 -3.34 -0.02 -1.04 0.18 -2.08 0.04 -3.10 -0.27 -2.08 -0.30 -4.20 -0.52 -6.30 -0.46 -4.26 -0.67 -9.13 -5.00 -11.33 -1.32 -0.67 -2.54 -1.27 -3.74 -2.15 -0.94 -0.69 -2.44 -1.52 -3.06 -2.53 0.91 -0.40 2.10 -0.26 3.06 -0.18 1.08 0.08 2.18 0.39 3.20 0.74 1.89 0.65 4.14 1.78 5.54 3.22 1.57 1.61 3.00 3.30 4.06 5.30 1.03 1.94 2.22 3.95 2.80 6.07 a83.35,83.35 0,0,1 1.12,4.26 c 0.17 0.70 0.39 1.52 0.35 2.24 -0.05 1.00 -0.22 1.33 -0.86 2.11 -0.85 1.04 -2.34 1.83 -3.42 2.64 -0.98 0.73 -2.25 2.32 -3.55 2.35
  m-12.31 -26.50 c 0.12 -0.25 0.28 -0.47 0.23 -0.76 1.11 -0.00 2.06 0.92 2.86 1.60 0.84 0.72 1.24 1.90 1.75 2.84 0.54 0.99 1.00 2.05 1.049 3.19 0.05 1.16 -0.31 2.14 -0.43 3.26 1.41 -1.70 1.00 -4.02 0.26 -5.94 -0.17 -0.43 -0.58 -1.13 -0.23 -1.49 0.30 -0.31 1.21 0.50 1.44 0.71 0.72 0.66 1.00 1.90 1.17 2.83 0.39 2.12 0.45 4.25 0.10 6.38 -0.18 1.08 -0.32 2.24 -0.73 3.25 -0.16 0.4 -0.29 1.08 -0.68 1.32 -0.29 0.18 -1.14 0.96 -1.34 0.31 -0.53 -1.81 -0.20 -4.02 -2.18 -5.07 0.49 0.88 1.74 1.99 1.46 3.10 -0.22 0.87 -0.38 1.25 -0.94 1.95 -0.38 0.48 -1.31 0.49 -1.90 0.48 0.16 -0.59 0.46 -1.13 0.46 -1.76 -0.36 0.25 -0.31 0.81 -0.75 0.69 -0.42 -0.11 -0.85 -0.21 -1.25 -0.40 -0.14 0.55 0.12 0.99 0.28 1.49 l -1.00 0.02 c 0.17 -0.80 -0.37 -1.54 -0.47 -2.31 -0.11 -0.83 -0.36 -1.72 -0.28 -2.54 0.08 -0.80 0.32 -1.58 0.41 -2.38 0.09 -0.78 0.52 -1.36 0.91 -2.02 -0.94 -0.21 -1.40 -1.37 -1.52 -2.20 -0.14 -1.01 -0.42 -2.02 -0.09 -3.02 0.69 0.39 1.11 1.08 1.78 1.46 -0.3 -0.62 -0.72 -1.18 -0.99 -1.81 -0.33 -0.75 -0.56 -1.38 -1.31 -1.78 -1.09 -0.60 -3.02 -1.32 -3.08 -2.80 0.96 0.12 1.67 0.33 2.66 0.25 1.12 -0.09 1.87 0.04 2.37 1.14
  m-5.44 3.12 c -0.86 -0.11 -1.80 -0.62 -2.63 -0.32 -0.89 0.33 -1.67 0.92 -2.60 1.18 0.49 0.77 0.51 1.15 0.46 2.08 -0.04 0.77 -1.13 0.92 -1.55 0.35 -0.92 -1.27 -1.73 -2.80 -0.55 -4.14 0.90 -1.02 2.88 -1.66 4.21 -1.75 1.03 -0.07 1.45 0.30 2.34 0.84 0.48 0.29 0.54 1.30 0.31 1.76
  m42.69 -3.40 c 0.05 2.36 -0.37 4.67 0.15 7.00 0.56 -0.86 0.70 -2.25 0.68 -3.26 0.59 0.63 0.30 2.41 0.32 3.22 0.01 0.50 0.03 1.02 -0.00 1.52 -0.03 0.46 -0.28 1.06 -0.18 1.50 0.55 -0.912 0.52 -1.98 0.69 -3.02 0.74 0.734 0.54 2.30 0.57 3.24 0.49 -0.79 0.42 -1.61 0.45 -2.51 0.50 0.39 0.38 1.13 0.36 1.69 -0.03 0.66 0.18 1.39 0.22 2.05 0.34 -0.60 0.44 -1.33 0.46 -2.01 0.34 0.38 0.27 1.01 0.28 1.48 l 0.03 1.40 c 0.01 0.32 0.61 -0.08 0.75 -0.15 -0.04 1.04 -0.04 1.90 -0.39 2.88 -0.35 1.00 -0.68 2.01 -1.02 3.02 -0.16 0.48 -0.14 0.71 -0.71 0.52 -0.49 -0.17 -0.98 -0.31 -1.48 -0.47 -0.40 -0.12 -1.08 0.07 -1.50 0.10 -0.48 0.04 -1.06 -0.22 -1.54 -0.30 a14.30,14.30 0,0,1 -2.77,-0.74 c -0.96 -0.36 -1.80 -0.54 -2.83 -0.51 -2.14 0.08 -3.86 1.28 -5.90 1.62 0.29 -0.70 2.57 -3.57 3.20 -2.57 0.08 -0.43 0.15 -0.86 0.20 -1.29 0.09 -0.75 0.33 -0.40 0.78 0.02 -0.10 -0.44 0.15 -1.06 0.22 -1.50 0.254 0.16 0.49 0.34 0.76 0.48 -0.01 -0.64 0.07 -1.13 0.21 -1.76 0.24 0.22 0.33 0.47 0.52 0.74 0.48 -1.01 0.40 -2.20 0.68 -3.26 0.24 0.34 0.23 0.80 0.25 1.21 0.01 0.15 -0.06 0.95 0.05 1.04 0.50 0.39 0.49 -0.31 0.49 -0.53 -0.03 -1.25 0.20 -2.47 0.17 -3.73 0.31 0.35 0.36 0.92 0.44 1.37 0.05 0.26 0.09 0.50 0.10 0.77 0.02 0.25 0.51 0.16 0.50 -0.22 -0.027 -1.25 0.16 -2.44 0.17 -3.69 0.58 0.66 0.3 2.43 0.32 3.22 0 0.03 0.50 0.07 0.5 -0.03 l -0.02 -0.96 c -0.01 -0.64 0.07 -1.13 0.21 -1.76 0.46 0.49 0.28 1.64 0.30 2.24 0.86 -1.70 0.67 -3.92 0.63 -5.76 0.46 0.50 0.28 1.61 0.30 2.24 0.02 0.89 0.07 1.64 0.30 2.49 0.32 -0.68 0.43 -1.47 0.43 -2.21 0.00 -0.95 0.23 -1.86 0.22 -2.80 0.54 0.58 0.30 2.15 0.31 2.890 l 0.05 2.22 c 0.00 0.23 0.22 0.12 0.42 0.12 0.16 -0.00 0.06 -0.69 0.06 -0.85 -0.02 -1.12 0.2 -2.28 0.18 -3.42 -0.02 -0.91 -0.2 -2.23 0.44 -3.00
  m1.01 0.23 l 0.05 2.50 c -0.45 -0.52 -0.46 -1.95 -0.05 -2.50
  m-41.44 3.12 c -0.66 0.12 -1.37 -0.32 -1.52 -0.97 0.59 -0.02 1.42 0.32 1.52 0.97
  m0.73 -0.77 c 0.62 0.70 0.30 2.66 0.32 3.49 -0.52 -0.56 -0.71 -2.84 -0.32 -3.49
  m-1.93 3.54 c -0.46 0.09 -1.07 -0.12 -1.56 -0.13 -0.56 -0.01 -1.15 0.18 -1.69 0.32 -0.33 0.09 -1.47 0.57 -1.74 0.41 -0.38 -0.22 -0.24 -1.23 -0.19 -1.54 0.06 -0.43 0.78 -1.12 1.13 -1.36 0.63 -0.42 1.18 -0.26 1.84 -0.09 0.62 0.16 1.15 0.52 1.70 0.84 0.46 0.27 0.52 1.04 0.51 1.54
  m0.96 -1.77 l 0.03 1.30 0.01 0.68 c 0.00 0.03 -0.46 0.08 -0.50 0.04 -0.14 -0.14 -0.02 -1.10 -0.03 -1.30 -0.01 -0.57 -0.16 -0.76 0.48 -0.71
  m12.53 1.24 c 0.61 0.89 0.88 1.93 1.17 2.96 0.25 0.88 0.39 2.11 0.43 3.04 0.05 1.17 0.14 2.33 -0.13 3.48 -0.23 0.98 -0.61 2.28 -1.33 3.03 -0.34 0.35 -0.86 0.73 -1.37 0.73 -0.26 0 -0.46 -0.07 -0.69 -0.16 -0.15 -0.06 0.08 -0.40 0.13 -0.53 0.36 -0.97 0.72 -2.00 0.94 -3.00 0.46 -2.16 0.71 -4.28 0.66 -6.48 -0.02 -0.81 -0.34 -2.36 0.19 -3.05
  m-14.20 2.30 c 0.81 -0.57 1.22 -0.37 1.96 0.2 0.21 0.16 0.27 0.60 0.40 0.84 0.20 0.38 0.61 0.62 0.93 0.90 -0.47 0.40 -1.65 0.06 -2.23 0.06 -0.81 -0.00 -1.62 -0.29 -2.43 -0.19 -1.73 0.23 -3.25 1.29 -5.01 1.33 -0.13 0.00 -0.25 -1.03 -0.27 -1.15 -0.09 -0.48 0.09 -0.85 0.24 -1.32 0.20 -0.63 1.65 -0.93 2.21 -1.14 1.28 -0.47 3.70 -1.40 4.20 0.47
  m3.26 0.43 l 1.01 0.48 c -0.36 0.31 -1.38 0.07 -1.01 -0.48
  m6.76 0.36 c -0.31 0.61 -0.63 1.33 -0.71 2.02 0.60 -0.31 1.18 -1.42 0.71 -2.02
  m-1.24 0.28 c -0.15 0.61 -0.52 1.16 -0.71 1.77 0.60 -0.17 1.18 -1.24 0.71 -1.76
  m-2.99 0.31 l -0.24 0.50 c 0.64 0.12 0.65 -0.57 0.24 -0.50
  m1.03 1.23 a0.82,.82 0,0,0 0.73,-0.77 c -0.38 0.05 -0.67 0.40 -0.73 0.77
  M22.99 117 c -0.71 -0.03 -1.46 -0.20 -2.15 -0.20 -0.72 0.00 -1.44 0.44 -2.09 0.68 -0.81 0.31 -3.31 1.64 -4.07 0.97 -0.66 -0.58 -0.12 -1.40 0.12 -2.02 0.23 -0.58 1.18 -0.78 1.72 -0.92 1.46 -0.39 2.91 -0.65 4.42 -0.72 l 0.02 1.00 c 0.15 -0.35 0.84 -1.63 1.26 -0.86 0.33 0.61 0.74 1.36 0.77 2.06
  m1.71 -1.79 c -0.11 0.92 -1.73 0.72 -1.26 -0.22 0.37 0.09 0.87 0.31 1.26 0.22
  m-2.20 2.30 c -0.42 0.34 -0.98 0.27 -1.50 0.28 0.37 -0.34 1.03 -0.26 1.50 -0.28
  m-1.73 0.79 c -0.01 0.51 -0.14 1.01 -0.22 1.50 0.32 -0.52 0.42 -0.90 0.47 -1.51 1.07 0.39 1.67 0.73 2.29 1.70 -0.98 0.27 -2.01 0.19 -2.98 0.50 -1.07 0.35 -2.14 0.66 -3.25 0.88 -0.15 0.03 -0.50 -0.08 -0.50 0.09 0.01 0.40 -0.06 0.42 0.33 0.42 a9.02,9.02 0,0,0 1.88,-0.23 c 0.28 -0.06 1.32 -0.47 1.54 -0.34 0.30 0.18 0.25 1.09 0.24 1.37 -0.03 1.06 -0.85 1.99 -1.38 2.86 -0.54 0.90 -1.83 0.44 -2.41 -0.26 -0.33 -0.39 -0.36 -0.90 -0.40 -1.39 -0.02 -0.31 -0.01 -0.62 -0.02 -0.93 -0.01 -0.50 -0.09 -0.18 -0.47 -0.34 -0.62 -0.26 -0.71 -0.40 -0.99 -1.03 -0.18 -0.41 0.03 -1.25 0.31 -1.59 1.16 -1.44 3.84 -1.67 5.55 -1.71
  m3.51 0.43 c 0.04 0.23 0.11 0.50 -0.14 0.50 -0.12 0.00 -0.77 0.1 -0.84 0.02 -0.14 -0.15 -0.05 -0.5 0.15 -0.50 z
  m4.78 1.4 c -0.26 0.36 -0.35 0.76 -0.46 1.18 -0.14 0.55 0.04 0.53 0.49 0.56 0.50 0.04 0.81 0.06 0.95 -0.47 0.11 -0.41 0.13 -0.89 0.02 -1.30 -0.34 0.22 -0.64 0.19 -1.00 0.02
  m-4.49 0.59 l 0.04 2.00 c -0.40 -0.46 -0.42 -1.52 -0.04 -2.00
  m-2.44 2.80 c -0.41 0 -0.96 -0.24 -1.04 -0.68 -0.05 -0.29 -0.39 -1.56 -0.02 -1.80 0.50 -0.32 0.88 0.67 0.98 0.92 0.16 0.42 0.07 1.11 0.08 1.56
  m0.95 -2.27 l 0.07 3.25 c -0.36 -0.41 -0.37 -1.16 -0.48 -1.67 -0.08 -0.35 -0.08 -0.68 -0.08 -1.04 -0.01 -0.49 -0.07 -0.60 0.49 -0.53
  m14.00,-0.29 c 0.18 0.94 0.62 2.90 -0.94 2.69 -0.79 -0.11 -0.37 -0.71 -0.12 -1.21 0.27 -0.53 0.55 -1.13 1.06 -1.48
  m -9.49,0.67 c 0.03 0.34 -0.12 0.70 -0.48 0.76 0.14 -0.28 0.23 -0.56 0.48 -0.76
  m 28.9 6.90 c 0.49 -0.26 1.04 0.03 1.50 0.22 0.10 -0.37 -0.04 -1.17 -0.55 -1.21 -0.50 -0.04 -1.18 0.56 -1.30 1.00 -0.35 1.27 1.17 1.81 2.13 1.41 2.20 -0.91 2.36 -3.83 0.68 -5.33 -1.84 -1.64 -4.20 -0.94 -6.00 0.45 -0.44 0.34 -0.89 0.68 -1.34 1.01 -0.46 0.34 -0.96 0.46 -1.46 0.72 -0.97 0.51 -1.92 1.34 -3.05 1.08 -1.26 -0.29 -1.76 0.78 -2.81 1.20 -1.06 0.42 -1.74 1.06 -2.65 1.72 -0.99 0.72 -1.80 1.59 -2.81 2.28 -0.77 0.53 -1.30 1.52 -1.70 2.35 0.48 -0.30 0.84 -0.77 1.30 -1.10 0.24 -0.18 0.48 -0.18 0.77 -0.26 0.53 -0.13 0.24 0.15 0.54 -0.35 0.67 -1.09 1.69 -1.55 2.53 -2.49 0.48 -0.54 0.93 -0.44 1.56 -0.26 0.31 0.10 0.55 -0.67 0.77 -0.95 0.36 -0.47 0.78 -0.84 1.3 -1.13 0.71 -0.40 0.69 0.26 0.86 0.83 0.53 -0.27 0.96 -0.73 1.42 -1.1 0.56 -0.44 1.24 -0.70 1.88 -0.99 0.15 -0.07 0.62 -0.31 0.68 -0.18 0.11 0.25 0.20 0.49 0.22 0.76 0.04 0.57 0.18 0.42 0.73 0.41 0.34 -0.01 0.70 -0.11 1.03 -0.16 0.59 -0.10 1.37 0.29 1.67 0.77 0.32 0.47 0.25 1.49 -0.18 1.89 -0.32 0.29 -1.42 0.44 -1.70 -0.02 -0.41 -0.70 0.87 -0.77 1.23 -0.78 -1.31 -1.76 -3.95 -0.422 -5.638 0.13 -2.21 0.73 -4.14 1.965 -6.236 2.948 a40.02,40.02 0,0,0 -5.62,3.25 c -0.783 0.54 -1.99 1.04 -2.88 1.39 -1.09 0.44 -2.14 0.92 -3.19 1.44 -2.02 0.98 -4.16 1.59 -6.30 2.24 -0.47 0.14 -0.99 0.22 -1.34 -0.12 -0.277 -0.27 -0.86 -0.94 -0.39 -1.237 0.91 -0.57 2.04 -0.768 3.025 -1.21 1.026 -0.46 2.01 -1.01 3.10 -1.32 1.04 -0.30 2.14 -0.70 3.1 -1.20 1.88 -0.98 3.78 -2.16 5.52 -3.38 1.80 -1.26 3.45 -2.71 5.26 -3.97 1.75 -1.23 3.26 -2.79 5.08 -3.96 1.88 -1.21 3.80 -2.64 5.97 -3.29 1.00 -0.30 2.12 -0.62 3.17 -0.48 0.95 0.13 2.27 0.27 2.99 1.00 1.69 1.71 2.58 3.54 2.03 5.98 -0.18 0.81 -1.09 1.94 -1.91 2.21 -1.20 0.40 -2.02 0.62 -3.23 0.11 -0.85 -0.36 -1.09 -1.80 -1.31 -2.62 -0.15 -0.57 -0.09 -0.85 0.34 -1.25 0.6 -0.56 0.78 -0.61 1.59 -0.70 1.41 -0.17 1.66 1.13 1.91 2.15 0.034 0.15 -1.10 0.80 -1.27 0.92 -0.37 0.25 -0.96 -0.59 -1.04 -0.84
  m-27.12,-5.43 c 0.09 0.34 0.19 0.67 0.24 1.01 0.03 0.19 0.13 0.89 0.54 0.48 0.13 -0.14 0.01 -0.73 0.09 -0.95 a0.89,0.89 0,0,1 0.63,-0.56 c -0.12 0.78 0.35 1.98 0.56 2.74 0.38 -0.78 0.07 -1.85 0.70 -2.52 0.78 1.37 0.57 3.28 0.60 4.81 l 0.14 6.67 c -1.06 -0.19 -0.80 -2.46 -0.82 -3.21 -0.02 -0.9 0.14 -2.27 -0.81 -2.75 l 0.14 6.75 c -1.17 -0.25 -0.81 -2.88 -0.83 -3.73 -0.64 0.89 -0.71 1.77 -0.69 2.84 0.01 0.65 -0.03 1.11 -0.20 1.74 -0.12 0.46 -1.06 0.78 -1.43 0.96 -0.99 0.46 -2.02 0.87 -3.04 1.28 -1.06 0.42 -2.08 0.40 -3.18 0.64 -1.01 0.21 -2.04 0.40 -3.04 0.65 -1.04 0.26 -2.16 0.76 -3.23 0.85 -0.50 0.04 -1.08 0.06 -1.26 -0.41 -0.28 -0.74 -0.21 -1.13 -0.12 -1.93 0.07 -0.54 0.036 -1.10 0.04 -1.64 0 -0.47 0.19 -0.94 0.19 -1.41 -0.01 -1.98 0.04 -4.04 0.26 -6.02 0.11 -0.98 0.10 -1.95 0.18 -2.94 0.06 -0.82 -0.03 -1.79 0.35 -2.55 0.59 0.47 0.28 1.14 0.39 1.78 0.14 0.86 0.27 1.64 0.61 2.45 a5.45,5.45 0,0,0 1.36,1.94 c 0.59 0.53 1.23 1.04 1.20 1.89 -0.04 0.89 0.08 1.51 0.50 2.30 0.28 0.53 1.38 0.91 1.87 0.57 0.75 -0.51 1.37 -0.81 1.62 -1.71 0.20 -0.71 0.02 -1.46 0.36 -2.13 0.36 0.23 0.62 0.58 0.771.98 0.23 -0.38 0.42 -0.70 0.43 -1.16 0.00 -0.13 -0.06 -0.77 0.02 -0.84 0.07 -0.06 0.75 -0.02 0.75 0.03 0.02 0.91 -0.15 2.42 0.81 2.94 -0.03 -1.52 0.02 -3.06 -0.22 -4.56 -0.22 -1.42 0.07 -2.77 0.04 -4.19 0.63 0.22 0.68 1.13 1.28 1.47 -0.02 -0.76 0 -1.36 0.17 -2.10 0.17 -0.75 0.98 0.501 1.06 0.82 0.27 -0.54 0.20 -1.40 0.97 -1.27
  m32.16,7.33 c 0.15 -1.27 0.75 -2.39 0.66 -3.71 -0.08 -1.35 -0.67 -2.51 -1.07 -3.78 1.78 -0.10 2.92 1.76 2.89 3.38 -0.02 1.41 -0.51 4.32 -2.48 4.11
  m1.02,0.98 c 0.31 -0.66 0.88 -1.18 1.25 -1.82 0.48 -0.85 0.69 -1.70 0.82 -2.67 0.11 -0.76 -0.22 -1.70 -0.46 -2.42 -0.23 -0.72 -0.43 -2.10 0.72 -1.37 1.68 1.06 1.65 3.21 1.29 4.91 -0.21 0.97 -0.40 1.83 -1.15 2.57 -0.60 0.60 -1.64 1.00 -2.47 0.80
  m-28.67,-7.65 c 0.42 1.76 0.33 3.59 0.36 5.38 l 0.06 2.71 c 0.02 0.71 0.11 1.50 -0.20 2.15 -0.67 -0.45 -0.53 -1.54 -0.55 -2.24 l  -0.068 -3.236 c -0.02 -0.84 -0.01 -1.68 -0.12 -2.51 -0.07 -0.57 -0.52 -2.49 0.52 -2.26
  m-11.17,3.98 c 0.54 -0.34 0.87 -0.90 1.40 -1.25 0.11 -0.07 0.51 -0.42 0.60 -0.23 0.13 0.30 0.19 0.54 0.12 0.88 -0.07 0.32 -0.45 1.65 -0.66 1.85 -0.65 0.65 -1.06 0.88 -1.98 0.96 -0.67 0.06 -1.28 0.17 -1.93 0.32 -1.05 0.24 -1.27 0.15 -2.20 -0.41 -0.38 -0.22 -1.10 -1.36 -1.22 -1.79 -0.19 -0.65 -0.48 -1.30 -0.14 -1.95 0.87 0.45 1.59 1.29 2.29 1.95 0.08 -0.54 0.69 -3.80 1.71 -3.36 0.66 0.28 1.36 0.40 1.71 1.053 0.33 0.60 0.30 1.31 0.32 1.98
  m12.68,-3.52 c 0.65 2.77 0.37 5.91 0.43 8.74 -1.24 -0.15 -0.79 -3.45 -0.86 -4.31 -0.07 -0.83 0.02 -1.66 -0.04 -2.48 -0.04 -0.57 -0.45 -2.16 0.47 -1.96
  m-6.71,2.14 c -0.45 0.01 -1.34 -0.05 -1.53 0.49 -0.23 0.64 0.82 1.10 1.31 1.02 -0.06 0.41 -0.23 0.78 -0.42 1.15 -0.11 0.23 -0.60 0.87 -0.54 1.12 0.05 0.19 0.72 0.63 0.87 0.86 0.26 0.38 0.72 1.06 1.02 0.32 0.16 -0.40 0.46 -0.79 0.67 -1.17 0.150 -0.27 -0.12 -0.97 -0.17 -1.27 -0.13 -0.78 -0.53 -1.61 -0.97 -2.27 0.76 0.09 1.04 1.02 1.92 0.79 0.36 -0.09 0.48 -0.51 0.20 -0.83 -0.24 -0.27 -0.82 -0.23 -1.13 -0.23 0.10 -0.57 0.13 -1.25 -0.55 -1.24 -0.68 0.02 -0.74 0.68 -0.70 1.27
  m8.22,-1.42 c 0.54 0.96 0.30 2.48 0.32 3.54 0.02 0.77 0.40 3.23 -0.68 3.47 -0.03 -1.31 0.00 -2.64 -0.18 -3.94 -0.08 -0.62 -0.03 -1.18 -0.07 -1.8 -0.04 -0.61 -0.38 -1.43 0.60 -1.27
  m 18.27 0.62 c -0.27 0.43 -0.49 0.88 -0.83 1.26 -0.54 0.64 -0.80 0.67 -1.63 0.79 0.17 -1.11 1.51 -1.76 2.46 -2.05
  m-28.46,2.34 l 0.05 2.50 c 0.63 -0.53 1.05 -2.25 -0.05 -2.5
  m-4.63,5.85 c -0.67 -0.22 -1.21 -0.15 -1.90 -0.01 -0.81 0.16 -0.88 -1.06 -0.52 -1.57 0.85 -1.20 3.10 0.26 2.42 1.59
  m4.70,-2.35 c 0.01 0.60 0.01 1.16 0.13 1.75 0.11 0.53 -0.02 1.42 0.68 1.24 -0.02 -0.96 0.14 -2.41 -0.81 -2.98
  m34.78,1.02 c -0.56 -0.15 -1.61 -0.28 -1.77 -0.96 0.69 0.02 1.78 -0.02 1.77 0.96
  m-33.00,0.44 c -0.10 0.64 -0.15 1.09 -0.06 1.73 0.03 0.24 0.07 0.47 0.09 0.71 0.03 0.51 -0.06 0.56 0.46 0.55 0.17 -0.00 0.05 -1.50 0.04 -1.70 -0.01 -0.68 0.27 -1.35 -0.53 -1.28
  m17.75,-0.37 c 0.09 4.29 -1.01 8.49 -1.44 12.73 -0.22 2.12 -0.59 4.23 -0.84 6.35 -0.26 2.20 -0.48 4.51 -1.04 6.65 -0.69 2.64 -2.08 4.86 -3.49 7.17 -0.77 -0.43 -0.16 -2.20 -0.08 -2.90 0.14 -1.18 0.39 -2.34 0.42 -3.54 0.06 -2.03 0.67 -4.14 0.96 -6.15 0.63 -4.32 1.18 -8.66 1.80 -12.98 0.21 -1.43 0.30 -2.92 0.58 -4.33 0.16 -0.77 0.34 -1.44 0.97 -1.94 0.61 -0.48 1.38 -0.92 2.15 -1.06
  m8.00,-0.08 c 1.58 -0.17 3.00 -0.04 4.56 0.15 0.74 0.09 1.51 0.31 2.18 0.63 0.21 0.10 0.79 0.32 0.79 0.62 0.01 0.27 0.16 1.01 -0.34 0.98 -1.64 -0.11 -3.22 -0.79 -4.87 -1.00 -0.75 -0.10 -1.55 0.16 -2.29 0.04 -0.22 -0.04 -0.81 -0.18 -0.84 -0.48 -0.02 -0.26 0.54 -0.90 0.81 -0.93
  m-11.96,2.16 c 0.49 0.86 0.08 2.06 -0.08 2.97 -0.17 0.99 -0.27 2.04 -0.35 3.04 -0.17 2.13 -0.50 4.30 -0.83 6.41 -0.15 0.95 -0.06 2.00 -0.32 2.92 -0.30 1.06 -0.29 2.07 -0.47 3.14 -0.37 2.12 -0.42 4.29 -0.88 6.39 -0.47 2.16 -0.66 4.39 -1.00 6.58 -0.17 1.07 -0.71 2.15 -1.35 3.01 -0.52 0.69 -1.33 1.96 -2.20 2.19 -0.05 -2.24 0.38 -4.36 0.68 -6.57 0.29 -2.07 0.57 -4.14 0.86 -6.21 0.63 -4.41 1.26 -8.82 1.76 -13.25 0.11 -1.01 0.35 -2.02 0.55 -3.01 0.18 -0.91 0.08 -1.92 0.24 -2.83 0.20 -1.11 0.41 -2.12 0.78 -3.18 0.26 -0.75 1.90 -1.48 2.61 -1.61
  m4.76,0.40 c 0.07 3.18 0.02 6.38 -0.58 9.52 -0.29 1.52 -0.38 3.06 -0.71 4.57 -0.32 1.48 -0.89 2.96 -1.07 4.47 -0.82 -0.95 0.02 -3.19 0.14 -4.31 0.17 -1.62 0.52 -3.24 0.65 -4.86 0.13 -1.64 0.54 -3.27 0.70 -4.92 0.13 -1.27 0.01 -3.43 0.87 -4.46 m -8.46 1.93 c -0.01 2.25 -0.40 4.47 -0.63 6.71 -0.21 2.02 -0.81 4.11 -0.85 6.13 -0.03 1.15 -0.26 2.26 -0.50 3.39 -0.24 1.13 -0.29 2.33 -0.48 3.48 -0.35 2.12 -0.48 4.26 -0.88 6.37 -0.39 2.07 -0.54 4.18 -0.84 6.27 -0.15 1.01 -0.23 2.31 -0.82 3.17 -0.32 0.46 -0.58 0.98 -1.19 1.08 -0.44 0.07 -0.59 -0.57 -0.71 -0.99 -0.65 -2.26 -0.30 -4.21 0.14 -6.46 0.22 -1.14 0.24 -2.33 0.44 -3.48 0.17 -1.00 0.32 -2.07 0.44 -3.07 0.24 -2.05 0.74 -3.79 1.55 -5.69 0.79 -1.85 1.38 -3.74 1.96 -5.65 0.55 -1.81 1.05 -3.85 1.216 -5.742 0.088 -1.02 0.25 -2.027 0.39 -3.042 0.08 -0.61 -0.18 -2.67 0.76 -2.46
  m18.50 -0.39 c 0.29 1.25 0.30 2.46 0.33 3.74 0.60 -0.81 0.82 -1.98 1.70 -2.54 a9.59,9.59 0,0,1 -0.49 2.87 c -0.29 0.89 -1.66 0.87 -2.46 0.69 -0.53 -0.12 -1.06 -0.24 -1.60 -0.36 -0.39 -0.09 -0.47 -0.86 -0.55 -1.15 -0.25 -0.93 0.16 -2.01 0.33 -2.95 1.11 0.79 0.09 2.78 1.57 3.47 -0.02 -0.82 -0.10 -3.99 1.17 -3.78
  m-20.21,1.92 c -0.00 2.37 -0.49 4.66 -0.87 7.00 -0.19 1.16 -0.54 2.28 -0.84 3.42 -0.30 1.17 -0.61 2.37 -1.25 3.40 -0.31 -0.39 -0.1 -0.95 -0.08 -1.41 0.02 -0.68 0.07 -1.30 0.19 -1.98 0.23 -1.33 0.42 -2.66 0.58 -4.00 0.14 -1.22 0.37 -2.43 0.52 -3.64 0.15 -1.2 0.15 -2.80 1.76 -2.79
  m-6.59,19.64 c 0.70 -4.24 1.21 -8.57 1.70 -12.84 0.13 -1.09 0.18 -2.18 0.36 -3.26 0.15 -0.94 0.34 -2.4 1.22 -2.91 1.38 -0.79 1.11 1.24 1.11 1.96 -0.01 1.08 -0.14 2.14 -0.29 3.21 -0.32 2.38 -0.60 4.78 -1.02 7.15 -0.23 1.27 -0.39 2.56 -0.88 3.77 -0.41 1.00 -0.98 2.68 -2.20 2.92
  m1.62,-18.29 c 0.41 0.74 0.25 1.66 0.16 2.46 -0.11 0.94 -0.259 1.86 -0.36 2.8 -0.209 1.91 -0.58 3.85 -0.91 5.75 -0.32 1.83 -0.54 3.70 -0.79 5.54 -0.22 1.61 -0.30 3.90 -1.90 4.79 -0.08 -3.62 0.69 -7.41 1.31 -10.97 0.32 -1.86 0.53 -3.76 0.78 -5.63 0.20 -1.48 0.00 -4.13 1.71 -4.73
  m-18.16,4.63 c -0.18 -0.84 -0.55 -1.76 0.27 -2.33 0.62 -0.44 1.67 -0.53 2.40 -0.75 0.79 -0.24 1.57 -0.48 2.37 -0.68 0.61 -0.16 1.67 -0.56 2.23 -0.14 0.54 0.42 0.52 1.82 -0.08 2.12 -0.76 0.38 -1.57 0.58 -2.40 0.77 -1.58 0.37 -3.16 0.98 -4.79 1.01
  m16.43,-3.60 c -0.02 3.20 -0.74 6.36 -1.15 9.53 -0.21 1.59 -0.42 3.16 -0.69 4.74 a49.53,49.53 0,0,0 -0.39,2.65 c -0.08 0.64 -0.51 1.51 -0.37 2.14 -1.37 -0.37 -1.01 -3.26 -0.84 -4.26 0.31 -1.81 0.53 -3.63 0.82 -5.44 0.28 -1.72 0.58 -3.42 0.81 -5.14 0.18 -1.30 -0.06 -4.17 1.80 -4.22
  m-1.99,0.54 c 0.44 0.76 0.09 1.97 -0.05 2.79 -0.20 1.14 -0.31 2.29 -0.51 3.43 -0.39 2.23 -0.65 4.47 -1.04 6.69 -0.08 0.44 -0.11 0.89 -0.21 1.33 -0.17 0.72 -0.6 0.78 -0.80 0.03 -0.15 -0.58 -0.33 -1.06 -0.28 -1.65 0.06 -0.63 0.11 -1.26 0.16 -1.90 0.16 -2.12 0.69 -4.23 0.98 -6.34 0.05 -0.36 0.05 -0.72 0.06 -1.09 -0.55 1.10 -0.55 2.52 -0.76 3.72 -0.24 1.37 -0.43 2.73 -0.82 4.06 -0.61 -0.41 -0.86 -1.74 -0.78 -2.39 0.12 -0.95 0.26 -1.90 0.4 -2.85 0.13 -0.93 0.29 -1.86 0.45 -2.78 0.16 -0.90 0.26 -2.22 1.46 -2.258 l 0.04 2 c 0.52 -1.05 0.38 -2.32 1.69 -2.79
  m29.55 1.88 c -0.87 0.02 -3.20 0.08 -3.28 -1.18 0.86 -0.02 3.28 -0.06 3.28 1.18
  m-33.01,-0.31 c -0.04 1.97 -0.55 4.08 -0.88 6.02 -1.34 -0.24 -0.94 -2.28 -0.78 -3.18 0.20 -1.11 0.14 -2.86 1.65 -2.8
  m-1.99 0.54 c -0.025 0.59 0.10 1.60 -0.46 2.01 -0.32 -0.58 -0.55 -2.18 0.46 -2.01
  m9.56 14.80 c -0.16 1.93 -0.47 3.83 -0.70 5.74 -0.11 0.92 -0.30 1.82 -0.40 2.74 -0.08 0.70 -0.11 1.82 -0.68 2.31 -0.56 -0.79 -0.82 -1.79 -1.15 -2.68 -0.36 -0.95 0.01 -2.07 0.18 -3.03 0.19 -1.06 0.32 -2.04 0.87 -2.99 0.38 -0.68 1.04 -1.94 1.88 -2.09
  m-3.42 4.07 l 0.02 0.93 c 0.00 0.21 -0.18 0.64 -0.49 0.34 -0.10 -0.10 -0.02 -0.78 -0.02 -0.93 -0.01 -0.39 0.07 -0.38 0.49 -0.34
  m12.65 6.99 c 0.02 1.31 -0.26 2.72 -0.44 4.01 -0.20 1.40 -0.37 2.81 -0.57 4.21 -0.40 2.83 -0.52 5.80 -1.14 8.58 1.47 -0.96 0.71 -2.67 0.92 -4.05 0.22 -1.46 0.36 -2.92 0.576 -4.38 0.21 -1.451 0.39 -2.91 0.59 -4.36 0.09 -0.69 0.13 -1.37 0.22 -2.06 0.07 -0.56 0.29 -1.48 -0.15 -1.94 m -3.74 0.33 c 0.02 1.08 -0.16 2.31 -0.32 3.38 -0.17 1.13 -0.20 2.29 -0.40 3.42 -0.42 2.4 -0.59 4.83 -0.99 7.24 -1.09 -0.2 -1.54 -2.32 -1.82 -3.21 -0.41 -1.32 -0.73 -2.54 -0.50 -3.93 0.25 -1.52 0.44 -2.72 1.27 -4.05 0.59 -0.94 1.71 -2.41 2.76 -2.84
  m-4.40 4.84 c 0.35 0.61 0.14 1.35 0.04 2.00 -0.99 -0.21 -0.75 -1.60 -0.04 -2.00"/>
</g>
<!-- fin du dessin de la partie haute -->
<use href="#PartieHaute" transform="rotate(180,84,121)"/>
<!-- coins -->
<g id="David" style="font-family:serif;font-size:9.5px;fill:black;stroke:none">
<text id="DavidHaut" x="154" y="36" stroke="none" transform="rotate(-90,154,36)">DAVID</text>
<use href="#DavidHaut" transform="rotate(180,84,121)"/>
</g>
<path id="GrandPiqueHaut" fill="black" stroke="none"
 d="M44.00,51.09 c -4.36 0 -6.65 -4.64 -7.85 -9.28 -1.20 -4.65 -1.32 -9.29 -1.32 -9.29 l -2.22 -0.02 s -0.42 18.59 -9.13 18.60 z
  M51.37,32.51 c -0.04 -9.07 -13.61 -15.64 -17.60 -22.82 -3.98 7.18 -17.56 13.8 -17.60 22.82 -0.02 4.28 3.94 7.75 8.80 7.75 4.86 0 8.80 -3.47 8.80 -7.75 0 4.28 3.94 7.75 8.8 7.75 s 8.80 -3.47 8.80 -7.75 z"/>
<use href="#GrandPiqueHaut" transform="rotate(180,84,121)"/>
<rect id="CacheGPH" x="10" y="7" width="13" height="40" fill="white" stroke="none"/>
<use href="#CacheGPH" transform="rotate(180,84,121)"/>
<path id="PetitPiqueHaut" fill="black" stroke="none"
 d="M18.89,39.43 c -1.10 0 -1.671 -1.17 -1.97 -2.34 a11.74,11.74 0,0,1 -0.33,-2.34 l -0.56 0 s -0.11 4.675 -2.30 4.68 z
  M20.743,34.76 c -0.01 -2.28 -3.42 -3.93 -4.43 -5.74 -1.00 1.81 -4.42 3.46 -4.43 5.74 0 1.08 0.99 1.95 2.21 1.95 s 2.21 -0.872 2.21 -1.95 c 0 1.08 0.99 1.95 2.21 1.95 s 2.21 -0.872 2.21 -1.95 z"/>
<use href="#PetitPiqueHaut" transform="rotate(180,84,121)"/>
<g id="R" style="font-family:serif;font-size:18px;fill:black;stroke:none">
<text id="RHaut" x="10" y="17" transform="scale(1,1.534)">R</text>
<use href="#RHaut" transform="rotate(180,84,121)"/>
</g>
<!-- diagonale -->
<g id="Separation">
<path id="BandeauHaut" transform="rotate(-57.25,84,121)"
 fill="none" stroke="black" stroke-width="7.5"
 d="M84,121 h80"/>
<use href="#BandeauHaut" transform="rotate(180,84,121)"/>
<g id="DisqueBandeau0">
<circle cx="84" cy="121" r="2" fill="white" stroke="none"/>
<circle cx="84" cy="121" r="0.65" fill="black" stroke="none"/>
</g>
<g id="DisquesHaut">
 <use href="#DisqueBandeau0" transform="translate(3.02,-4.66)"/>
 <use href="#DisqueBandeau0" transform="translate(6.04,-9.32)"/>
 <use href="#DisqueBandeau0" transform="translate(9.06,-13.98)"/>
 <use href="#DisqueBandeau0" transform="translate(12.08,-18.64)"/>
 <use href="#DisqueBandeau0" transform="translate(15.10,-23.30)"/>
 <use href="#DisqueBandeau0" transform="translate(18.12,-27.96)"/>
 <use href="#DisqueBandeau0" transform="translate(21.14,-32.62)"/>
 <use href="#DisqueBandeau0" transform="translate(24.16,-37.28)"/>
 <use href="#DisqueBandeau0" transform="translate(27.18,-41.94)"/>
 <use href="#DisqueBandeau0" transform="translate(30.20,-46.60)"/>
 <use href="#DisqueBandeau0" transform="translate(33.22,-51.26)"/>
 <use href="#DisqueBandeau0" transform="translate(36.24,-55.92)"/>
 <use href="#DisqueBandeau0" transform="translate(39.26,-60.58)"/>
 <use href="#DisqueBandeau0" transform="translate(42.22,-65.15)"/>
</g>
<use href="#DisquesHaut"  transform="rotate(180,84,121)"/>
</g>
</svg>
