<?xml version="1.0" encoding="UTF-8" standalone="yes"?>
<svg xmlns="http://www.w3.org/2000/svg"  width="168" height="243">
<!-- validated for SVG version="2.0" -->
<rect id="BordDeCarte" fill="white" stroke="black" stroke-width="0.5" x="0.5" y="0.5" rx="6" ry="6" width="167" height="242"/>
<rect id="CadreDHonneur" fill="white" stroke="black" stroke-width="1.5" x="8.5" y="4.5" width="151" height="233"/>
<!-- dessin de la partie haute -->
<g id="PartieHaute">
<!-- rouge #E61408 -->
<path fill="#e61408"
 d="M50.54 20.53 l 2.92 1.28 4.67 3.74 7.23 -4.09 3.53 -2.00 6.55 -1.9 6.45 -0.89 6.72 1.29 2.89 1.76 7.82 -5.87 -12.39 -6.97 L 83.82 5 l -6.47 2.63 -7.24 1.87 L 63 10.68 l -4.91.32 -1.63 2.95 -2.87 3.34
  m4.89 37.65 l 2.94 -0.86.45 -2.22 -0.07 -2.47 h1.55 L66.00 56.83 l 4.39 14.09 L 73 83.82 l 1.64 13.93 -7.91 -1.83 -2.47 -12.23 -4.19 -14 -3.42 -8.61 -4.72 -10.56 3.27 0.88 1.38 2.6
  m46.92 -2.30 L 100 58 l -3.2 6.43 L 93 74.71 l -3.55 14.57 -0.52 5.84 -8.5 1.94.3 -8.09 3 -17.6 1.46 -3.13 1.08 -4.11 L 92 50.47 l 1.53 -2.12 3.47 -0.62 5.42 3.48
  m-51.55 54.43 l 3.29 -4.46 4 -3.08 2.6 1.76 L 48.59 140 l -1.78 -1.76 -1.9 -0.85 -0.78 -1.39 -1.42 -0.77 -0.45 -2.23 1.74 -9.19 2 -6.73 2.22 -5.53
  m27.7 16.12 l -10.09 15.8 -2.11 1.4 -2 -2.31 4.55 -40 10.78.92
  m17.41 -4.38 l -6.17 9.5 -2.06 -2.23 v-7.11
  M50.94 63.17 l -5.81 -11.23 -2.27 0.27 -2.55 1.1 -7.2 5.79 L 30 62.65 l -1.74 3.58 -0.39 1.77 -3.31 2.00 -8.06 8.00 -2.33 3.41 -1.25 3.2 v3.49 l 32.78 -10.00
  m63.5 -23.04 l 3.29 3.82 3.51 5.49 -1.00 2.81 -0.7 1.06 -2.88 4.31 -1.00 1.00 -1.42 -1.61 -2.60 -3.55 -2.40 -3.11 2.28 -5.34
  m-8.81 21.15 l -1.84 10.1 1.86 3.09 1.8 -2.7 3.07 -5.3 -0.31 -3.44
  M56.72 86.80 l 3.36 6.82 1.76 -0.60 -3.57 -12.29 -14.39 8.47 0.86 2.70 9.81 -4.85
  m-24.28 16.86 l 8.55 3.2 1.24 -1.79 5.81 -6.15 0.25 -0.91 L 39.00 93.11"/>
<path fill="#e61408"
 d="M59.81 152.92 L 46.4 173.51 l -3.00 -6.11 L 40 160.00 l -3.65 -11.23 L 40 144.90 l 0.12 3 2.87 -2.41 h0.63 l 0.72 3.79 1.11 0.34 6.55 -5.17 10.00 4.86"/>
<!-- bleu "navy" au lieu de #1C1585 -->
<path fill="navy"
 d="M64.86 145.07 l -5.00 7.85 0.41 -1.00 0.47 -0.75 1.94 -6.26"/>
<path fill="navy"
 d="M49.33 138.43 l 1.39 1.82 1.70 3.46 1.83 1.63 2.69 0.23 2.20 -1.45 2.00 -1.56 1.46 0.32 0.53 1.79 -2.66 5.78 -5.71 -1.66 -6.24 -2.89 -0.86 -0.83 -0.21 -3.5 0.76 -2.45"/>
<path fill="navy"
 d="M23.51 78.37 l 4.09 -1 5.00 2.64 3.80 4.89 -2.00 0.69 L 30.79 88.00 l -8.08 7.54 -4.21 5.64 -3.76 7.30 -2.82 9.75 -1.47 8.34 -0.30 8.80 0.26 8.07 L 9.25 142.00 9.00 124.79 l -0.13 -21.14 v-2.5l 0.83 -4.71 3.52 -8.16 L 20.11 81.00"/>
<!-- jaune "gold" -->
<path fill="#f8c20f"
 d="M16 104.58 l 10.64 1.18 -8.00 22.40 -1.80 10.22.28 18.94 -3.48 -3.74 -2.54 -6 -1.10 -4.12 1.00 -33.00"/>
<path fill="#f8c20f"
 d="M31.40 102.10 l 6.21 -6.51 3.16-1.46 3.00 2.52 2.34 1.75 0.17 -2.54 -0.49 -2.48 -1.39 -1.94 -8.62 -7.67 -13.2 6.67 -7.12 14.34 L 27.51 107.00
  m33.71 -8.45 l 9.07 3.15 -2.47 3.7 -2.95 11.6 L 63.00 133.66 l -1.00 9.91 -6.34 2.70 -5.30 -3.08 -1.36 -5.72 1.93 -12.00 2.65 -10.58 3.94 -10.41 2.73 -5.30"/>
<path fill="#f8c20f"
 d="M77.00 105.00 l 9.00 -1.94 1.65 6.08 -0.11 0.44 -11.75 18.27 0.21 -13.26
  m-47.88 -8.38 l 2.35 10.30 -1.35 8.09 -3.12 6.90 -5.95 6.35 -4.58 1.91 6.07 -33.48
  m11.54 -27.04 l 3.77 -3.00 L 45.41 69.00 l 5.52 -5.49 1.60 2.61 2.57 6.28 2.52 6.32 0.64 2.50 -5.86 4.00 -4.00 2.35 -4.22 2.74 -1.71 -0.54 -4.17 -3.51 -3.94 -3.90 -1.92 -2.00
  m71.39 -15.07 l 3.31 4.07 3.13 4.00 -0.18 1.34 -0.84 1.42 -2.00 2.73 -1.86 3.00 -2.06 3.09 -1.05 1.45 -1.65 -1.92 -0.45 -0.61 -0.60 -0.86 -1.78 -1.66 1.16 -5.00 2.79 -7.20
  m-29.57 1.47 l 2.40 0.81 -1.10 3.94 -0.56 0.08 -0.77 -0.35 -1.39 -2.92
  m9.83 -18.89 L 83.00 51.46 l 2.07 -2.55 1.72 -2.84 2.51 0.78 1.80 1.34 -1.24 2.52 L 87.25 54.00 l -2.66 1.90 -3.38 1.23 -1.93.21
  m-14.74 -9.15 l 3.00 2.84 4.08 2.59 2.21 0.40 0.40 3.24 -1.53 0.1 -3.00 -0.75 L 66.58 55 l -2.94 -3.6 -0.27 -2.21"/>
<path fill="#f8c20f"
 d="M73.41 53.65 l 1.40 4.05 4.36 0.17 0.62 -4.62 -2.79 -0.86
 m-5.44 17.76 l 1.74 -7.86 1.08 -3.75 7.15 -0.65 0.59 2.94 2.00 8.80 L 83.00 75.09 l -3.84.08 -0.28 -0.70 v-2.61 L 78.63 68 l -1.00 0.34 -0.50 2.86 0.14 4.00 -0.64 0.34 -3.22 -0.32 1.08 -3.60
 M87.00 7.00 l 4.44 3.09 6.83 3.32.31 2.67 -0.58 3.6 -1.85 4.82 1.00 1.79 2.40 0.84 2.67 -0.47 2.54 -2.50 3.20 -0.83 1.62 -2.47 0.83 -3.92 -0.8 -3.00 0.28 -0.21 0.50 -0.10 -0.26 -0.94 -1.82 -1.23 1.15 -0.86 -1.09 -0.71 -1.78 -0.43 0.25 -1.22 -1.00 -1.12 0.08 -1.29 -2.37 -1.07 -0.76 -0.27 h-0.81 l -1.50 0.24 -1.68 -0.20 -1.8 -0.18 h-2.83 l -2.47 0.08 -1.62 -0.12 -0.29 0.34 L 87.93 6.00"/>
<!-- drawing form Wikipedia : 09_of_spades_fr.svg = all rights reserved -->
<!-- one path to be split into several -->
<g id="MainDrawingAndBelt">
<path id="MainDrawingAndBelt_1" fill="black" stroke="none"
 d="M49.89 20.81 a8.69 8.69 0 0 1 3 1.3 A17.24 17.24 0 0 1 56 24.24 a4.15 4.15 0 0 1 1.14 1.29 3.91 3.91 0 0 1 .05 1.77 c-0.06 1.22.49 2.29.48 3.47-0.16-0.07-1.17-0.62-1.29-0.43 a2.28 2.28 0 0 0-0.38 1.39 3.19 3.19 0 0 1 0 1.41 c-0.3.52-0.59 1-0.88 1.56-0.48.87-0.61 2.25-1.61 2.59 a4.77 4.77 0 0 0-2.74 1.47 4.21 4.21 0 0 1-0.93 1.24 14.64 14.64 0 0 0-1.45.6 4.05 4.05 0 0 0-1.19 1 17.2 17.2 0 0 0-0.9 1.7 c-0.47 1-0.17 2.14-0.14 3.25  a7.63 7.63 0 0 0 1 3 3.71 3.71 0 0 0 .66.81 c-1 .18-2 .71-3 1 a23.29 23.29 0 0 0-3.07 1 A20.67 20.67 0 0 0 36 56.1 c-1.66 1.46-3.37 3-4.91 4.56 A12.58 12.58 0 0 0 28 66.43 a3.12 3.12 0 0 1-1.83 2.43 16 16 0 0 0-2.71 1.74 c-1.69 1.43-3.17 3-4.72 4.58-2.89 2.91-6.26 6.71-6.24 11.08 a8.35 8.35 0 0 1-0.22 3.2 c-0.51 1.07-1.07 2.11-1.55 3.2 a 28.18 28.18 0 0 0-1.12 3.07 8.18 8.18 0 0 0-0.15 1.49 c-0.07.54-0.24 1.09-0.35 1.62 a27.26 27.26 0 0 0-0.26 6 v7 L9 140.5 a11.85 11.85 0 0 0 .26 3.15 c.29 1 .73 2 1.1 3.06 a40 40 0 0 0 2.55 6.29 15 15 0 0 0 4.48 5 4.38 4.38 0 0 0 3 .27 18.56 18.56 0 0 0 3.32-1.13 c4-1.68 7.49-4.68 10.84-7.34.28-0.22.81-0.69 1.19-0.61 s.68 1 .78 1.4 c.28 1 .6 2 .89 3 a66.47 66.47 0 0 0 2.27 6.39 c1 2.38 1.91 4.79 3.06 7.1.54 1.09 1.07 2.21 1.68 3.27 s1.08 2.5 2 3.15 c.46-0.87-0.37-1.89-0.77-2.64-0.54-1-1.11-2-1.6-3-1-2-1.92-4-2.82-6 s-1.69-4.19-2.41-6.31 a41.76 41.76 0 0 1-1.78-6.17 1.37 1.37 0 0 1 .23-1.29 c.3-0.26 1.25.08 1.59.27 a3.72 3.72 0 0 1 1.85 2.5 c.6 2 1.06 4.07 1.83 6 .86 2.2 1.82 4.34 2.81 6.47 a8.91 8.91 0 0 1 1.21 2.85 c.08 1.13 0 2.25.11 3.37 s.21 1.94.24 2.93 c1.48-0.86.86-2.7.48-4 .58.35 2.09 1.72 2.25.24 0-0.15-0.13-0.31-0.12-0.49 a4.64 4.64 0 0 1 .19-0.82 3 3 0 0 0 0-1.49 c-0.44-2.15-0.48-4.34-0.81-6.51 a44.29 44.29 0 0 1-0.1-6.52 v-3.36 a5.33 5.33 0 0 1 .07-1.55 c.24-0.73.51-0.75 1.24-0.74 s1.77.71 1.83 1.43 a9.73 9.73 0 0 1-0.35 2.62 c-0.34 1.78-0.56 3.57-0.85 5.36 a34.16 34.16 0 0 0-0.38 5.25 c0 .94-0.23 1.85-0.23 2.79 v2.77 c1-0.6 1-1.75 1-2.79 a25.6 25.6 0 0 1 .09-3.16 c.12-1.11 0-2.28.18-3.37 s.34-2.18.47-3.28.37-2.2.6-3.3 c.12-0.57.15-2.64 1.09-2.59.07 0 1.29 0 1.23.26-0.18.57-0.35 1.13-0.48 1.71-0.21 1-0.56 2-0.74 3.05-0.29 1.61-0.34 3.24-0.61 4.83 a28.54 28.54 0 0 0-0.34 4.88 c1.52-0.91 1-2.88 1.24-4.29 a46.06 46.06 0 0 1 .59-4.7 c.22-0.88.41-1.75.59-2.64 A3.49 3.49 0 0 1 56.2 150 c.43-0.41 1.87.24 2.33.39 a7.42 7.42 0 0 1 2 .83 c-0.8.28-3 .79-3.24 1.77.7 0 1.41-0.05 2.1-0.11.52 0 .32.11.64-0.36.17-0.26.32-0.52.47-0.79.71-1.24.83-2.6 1.43-3.9 s1.11-3.06 2.71-2.66 a16.42 16.42 0 0 0 1.84-3 c-1.09.34-0.54-1.94-0.53-2.41 a21.08 21.08 0 0 1 .08-3.28 c.19-1.07.27-2.17.39-3.26.06-0.47 0-1 0-1.43 a10.68 10.68 0 0 0 .21-1.77 19.37 19.37 0 0 1 .25-3.14 c.2-1.12.23-2.22.43-3.34 a10.53 10.53 0 0 0 0-1.59 c0-0.5.21-1 .22-1.48 a21.52 21.52 0 0 1 .38-3.19 c.4-2.1.76-4.22 1.18-6.32.21-1 .55-2 .8-3.06.09-0.38.86-3 1.46-2.47 a1.09 1.09 0 0 1 .45 1.33 c-0.08.53-0.16 1.05-0.26 1.58-0.2 1.07-0.37 2.16-0.57 3.24-0.4 2.07-0.62 4.17-1 6.24-0.66 3.48-0.49 7-0.89 10.53-0.2 1.7-0.19 3.39-0.35 5.1 s.19 3.7-0.32 5.46 a6.11 6.11 0 0 0 1.74-2.51 c-0.62.31-0.78.36-0.67-0.33 a10.27 10.27 0 0 0 .15-1.67 c0-1.08 0-2.17.06-3.25.23-2.16.2-4.34.4-6.5.39-4.19 1-8.37 1.67-12.53.35-2.17.89-4.32 1.23-6.49 1.76.22.55 4.81.49 6-0.1 2.22-0.42 4.42-0.45 6.64 0 1.09-0.22 2.18-0.24 3.29 s-0.21 2.16-0.22 3.26-0.22 2-0.21 3.06 0 2.28 0 3.42 a9.74 9.74 0 0 1-0.22 1.86 5.85 5.85 0 0 0 1.86-2.47 c-0.84.35-0.61-2.17-0.52-2.67.17-1.06-0.11-2.18.06-3.25 a39.38 39.38 0 0 0 .4-6.52 c0-1 .24-2 .23-3 s.24-2 .24-3 a18.64 18.64 0 0 1 .47-3.23 c.09-0.56 0-2.83.74-2.83 s.26 1.71.26 2.15 v2.94 c0 .94-0.23 1.64-0.23 2.48 s.06 2 0 2.93 c-0.11 1.94-0.2 3.84-0.2 5.79 0 .88-0.22 1.9-0.13 2.75 s.15 2 .16 3 c.89-0.55.84-1.46.77-2.38 s0-1.93 0-2.89.21-1.81.24-2.73 0-1.86 0-2.78 a39.36 39.36 0 0 1 .13-5.85 c.15-1 .06-2 .21-3 .1-0.72.18-2.27 1.1-2.4 0 2.78.28 5.53.3 8.32 v4.93 c0 1.42.27 2.82.28 4.25 a4.15 4.15 0 0 0 1.15-1.76 c.27-0.79-0.36-1.55-0.11-2.29 s.48-1.71 1.33-2 c.59-0.17 1.62.43 1.84-0.53-1.1.22-2.73-1.13-3.07-2.11 a3.67 3.67 0 0 1-0.22-2.24 c.07-0.45.73-1.43 1.26-1.46 s1 .86 1.33 1.29 c.61.69 1.12-0.47 1.21-0.9.17-0.93.67-0.93 1.38-0.61 a2.07 2.07 0 0 1 .84 1.77 c1-0.86.77-2.18.51-3.33 a40 40 0 0 1-0.89-4.3 2.44 2.44 0 0 1 0-1 c0-0.13 0-0.4.18-0.4 h.43 c.25.74.52 1.48.75 2.22 s.46 3 1.27 3.5 a6 6 0 0 0 .72-1.05 5.34 5.34 0 0 1-0.73-1.45 10.81 10.81 0 0 1-0.89-3.22 c0-0.14 0-0.68.12-0.78.28-0.25.52.09.57.3 a7.51 7.51 0 0 0 .5 1.26 7.2 7.2 0 0 1 .7 2.93 2.94 2.94 0 0 0 .83-0.89 c.5-0.73.34-0.74-0.14-1.49 a7.53 7.53 0 0 1-1-2.62 c1 .66.93 2.19 1.77 3 .2-0.27.39-0.55.6-0.81 s-0.19-0.6-0.38-0.94 a3.68 3.68 0 0 1-0.49-2.24 5.36 5.36 0 0 1 1.26 2.24 c1.1-0.9 0-1.92.24-3 a3.06 3.06 0 0 1 .75 1.49 5.13 5.13 0 0 0 1.24-1.75 2.69 2.69 0 0 1-0.75 0 1.79 1.79 0 0 1 1.64-1.26 c.25 0 1.07-1.57 1.2-1.78 A44.5 44.5 0 0 0 98 93.31 c-0.14.07-0.74.46-0.76.15 a3.92 3.92 0 0 0-0.15-1c-0.18-0.65-0.39-1.29-0.61-1.93.48.07 1 .61 1.28.93.15.14.28.31.44.45.36.33.17.39.61.12 a5.26 5.26 0 0 0 1.06-1.48l1-1.5 a12.71 12.71 0 0 0 1.82-3.2 s-1-1-1.19-1.14 a2.32 2.32 0 0 0-1.29-1 c.19 1.24 1.56 1.78 1.76 3-1-0.44-1.38-1.24-2.11-2 A6.14 6.14 0 0 1 98 82.06 c.56.53 1.2 1.33 2 1.49 a4.09 4.09 0 0 0-0.5-1.5 c1.22.09 2.15-0.89 3.24-1.26 0 .83.09 1.67.1 2.5 a3.88 3.88 0 0 0 .17 2 c1.19-0.69.85-3.23.66-4.39 0-0.21-0.07-1.13-0.29-1.11 a3.49 3.49 0 0 0-1.14.34 13 13 0 0 1-2 1.17 5.83 5.83 0 0 0-0.5-1.25 c-0.57.39-0.47 1.16-0.49 1.76-0.29-0.3-0.92-0.81-0.85-1.29.08-0.67.22-1.3.33-2 .12.24.84 1.66 1 .8 a5.77 5.77 0 0 0 .11-2.11 5 5 0 0 1 .11-1.88 c0-0.15.14-0.57.29-0.57.52 0 .37.07.63.46.7 1 1.49 2 2.21 3 s2.08 2.38 2.12 3.71 c.81-0.62.36-1.63-0.16-2.29-0.66-0.83-1.27-1.71-1.88-2.57-1.14-1.59-2.8-3.28-2-5.36 1.25.68 2.25 2.27 3 3.41.52.74 1 1.47 1.57 2.19 a6 6 0 0 1 1.18 1.87 3 3 0 0 0 .72-1s-0.76-0.66-0.87-0.76 a13.16 13.16 0 0 1-1.73-2.33c-0.5-0.74-1-1.5-1.54-2.22 a6.65 6.65 0 0 1-1.62-2.72 c1.12-0.16 2.06-0.78 3.24-0.77 0 1.39-0.16 2.82 0 4.2 0 .12 0 .55.1.55 h1.34 c.63 0 1.24-0.26 1.88-0.26 v3 c1.21-1.08 2-2.81 2.82-4.17.5-0.79.87-1.48.18-2.27 s-1.18-1.47-1.75-2.23 q-1.68-2.24-3.35-4.49 a2.15 2.15 0 0 1-0.29-2.33 4.08 4.08 0 0 1 1.55-2 c.6 1.66 2.26 3.09 3.31 4.48 s2.74 3.17 2.74 5 a10.68 10.68 0 0 0 1.79-2.47 c.53-0.9 1.3-1.81.69-2.84 a56.32 56.32 0 0 0-3.93-5.43 c-1.3-1.7-2.17-4-3.85-5.3-0.85-0.67-1.85-1.14-2.71-1.79 s-0.55-1.95-1.25-2.79 c-0.5-0.59-2.12-0.58-2.25-1.38 a9 9 0 0 0-0.61-2.87 3.46 3.46 0 0 0-2.33-1.37 4.32 4.32 0 0 0-2.94.33 5.57 5.57 0 0 1 .29-1.6 3.06 3.06 0 0 0-0.2-1.76 c-0.23-0.74-2-1.66-2.59-2.11 s.36-2.42.41-3 a7.08 7.08 0 0 0-0.54-3.31 c-0.15-0.37-0.5-1-0.4-1.37 a16.09 16.09 0 0 0 .36-1.81 c.12-0.94-0.71-2.19-1.16-3 s-0.09-2.17-0.07-3.26-0.68-2.07.33-2.82 1.73-1.4 2.65-2 a9.27 9.27 0 0 1 2.78-1.72 c0 .81.24 2.48-0.37 3.15-0.32.35-0.81.6-1.07 1 s-0.09 1.1-0.14 1.62 a5.11 5.11 0 0 1-0.59 1.61 5.86 5.86 0 0 0-0.35 1.61 2.36 2.36 0 0 0 .5 1.18 3.31 3.31 0 0 0 1.37 1.16 4.74 4.74 0 0 0 3.16.62 4.36 4.36 0 0 0 3-1.47 10.34 10.34 0 0 1 1.06-1.13 3.73 3.73 0 0 1 1.7-0.46 4.59 4.59 0 0 0 2.62-1.36 14.48 14.48 0 0 0 1-2.45 13.68 13.68 0 0 1 .42-2.21 2.28 2.28 0 0 0 .17-2 c-0.21-0.71-0.53-1.36-0.76-2.06.73 0 .87-0.67.57-1.24 s-1-0.93-1.33-1.51 c.15 0 .91-0.06 1-0.25 s-0.43-0.74-0.58-0.85 a4.81 4.81 0 0 0-2.18-0.89 c.64-0.84.11-1.61-0.76-2 1-1.48-1.73-2-2.62-2.52 a3.47 3.47 0 0 0-2.15-0.38 9.19 9.19 0 0 1-2.46 0c-3-0.41-6.27-0.07-9.29-0.06.61.5 1.89.24 2.62.24 h3.87 a8.19 8.19 0 0 1 5.95 2 16.62 16.62 0 0 1 4.13 5.36 c.83 1.79 2 4.5.55 6.24 a3.77 3.77 0 0 0-1 1.89 2.79 2.79 0 0 0 1-0.51 5 5 0 0 0-0.49 2 c1.36-0.36 1.77-3.36 1.84-4.51 a13.31 13.31 0 0 0-0.2-2.75 c-0.15-0.87-0.79-1.85-0.69-2.75.65.58 2.38 1.07 2.51 2 a3.86 3.86 0 0 0-1.75-0.24 c.28 1.3 1.76 2 1.77 3.49 a1.8 1.8 0 0 0-1-0.75 7.87 7.87 0 0 0 .2 1.6 c0 .23 0 .47.06.71 s-0.2.14-0.42.31 a4.33 4.33 0 0 0-0.81 2.89 2.57 2.57 0 0 0 1-1.76 c.87 1.6-1.73 3.93-3.21 3.69-2.43-0.38-0.54-3.41-0.54-4.92-0.84.51-1.12 1.53-2 2 a15.8 15.8 0 0 1 1-1.63 4.57 4.57 0 0 0 1-1.88 c-1.38.2-1.67 2.12-2.74 2.77 a4.35 4.35 0 0 1 .83-1.95 c.44-0.59 1.13-1.28 1.15-2.06-1.34.26-2.23 2-3 2.93-0.29.37-0.83 1.65-1.21 1.78-1 .34-1.4.55-2.27-0.18 a3.22 3.22 0 0 0 2.49-2 c.53.26.43.28.75-0.16 a6.56 6.56 0 0 0 .47-0.81 c.29-0.5.83-1.18.52-1.79-0.35.24-0.67.48-1 .75.53-1.75 3.48-2.29 2-4.51-0.53.68-0.38 1.53-1.12 2.14 a11.78 11.78 0 0 1-2.11 1.63 5.42 5.42 0 0 1 .07-1.84 c.21-0.53.89-1 1.27-1.4.56-0.64 1.12-2.72-0.12-3 a4 4 0 0 1-1 3 c-0.82.84-1.73.53-2.71.24.49-1 1.3-2.12.74-3.25-0.58.41-0.46 1.26-1 1.66-0.27.2-0.75.73-1.1.7 a2 2 0 0 1-1.12-0.59 c1.77-0.3 2-2.36 1.27-3.64 s-2.91-1.57-4.3-1.6c.3.47 1 .53 1.45.63 a3.17 3.17 0 0 1 1.37.84 1.77 1.77 0 0 1-0.39 3 c.25-0.76.54-2.79-0.76-2.75 v1.5 a4.66 4.66 0 0 0-1.91-0.7 5.46 5.46 0 0 1-2.35-0.23 c-0.65-0.29-1.28-1-1-1.7 s1.34-1 1.2-1.85 a25.23 25.23 0 0 1-3 1.55 c-0.39.17-1-0.41-1.28-0.62 a10.71 10.71 0 0 0-1.47-0.93 c-0.64-0.35-2.37.87-3 1.11-1.04.45-2.1.86-3.16 1.31-1.9.89-4.1 1.06-6.09 1.67 a49 49 0 0 1-6.46 1.21 c-1.71.29-3.41.35-5.12.55 a8.86 8.86 0 0 0-2.42.28 c-0.69.26-0.92 1.59-1.26 2.14 a23 23 0 0 1-3.36 4.19l-1.79 1.73c-0.58.54-1.5 1.11-1.49 2
  M105.06 6 c0 .57-0.15 1.07.28 1.46 s1 .71 1 1.29 c-1 0-1.67-1.19-2.33-1.77 s-2.13-1.44-2.19-2.46a2.27 2.27 0 0 1 1.85.69 3.46 3.46 0 0 0 1.41.79m-7.48 7.56c.25 1.3-1.82.27-2.29.07-1.1-0.47-2.14-1-3.19-1.58-1.84-1-3.71-2-5.45-3.13-0.57-0.37-2.17-1.74-2.9-1.58a22 22 0 0 0-3 1.18c-2.07.78-4.24 1.4-6.37 2a59.43 59.43 0 0 1-6.31 1.59c-1.06.18-2.13.05-3.19.23a14.27 14.27 0 0 1-3.11.36 4.48 4.48 0 0 0-1.5 0 2.93 2.93 0 0 0-1.45 1.25c-0.68.89-1.18 1.89-1.89 2.77a19 19 0 0 1-2.08 2.22c-0.72.64-1.71 1.75-2.73 1.78a1.38 1.38 0 0 1-0.67-0.15c-0.38-0.24-0.32-0.19-0.17-0.6a3.76 3.76 0 0 1 1.08-1.17c.78-0.71 1.52-1.48 2.26-2.24a13.15 13.15 0 0 0 2.11-2.65c.47-0.84.89-2.36 2-2.53a23.15 23.15 0 0 1 3.25-0.13 22.43 22.43 0 0 0 3.14-0.46c2.12-0.35 4.24-0.79 6.34-1.3s4.32-1 6.45-1.71c1-0.34 2-0.71 3.06-1.12.85-0.34 2.08-1 3-0.91a7 7 0 0 1 2.63 1.49c1 .7 2.07 1.42 3.13 2.09 1.89 1.22 3.83 2.24 5.81 3.28.65.34 1.33.61 2 1m.21-7.75a3.35 3.35 0 0 0 1 1.38A6.31 6.31 0 0 1 99.66 9c.51 1.21-0.64 2.19-0.82 3.32 3.34-0.6 2-6.49-1-6.5m5 2.23a1.23 1.23 0 0 0 1 1.49 1.53 1.53 0 0 0-1-1.49m-15.51 2.57c-0.31 1.52-2.49 2.45-2.48 4 1.48-0.74 2.3-2.43 3.74-3.27-0.22 1.51-2 2.25-2.23 3.76 1.29-0.22 2.13-1.87 3.23-2.51-0.23 1.26-1.77 2-2 3.26 1.49-0.27 2-2.24 3.49-2.52-0.7 1.1-2 2.2-2.23 3.51 1.32-0.43 1.9-2.18 3.23-2.52-0.23 1.23-1.63 2-2 3.26a3.76 3.76 0 0 0 1.63-1.14 15.39 15.39 0 0 0 1.61-1.62c.41.69-1 2.06-1.44 2.59-0.27.38-0.44 1.17-0.84 1.17a3.72 3.72 0 0 1-1.58-0.78c-1.77-1.07-4-1.16-6-1.45a6 6 0 0 0-1.58-0.18c-0.6.07-1.23.2-1.84.22a19.48 19.48 0 0 0-3.14.27 33.66 33.66 0 0 0-6.32 1.68 50 50 0 0 0-6.37 3c-0.89.51-1.8 1-2.67 1.52a17.38 17.38 0 0 1-2.65 1.59c-1 .41-2.2-0.68-3-1.28a10.6 10.6 0 0 1-1.24-1c-0.58-0.61-0.25-1 .06-1.66.39-0.86 1.39-1.5 2-2.23.73-0.89 1.5-1.77 2.14-2.73.28-0.41.53-0.92.85-1.3a2.44 2.44 0 0 1 1.57-0.74 6.84 6.84 0 0 1 1.48.13 7.36 7.36 0 0 0 1.61-0.23c1-0.17 2.06-0.16 3.08-0.37s2.27-0.48 3.41-0.69a55.89 55.89 0 0 0 6.32-1.76c1.1-0.35 2.18-0.69 3.27-1.1a18.43 18.43 0 0 1 3-1.08c.43-0.08 1.4.58 1.8.83.69.42 1.34.87 2 1.33m5-0.78a4.64 4.64 0 0 1-1-0.49c.38-0.33.93.06 1 .49m-11.4 2.35c1.2 0 2.58-1.66 2.74-2.76a3.52 3.52 0 0 0-2.74 2.76m3.49-2.27v1c.54-0.11.64-0.53.75-1h-0.75m20-0.1c-0.12 1.23 1.28 2.64 1.77 3.74.55-0.61-0.07-1.66-0.33-2.25a3.83 3.83 0 0 1-0.4-1c-0.06-0.43-0.64-0.42-1-0.53m4.5.72c-0.42.37-1 .47-1.24 1a2.44 2.44 0 0 1-0.76-1.49 3.31 3.31 0 0 1 2 .48m-25.52 3.19c.55 1 3.13-2.31 3.23-3-1.22 0-3 1.83-3.23 3m-1.5-0.49c1.13.32 2.2-1.26 2.23-2.27a2.8 2.8 0 0 0-2.23 2.27m24.5 1.12v1.5c.68-0.24.45-1.15 0-1.5m-7 1c-0.06 1.39.62 2.74-0.23 4-0.31-0.49 0-1.54 0-2.11s-0.13-1.39.26-1.9m-10.73 7.6a11.13 11.13 0 0 0-6.21.45 5.45 5.45 0 0 0-1.66 2.63A14.39 14.39 0 0 0 81 29.4a34.81 34.81 0 0 1 .49 6.6c-0.08 1.43-1.64.77-2.52.53-0.43-0.12-1.17-0.26-1.37-0.67s.17-1.07.36-1.44c-0.58.33-1.31 1-1 1.75s1.48 1 2.13 1.1a4.79 4.79 0 0 0 2.62-0.2c.71-0.27 1.8-0.75 1.49-1.68-0.71.36-0.77.28-0.94-0.5-0.12-0.56-0.19-1.15-0.28-1.72-0.17-1.07 0-2.17-0.2-3.25a21.94 21.94 0 0 1-0.37-3.12c0-0.89.39-2.29 1.31-2.68a14.35 14.35 0 0 1 3.17-0.75c1-0.16 2.24-0.43 2.77.66A2.29 2.29 0 0 1 89 25.7c-0.06.51-0.49 1-1 .9-1-0.27-1.78-1.14-2.9-1.19h-0.7c1 .72 2.67.5 3 2-1.17-0.2-3-1.29-4-0.2-0.6.61-1.15 1.17-0.8 2.07a5.48 5.48 0 0 0 1.1 1.65c.34-1.15 2.57-1 3.49-1v1a2.74 2.74 0 0 0 1-1c.45.5.32 1.81.44 2.46a7.56 7.56 0 0 1-0.1 2.61A33 33 0 0 1 87 40.56a19.7 19.7 0 0 1-2.87 4.83 13 13 0 0 1-3.81 3.76c1.17.19 2.3-1.11 3-1.91a10.89 10.89 0 0 1 1.44-1.59c.6-0.48 1.16-0.17 1.83-0.28-0.35 2.12-1.91 3.9-3.24 5.49a7 7 0 0 1-2.66 2.08c-1.14.46-2-0.67-3.07-0.77a5.44 5.44 0 0 0-3 .72 2.7 2.7 0 0 1-3 .33 16.85 16.85 0 0 1-5.43-3.74 2.08 2.08 0 0 1-0.79-2.06 15.51 15.51 0 0 1 .58-2.35c.21-0.5.44-0.26.82 0s.74.5 1.11.77c.68.51 1.39 1 2.1 1.46A16.12 16.12 0 0 0 75 49.43a27.43 27.43 0 0 0 2.71.48 9.47 9.47 0 0 0 2.54-0.51c-0.89-0.31-2.11.07-3.06-0.09a29.8 29.8 0 0 1-3.38-0.7 17 17 0 0 1-5.62-2.85 10.8 10.8 0 0 1-2.56-2.19c-0.62-0.9-1.47-1.76-1.18-2.89s1-1.76 1-2.85a16.29 16.29 0 0 0-0.33-3.19c-0.15-1.16-0.43-2.21.25-3.27a5.56 5.56 0 0 0 1.15-3.32c0-1.85-1.69-4.29-0.58-6.11s3.65-2.51 5.64-3.12a42.12 42.12 0 0 1 6.64-1.56 22.35 22.35 0 0 1 3.57-0.11 22.05 22.05 0 0 1 3.62.41c1.21.22 2.33.37 2.73 1.69a12.89 12.89 0 0 1 .43 3.61m.73-3.5a3.48 3.48 0 0 1 .77 3.49c-0.77-0.5-1.35-2.76-0.77-3.49m1.76 1.24c.6.62.7 2.4-0.24 2.75 0-0.76-0.27-2.1.24-2.75m6.52 5.46c.43-0.32 1.08-0.07 1.57-0.07a5.71 5.71 0 0 0 2.15-0.59c1.16-0.45 1.79-2.24 1.76-3.37-0.89-0.11-0.41.94-0.76 1.54a2.57 2.57 0 0 1-1.54 1.31c-1.1.28-3.22.61-3.69-0.81a14.22 14.22 0 0 0 2 .74c-0.51-0.76-1.55-1-1.76-2a8 8 0 0 0 1.95.15 3.71 3.71 0 0 0 2-0.92 8.91 8.91 0 0 1-2.36.27c-0.29 0-0.22-0.5.16-0.51a3.19 3.19 0 0 0 1-0.34c.78-0.31 1.31-0.7 2.12-0.34a2.65 2.65 0 0 1 1.5 1.66 3.09 3.09 0 0 1-1.9 3.64 4.59 4.59 0 0 1-2.19.31 19.73 19.73 0 0 1-2-0.67m-30.5-0.34c.7-0.34 1.14-1 1.78-1.46a4.42 4.42 0 0 1 2.59-0.81 22.91 22.91 0 0 1 2.62.05 10 10 0 0 0 2.5.42c-0.12-1-1.44-1.08-2.2-1.14a10 10 0 0 0-2.88-0.16c-1.52.31-4.11 1.29-4.41 3.1m-2.51-3a8.09 8.09 0 0 1 .6 2.72c.11.89.46 1.74.56 2.65a3.07 3.07 0 0 1-0.83 2.6 3.7 3.7 0 0 1-2.79.79c.17-0.64 1-1.08 1.28-1.67a2.66 2.66 0 0 0 .12-2.21c-0.23-0.83-1.28-3.81.06-4.13a10.23 10.23 0 0 0 .67 3.22 5.64 5.64 0 0 1 .18 3.31c2.61-1.29-1.47-5.57.22-7.25m12.75 1.17a.83.83 0 0 0 .76.75.82.82 0 0 0-0.76-0.75m-15.25.33a10 10 0 0 0 .49 3.21c.23.69.61 2.34-0.46 2.54a18.09 18.09 0 0 0-0.68-3 6 6 0 0 1 0-1.59c0-0.56 0-1.28.7-1.16m28.26.35c.81.73 2.08 1.61 2.26 2.74-0.82-0.31-3.19-1.59-2.26-2.74m-30.25.66c-0.25 1.41 2.2 4.56.28 5.5 0-1.43-1.93-4.45-0.28-5.5m15 .67a4.7 4.7 0 0 0 2 1.49c0-1-1.16-1.49-2-1.49m-17 .84a29.38 29.38 0 0 1 .92 3.3 1.31 1.31 0 0 1-1.9 1.46c.71-0.81 1-1.1.84-2.26-0.11-0.73-0.35-1.87.14-2.5m9.76 1.7A4.18 4.18 0 0 1 69.1 30a1.55 1.55 0 0 0 1.34 1c-0.09-0.34-0.2-0.66-0.26-1a13.06 13.06 0 0 0 2.54.67c.61 0 2.23-0.15 2.74.22s.4.66.86.44.52-0.73.68-1.05.61-0.62.68-0.82-0.23-0.77-0.39-1a5 5 0 0 0-4.87-1.4 19.52 19.52 0 0 1-2.55.75c-0.87.07-1.56-0.51-1.94.66m18-1.35c0 .13.08.67 0 .75a2.69 2.69 0 0 1-0.75 0 2.69 2.69 0 0 1 0-0.75c.08-0.08.62 0 .75 0m4.75 0c.6.53 1.51 1.09 1.51 2-0.52-0.27-2.08-1.29-1.51-2m-16.75.34c0 .33.21 1.39-0.49 1-0.54-0.3.19-0.8.49-1m15.75-0.08c.83 1 1.63 2.08 2.43 3.13a6.54 6.54 0 0 1 1.36 4.09c-0.57-0.34-0.75-1.2-1-1.74a18.3 18.3 0 0 0-1.34-1.92c-0.53-0.71-2.28-2.62-1.41-3.56m-14.5.57c0 1.05-0.34 2.19-1.6 2.21a1.77 1.77 0 0 1-1.64-1.44c.58 0 1.28.47 1.85.28s.6-1.18 1.39-1.05m9.25.2c.83.64 1.39.26 2.25 0a1.39 1.39 0 0 1-1.37 1.31c-0.57-0.06-1.42-0.68-0.88-1.3m-13.24.57a1.31 1.31 0 0 1 .5 1c-0.45-0.06-0.82-0.61-0.5-1m19.26 2.15a5 5 0 0 1 1.26 2.24c-0.56-0.32-1.77-1.56-1.26-2.24m-30 .41c.59 1.79-2.69 2.85-3 1.26a4.27 4.27 0 0 0 1.8-0.41c.42-0.22.77-0.6 1.19-0.85m1.22 1.21A5.4 5.4 0 0 1 62 35a10.76 10.76 0 0 1-0.29 2.88c-0.29 1.12-1.07 1.47-2.12 1.74a12.72 12.72 0 0 1-2.82-0.09 10.19 10.19 0 0 0 4 .73c-0.53.84-1.55.75-2.4.63-1.13-0.16-2.22-0.3-3.35-0.35-0.06.75.46.52 1.1.56a5.11 5.11 0 0 1 1.41.2 10.22 10.22 0 0 0 3.25.46c0 1-1.25 1-1.94.8a13 13 0 0 0-3.16-0.63c-0.75 0-2 1.28-2.53.31s.54-2 1.13-2.69a4.62 4.62 0 0 1 2.6-1.1 18.75 18.75 0 0 0 3-1.24c2-0.85.15-3.8 1.8-4.71m2.25.24c.33.61.16 1.29.3 1.94a8.37 8.37 0 0 1 .32 2.21c-0.11 1.25-0.33 3.84-2.08 3.86a6.67 6.67 0 0 1 .38-2 12.68 12.68 0 0 0 .1-2c0-0.79-0.42-4.22 1-4m25.75.62a12.46 12.46 0 0 0 .77 2 17 17 0 0 1 1 1.71c-1.08-0.22-3.08-2.86-1.77-3.74m1.3.26a3.66 3.66 0 0 1 1.27 2.74c-0.85-0.17-1.94-2-1.27-2.74m-30.79.4c-0.11.71 0 1.73-0.55 2.24a5 5 0 0 1-2.18 1.52c-0.4.12-0.82.17-1.22.25s-0.78.15-0.79-0.3a10 10 0 0 1 .24-2.44 2.48 2.48 0 0 1 .26 1.5c.54-0.7 1-2.11 2-2.26 0 .76-0.3 1.5-0.24 2.25 1.13-0.65 1-2.47 2.49-2.76m3.5.73v3.75c.87-0.64.62-3 0-3.75m26 2.11a10.14 10.14 0 0 0 3 1.34c1 .25 2.36.71 2.56 1.89-0.47-0.24-0.89-0.53-1.38-0.73s-1.3-0.15-1.9-0.34-2.65-1.18-2.26-2.16
  M54 38c0 1-0.93 1.31-1.32 2.08-0.15.27-0.65.91-0.61 1.21.07.57.13 1.13.2 1.69a2.32 2.32 0 0 0 .79.77c.49-0.09 1-0.22 1.46-0.3.69-0.12 2-0.38 2.51.29a19.59 19.59 0 0 1-2 .74c-0.69.27-1.28.93-2 1.08s-1.61-0.53-2.22-0.93a5.31 5.31 0 0 0-2-0.85c.59.48 1.22.9 1.83 1.36s1.2.86 1.36 1.41a8.78 8.78 0 0 1-2.26-1.2 4.46 4.46 0 0 0-1.25-0.49c-0.3 0-1.09 0-1.26-0.4s.18-0.93.41-1.14a3.07 3.07 0 0 1 1.36-0.53c.78-0.24 1.77.29 2.52.51a5 5 0 0 0-1.27-0.86 7.53 7.53 0 0 1-1.48-0.7c0-1.34 2-0.35 2.74-0.44-0.1-0.91-0.26-1.66.4-2.4A3.13 3.13 0 0 1 54 38m35 .32a12.84 12.84 0 0 0 1.81 1.19 3 3 0 0 0 1.24.36 3.11 3.11 0 0 1 1.18.06c.84.32 1.74.6 2 1.57s0 1.68.27 2.54c.57-0.18 1.12-0.56 1.68-0.8s1.54.14 2.21.29 1 .59 1.5 1.2.18 1.36.44 1.92a2.21 2.21 0 0 0 1.49 1.41 1.41 1.41 0 0 1 1 1.67 1.11 1.11 0 0 1-0.35.89c-0.14.14-0.74.51-0.95.38 0 0-0.28-0.82-0.32-0.9-0.12-0.29-0.3-0.56-0.43-0.85a8.6 8.6 0 0 1 1 .25 2.7 2.7 0 0 0-2.26-1 4.71 4.71 0 0 0 1 .49c-0.64.51-1.49 0-2.15-0.16s-1-1.52-1.12-2.07c-1.29.43-2.74.83-4 0s-1.06-2.74-1.27-4a10.6 10.6 0 0 1-1.58.17c-0.52.05-0.65-0.13-1.09-0.45-0.88-0.63-1.66-1.05-1.84-2.2.88.59 1.33 1.3 2.46 1.4a4.74 4.74 0 0 1 2.8.82 2.64 2.64 0 0 0-2.25-2.21c-0.69-0.08-1.33 0-1.84-0.5S88.52 39 89 38.36m-10.5.55c1 .87 2.79-0.17 3.51 1a5.54 5.54 0 0 1-1.07-0.1 7.73 7.73 0 0 0-1.18.11 6.5 6.5 0 0 1-2.33-0.18c-0.14 0-0.9-0.38-1-0.24a2.51 2.51 0 0 0-0.22 1c0 .6.24.42.79.42a7.19 7.19 0 0 0 1.23-0.05c.85-0.14 1.7.05 2.52-0.07a7.78 7.78 0 0 0 1.25-0.22c.58-0.17.79 0 .79-0.69s0-0.49-0.53-0.67a4.14 4.14 0 0 0-1.14-0.33 6.64 6.64 0 0 0-2.59 0.00
  M53.74 41c.31.22.67.07 1 0a.91.91 0 0 0-1 0m27.75.11a4.79 4.79 0 0 1-3.49.77c.65 1 4.17.31 3.49-0.77m7 .71c.5.43 1.41 1 1.51 1.74-0.74 0-2-0.93-1.51-1.74m-1 .26c.2.63.82 1.9 1.53 2.06l1.88.4a4.32 4.32 0 0 0 1.35-0.24c0 .55.28 1.87-0.49 2-0.11-0.8-1.21-0.5-1.75-0.62a11.47 11.47 0 0 1-2-0.86 8.89 8.89 0 0 0 1.76 1.24c-1.12 1.07-5.19-2.51-2.27-4m-25 .38c.06 2.54-2 2.75-3.93 3.34a10.8 10.8 0 0 0-2.77 1.52c-0.78.51-0.86 1.92-1 2.74-0.54-0.35-0.54-1.43-0.51-2a3.9 3.9 0 0 0-0.49 2c-0.6-0.41-0.77-2.45-0.39-3s.58-1.19 1.09-1.46a10.61 10.61 0 0 1 1.77-0.76c1.19-0.38 2.41-0.26 3.62-0.61 1-0.3 1.73-1.17 2.62-1.69m1.5 0a5.21 5.21 0 0 1 .89 3.93A3.43 3.43 0 0 1 61.59 49a22.44 22.44 0 0 0-4.42.25c-0.6.12-1.15 1-0.83 1.54.22.35.3.7.71.75s.72-0.32 1-0.52a2.6 2.6 0 0 1-1-0.49c-0.29-0.52.31-0.65.66-0.62a1 1 0 0 1 .73.82c0 .22 0 1.14-0.32 1.17-0.93.1-1.84.44-2.15-0.68a4 4 0 0 1 .09-2.77c.58-1.66 3.27-1.8 4.7-2.24a3.78 3.78 0 0 0 2.12-1.5 4.5 4.5 0 0 0 .67-1.26 2.44 2.44 0 0 1 .46-1m13.76 2.18c.79-0.13 1.32-0.6 2.17-0.6a1.49 1.49 0 0 1 1.34 1.58c1.06-0.71-0.15-2-1-2.09s-2.2.2-2.49 1.11m-9.5-1c.13.29.19.59.5.74a1.58 1.58 0 0 0-0.5-0.74m29.5.09c.34.42.89.56 1.28.92a9.26 9.26 0 0 0 1.48 1.32 2.07 2.07 0 0 0-0.91-1.54 2.56 2.56 0 0 0-1.85-0.7m-10.25.56c-0.08.33.26.37.5.49-0.12-0.24-0.17-0.57-0.5-0.49
  M63.76 45A7.64 7.64 0 0 1 61 46.83c-0.84.24-2.5.38-2.71 1.44.3 0 1.91-0.83 1.5.24 1.62 0 3.9-0.17 4.49-2a11.94 11.94 0 0 0-2 1.12A4.56 4.56 0 0 1 60 48c.74-0.39 1.55-0.52 2.28-0.94s2-1.17 1.45-2.08m-12.2 2.82a24.18 24.18 0 0 1-2.72-1c-0.67-0.3-1.91.6-1.46-0.68.61-1.73 4 .49 4.18 1.72m42.23-2.72a2.87 2.87 0 0 0 2.76 1.49c-0.37-0.31-0.91-0.26-1.3-0.53s-1-0.87-1.46-1
  M71 45.45c-0.08.34.25.38.5.5.08-0.33-0.26-0.37-0.5-0.5m1 .25a1.43 1.43 0 0 0 .75 1 1.51 1.51 0 0 0-0.75-1m1.25.49c-0.08.34.25.38.5.5-0.12-0.25-0.17-0.58-0.5-0.5m10 9.7a8.56 8.56 0 0 0 .24-1 13.9 13.9 0 0 0-1.78 1c-0.63.43-1.18 1-2 .56a2 2 0 0 1 1.29-0.71 3.85 3.85 0 0 0 .6-0.09c.08-0.11-0.07-0.63-0.12-0.75a5.56 5.56 0 0 0-0.86-0.85 2.74 2.74 0 0 1 1.07-1.22 18.26 18.26 0 0 0 4.3-5c.22-0.36.49-1 .89-1.17.55-0.23 1.21.29 1.67.49.91.4 2.38.43 2 1.74a10.18 10.18 0 0 1-1.82 3 16.84 16.84 0 0 1-2.33 2.59c-0.61.56-2.19 1.65-3.06 1.45m-34-8.57a2.33 2.33 0 0 1-1.49 1.75c0-1.19.31-1.66 1.49-1.75m44.26.51c-0.29-0.13-0.6-0.19-0.75-0.49a.65.65 0 0 1 .75.49m-1.5.26c.56.7.21 1.47-0.17 2.17-0.49.9-0.89 1.84-1.32 2.76-0.75 1.65-1.46 3.34-2.13 5s-1.52 3.53-2.17 5.32-0.8 3.45-1.6 5c-0.88-0.5-1-1.86-1.22-2.74-0.22-1.07-0.48-2.13-0.66-3.21a30.16 30.16 0 0 0-0.71-3.13 4 4 0 0 1-0.25-1.46c0-0.61.49-0.79 1-1a25.19 25.19 0 0 0 3-1.31 9.72 9.72 0 0 0 2.47-2.36 30 30 0 0 0 1.91-2.71A8 8 0 0 1 92 48.13h.06m-7.5 47.29a3.83 3.83 0 0 1-1.75-2.55c-0.32-1.25 1.29-1.57 1.46-2.7a2.36 2.36 0 0 0-0.45-1.28 3.76 3.76 0 0 1-0.63-1.65C83 86.06 84.44 85.59 85 84.7s-0.7-1.9-0.8-2.86a1.75 1.75 0 0 1 .28-1.54c.27-0.41.92-0.55 1.25-0.92s.76-0.71.57-1.38a7.68 7.68 0 0 0-0.72-1.57c-0.67-1.24.41-2 1.31-2.57 1.1-0.75.85-1.63.38-2.74s-0.84-2.13.4-2.83 2-1 1.78-2.43c-0.13-1-1.19-2.23-0.33-3a4.25 4.25 0 0 1 1.46-0.86c.37-0.16 1-0.39 1-0.85a8.93 8.93 0 0 0-0.58-3.3c-0.18-0.62-0.33-0.75.29-1.06s1.14-0.49 1.71-0.74c1.09-0.48 1.77-0.91 1.48-2.26-0.13-0.58-0.26-1.16-0.35-1.75s.27-0.85.76-1.27a10 10 0 0 1 2.86-1.21c-0.87-0.46-2.12.3-2.94.59a1.84 1.84 0 0 0-1.33 2.43c.16 1 .58 2.31-0.55 2.82-0.81.38-2.52.64-2.76 1.71s.62 2.26.63 3.3c0 1.25-1.67 1.22-2.35 1.9s-0.54.69-0.45 1.49a5.32 5.32 0 0 0 .6 1.7c.5 1.19-0.3 1.79-1.33 2.26a6.72 6.72 0 0 1-1.59.62c.28-4.41 2.75-8.56 4.24-12.65a30.69 30.69 0 0 1 1.3-3 17.07 17.07 0 0 1 1.51-2.87 3.26 3.26 0 0 1 2.79-1.5c.82 0 2.86-0.22 3 1a6.42 6.42 0 0 1-0.53 1.77 4.59 4.59 0 0 1-0.62 1.23c-0.62 1-1.2 2-1.79 3a55.32 55.32 0 0 0-2.71 5.91 100.13 100.13 0 0 0-4.38 12.58c-1 3.55-1.72 7.24-2.35 10.87-0.31 1.77-0.45 3.56-0.7 5.34-0.13.93-0.15 1.86-0.31 2.79a6 6 0 0 1-0.53 2.52
  M50.28 49.06a1.21 1.21 0 0 1-1 .51c-0.12-0.64.61-1.15 1-0.51m14.25-0.32a39.84 39.84 0 0 0 4.27 3.62 4.78 4.78 0 0 1 .86.88c.24.31.2.82.52 1.13a7.31 7.31 0 0 0 2.39 1.08 5.43 5.43 0 0 1-0.75.5c.57.27 1.19.44 1.75.74-0.72.58-2.23.21-3-0.08A13.41 13.41 0 0 1 67.15 55a6.26 6.26 0 0 1-1.57-1.21 14.7 14.7 0 0 1-1-1.88c-0.42-0.91-1.26-2.46 0-3.12m-2.24 1a11.55 11.55 0 0 1 1.16 2.61c.38 1.06.92 2.05 1.31 3.11.79 2.11 1.59 4.24 2.23 6.4S68.34 66 69 68c.33 1 .6 2.08.89 3.12s.17 2 .47 3a40.24 40.24 0 0 1 1.23 4.55c.28 1.55.42 3.13.81 4.65s.45 2.85.69 4.25a27.81 27.81 0 0 1 .43 4.55 5.06 5.06 0 0 1-2.28-1.64c-0.75-0.92.4-1.77.73-2.66a1.28 1.28 0 0 0-0.16-1.53 3.88 3.88 0 0 0-1.27-1c-0.45-0.28-0.62-0.33-0.41-0.86s.64-0.88.82-1.38c.24-0.67.54-1 .08-1.49a5 5 0 0 0-1.46-1c-1.3-0.75-0.41-2 .1-2.89.15-0.25.63-1 .4-1.22a6.43 6.43 0 0 0-1.38-1.22l-1.4-0.92c-0.26-0.18.16-1 .29-1.2.53-1 1.34-2 1.32-3.14a5.73 5.73 0 0 1-3-1c-0.84-0.65.2-2.14.56-2.81.16-0.28.58-1.18.32-1.45a4 4 0 0 0-1.53-0.94 6.42 6.42 0 0 1-1.4-0.84c-0.22-0.16 0-1.23.17-1.48a13.66 13.66 0 0 0 .69-1.38c.32-0.81.45-0.94-0.11-1.61a3.47 3.47 0 0 0-1.31-0.84 6.07 6.07 0 0 1-1.51-0.62c-0.14-0.14-0.45-0.08-0.46-0.3a2.28 2.28 0 0 1 .18-0.77c.19-0.54.5-1 .68-1.57s.32-0.87-0.06-1.25c-0.22-0.22.16-1.28.12-1.6s-0.32-1.31 0-1.71m3.48 44.48a1.91 1.91 0 0 1-1.25-0.66c-0.53-0.51-0.32-0.95-0.23-1.66.06-0.45-0.31-0.79-0.62-1.08a6.82 6.82 0 0 1-1-1.55c-0.15-0.25.4-1.15.51-1.39a1.23 1.23 0 0 0-0.07-1.46c-0.27-0.46-0.74-0.67-1.12-1-0.55-0.55-0.49-0.86-0.45-1.59 0-0.45.39-0.91.48-1.36.14-0.73 0-1-0.56-1.51a8.91 8.91 0 0 1-1.2-1c-0.46-0.61-0.35-0.89-0.2-1.64a8 8 0 0 1 .49-1.34l.28-0.72c.19-0.49.09-0.39-0.29-0.57A7.25 7.25 0 0 1 58 74c-0.69-0.87.38-2 .5-2.94s.08-0.91-0.58-1.42c-0.44-0.33-0.92-0.61-1.37-0.91-0.9-0.59-1.48-1.24-1.12-2.34a6.32 6.32 0 0 0 .39-1.64c0-0.82-0.08-0.95-0.67-1.5a6.5 6.5 0 0 0-1.48-0.77 7.34 7.34 0 0 1-1.28-0.93c-0.14-0.11 0-1.16.11-1.37.23-0.59.47-1.19.71-1.78.6-1.43-1-1.64-2-1.93-0.27-0.08-1.15-0.35-1.17-0.63a3.21 3.21 0 0 1 .17-1.74 9.7 9.7 0 0 0 .84-2.31 5 5 0 0 1-1.54-0.25l-0.94-0.23c-0.21 0 0-0.52.17-0.58 1-0.38 2.07-0.51 2.67.57a62.85 62.85 0 0 1 3.14 5.9c1.78 4.15 3.54 8.29 5 12.56 1.45 4.11 2.45 8.29 3.8 12.42.61 1.93 1.16 4 1.58 6 .22 1.08.34 2.18.63 3.24.23.83.64 2 .21 2.81m-6-43.72c.87.87.14 2.76-1 3 1.18.45 1.9-1.36 2.49-2 .53 1-0.42 1.75-1 2.42s-1.74.38-2.66.21c-0.17 0-0.74-0.77-0.52-0.89a12.73 12.73 0 0 0 1.18-0.56 2.41 2.41 0 0 0 1-1 4.92 4.92 0 0 1 .52-1.14m43 1.28a7.09 7.09 0 0 1-1.26 2.92c-0.52.94-1.12 1.84-1.6 2.79-1.06 2.08-2.09 4.17-3.11 6.26a73.65 73.65 0 0 0-4.54 12.68c-0.56 2.07-1.23 4.09-1.72 6.19s-0.87 4.27-1.22 6.44c-0.22 1.35-0.35 5.79-2.4 5.48-1.3-0.19-0.82-1.69-0.71-2.62s.14-2.12.27-3.18A92.59 92.59 0 0 1 88.9 75.9a86.76 86.76 0 0 1 4.29-12.68c1.24-2.78 2.51-5.52 3.87-8.25a22 22 0 0 1 2.33-3.73c.36-0.46 1-1 1.57-0.57a4 4 0 0 0 1.82 1.16m-15.49-1.21c-0.83.84-2.38 1.84-2.73 3a3 3 0 0 0 1.52-1.13c.43-0.47 1.29-1.15 1.21-1.88m-34.46 6.94c-0.15 1-0.77 1.93-0.95 3-0.12.65-0.34 1 .17 1.46a7.32 7.32 0 0 0 1.67 1c1 .49 1.89 1 1.45 2.24-0.3.87-1.12 2.47-0.13 3.14.74.5 2.46.87 2.85 1.72s-0.56 2.27-0.71 3.18c-0.19 1.18 1.11 1.62 2 2.12 1.2.69.76 1.68.28 2.71a1.51 1.51 0 0 0-0.14 1.43 4.29 4.29 0 0 0 1.29 1.29c1.2.92.71 1.7.31 2.93-0.51 1.54.95 1.67 1.56 2.78.49.88-0.47 2.23-1 3-0.7-0.51-0.89-1.86-1-2.65a31.16 31.16 0 0 0-0.93-3.44c-0.67-2.06-1.25-4.1-2-6.14A111 111 0 0 0 52.24 65c-2-3.91-4-7.83-6.19-11.65-1.75-3 4.13-1.56 3.9-0.48-0.15.73-1.1 2.45-0.68 3.12s2.24 1 3 1.29a2.84 2.84 0 0 1 .53.25m.47-6a7.25 7.25 0 0 0 1.29.49c.76.07.19.76.47 1.2s.89.63 1.25.9a11.18 11.18 0 0 1 1.32 1.16 9.14 9.14 0 0 1 1.31 2.87c.41 1.11.81 2.22 1.29 3.3.89 2 1.42 4.19 2.3 6.21s1.2 4.2 1.87 6.27c.53 1.65.82 3.36 1.26 5s.93 3.41 1.29 5.14c.74 3.63 2 7.39 2.08 11.09-1.29 0-1.61-0.72-1.9-1.87s-0.46-2.12-0.76-3.16c-0.61-2.13-1.08-4.3-1.63-6.46-1.08-4.23-2.43-8.38-3.66-12.58-0.48-1.63-1.13-3.3-1.77-4.88s-1.2-3.39-1.92-5.05-1.35-3.36-2.17-5c-0.38-0.77-0.73-1.56-1.14-2.33-0.3-0.57-1.18-1.7-0.78-2.34m38 41.55a2.73 2.73 0 0 1-1.25.5c-0.79.09-0.51-0.58-0.51-1.22a21 21 0 0 1 .36-3.15c.34-2.11.81-4.18 1.26-6.26.49-2.28 1.1-4.52 1.76-6.75s1.21-4.16 2-6.16a94.15 94.15 0 0 1 5.49-12.26c1.1-2 2.12-4 3.41-5.8.8-1.16 1.41 1 1.52 1.61.21 1.12.44 2.17-0.74 2.76-0.43.21-1 .22-1.36.55-0.72.66-0.8.67-0.75 1.64.07 1.13.38 2.28-0.7 3-0.85.54-2.37.56-2.28 1.85 0 .77.88 2.52.26 3.15s-2.38 1-2.7 1.9a3.31 3.31 0 0 0 .2 1.37 6.1 6.1 0 0 1 .29 1.84c0 .92-1.92 1.27-2.43 1.91-0.7.89 0 2.15.38 3.09.73 2-2.63 1.88-2.38 3.61.23 1.54 2.16 3.31.46 4.57-0.75.55-1.54.92-1.39 1.92.11.75 1 1.39.93 2.19s-1 1.44-1.57 1.89a2 2 0 0 0-0.26 2.37m-78-5.84a12.75 12.75 0 0 1 .42-3.32A19.94 19.94 0 0 1 15 80.83a21.3 21.3 0 0 1 4.14-5.08c1.65-1.67 3.27-3.35 5-5A16.18 16.18 0 0 1 27 69c.45-0.26.93-0.42 1.19-0.88a5.1 5.1 0 0 0 .49-1.58 11.55 11.55 0 0 1 3.13-5.86 52.68 52.68 0 0 1 5-4.19 27.15 27.15 0 0 1 5.66-3.87c1-0.46 2-0.53 2.69.5S46.4 55.06 47 56a44 44 0 0 1 2.93 5.77c.13.34.45 1 .3 1.38a5.54 5.54 0 0 1-0.86 1.52c-0.75.85-1.57 1.54-2.38 2.33-1.65 1.57-3.23 3.17-4.94 4.67s-3.45 2.73-5.13 4.15c-0.83.69-1.64 1.42-2.51 2.07a7 7 0 0 1-1.24.92 1.64 1.64 0 0 1-1.77 0c-1-0.45-1.86-1.21-2.89-1.64a5.3 5.3 0 0 0-3.29.16 12.72 12.72 0 0 0-5.69 3.56 48.32 48.32 0 0 0-4.45 4.71c-0.47.59-1 1.46-1.83 1.61
  M95.3 51.83c0 .25.12.88.5.49s-0.25-0.55-0.5-0.49m4.75.47c-0.29.17-0.25.38-0.25.67 0 .5.43.2.61.05.53-0.4.33-0.85-0.36-0.72m-22 5.12c0-0.53.22-2-0.12-2.38s-0.45-0.61-1.07-0.38a8.73 8.73 0 0 0-0.82.52c0-0.53-0.07-1.71.53-2 .89-0.41 1.52-0.59 2.12.37s.6 3.52-0.64 3.85m14.4 28.42c.66-0.35 2-0.92 2.35-1.59s-0.54-2.34-0.9-3.09c-0.61-1.28.21-1.86 1.22-2.49.28-0.18.92-0.67.9-1a6.13 6.13 0 0 0-0.33-1.91 9.31 9.31 0 0 1-0.43-1.48c-0.09-0.52.47-0.93.87-1.21a15.42 15.42 0 0 0 1.4-0.72c.61-0.51.55-0.7.51-1.5s-0.93-2.21-0.08-2.79a23.94 23.94 0 0 1 2.88-1.54c-0.2-0.7-0.41-1.39-0.59-2.1-0.13-0.46-0.24-1.7.24-2a12.74 12.74 0 0 0 1.94-1 1.67 1.67 0 0 0 .62-1.86c-0.06-0.36-0.42-1.87 0-2.11a19.06 19.06 0 0 1 2.28-1.09c1.46-0.59.11-2.7.68-3.8a3.83 3.83 0 0 1 2.1 1.88c.42.66-0.84 2.16-1.16 2.74a84.46 84.46 0 0 0-3 5.93 124.69 124.69 0 0 0-5.34 12.55 76.27 76.27 0 0 0-3.14 12.83c-0.13.86 0 2.19-0.72 2.8s-2 1.66-2.87 1 .93-1.93 1.29-2.38c.8-1 0-2-0.47-2.94a1.92 1.92 0 0 1-0.26-1.06
  M66.05 53c.39.66 1.34.8 2 1-0.24-0.67-1.38-0.92-2-1m9.51.2a11.26 11.26 0 0 0-0.24 2 6.71 6.71 0 0 1 0 2 1.91 1.91 0 0 1-1.09-1.84c.13-1 0-2.12 1.32-2.16m-24 1.12c-0.05.25.13.88.5.5s-0.25-0.55-0.5-0.5m21.5.14a.89.89 0 0 1-1 0 .89.89 0 0 1 1 0m30.5-0.16c0 .25.13.88.5.5s-0.25-0.55-0.5-0.5m-42.75.48c0 1-0.71 2.18.57 2.77.5.23 2.81.95 2.66 1.65a4 4 0 0 1-0.43 1.42 13.05 13.05 0 0 0-0.88 1.65c-0.18.45-0.58.92 0 1.12s.87.41 1.32.57c1.16.43 2.27.9 1.6 2.29-0.41.85-1.48 2-0.61 2.85.42.39 2.68 1.06 2.58 1.73-0.18 1.2-0.87 2.09-1.09 3.26-0.16.86 1.64 1.45 2.15 1.94a1.06 1.06 0 0 1 .33 1.43c-0.19.51-0.69.89-0.85 1.41-0.24.84-0.22.87.28 1.59.28.39 1 .5 1.3.84.57.57.6.67.47 1.47-0.09.51-0.55.91-0.76 1.39-0.34.75-0.22.85.27 1.51a4.64 4.64 0 0 0 1.25.78c.47.26.63.29.4.85a11.36 11.36 0 0 1-0.92 1.63c-0.2.32-0.61.86-0.52 1.28s.76 1 1.17 1.29 1 .6 1 1-0.43 1.23-0.72 1.64a10 10 0 0 1-1.12 1.3 15.49 15.49 0 0 1-0.76-3c-0.25-1-0.43-2-0.68-3-0.55-2.18-1-4.38-1.46-6.58-1-4.38-2.46-8.65-3.4-13a25.44 25.44 0 0 0-1.4-3.92c-0.57-1.42-1.07-2.86-1.6-4.3s-1.08-2.79-1.6-4.19c-0.15-0.4-0.85-1.77-0.56-2.17a6 6 0 0 1 2-0.51m10.36 15.68c-0.9-0.65-1.18-2.7-1.5-3.67-0.4-1.2-0.79-2.4-1.16-3.61s-0.8-2.61-1.18-3.93c-0.33-1.16-1.07-2.53-1-3.76a5.89 5.89 0 0 1 2.25.92 18.13 18.13 0 0 0 2.57 1 10.88 10.88 0 0 1 2.35.51c.82.5.48 1.38.27 2.17-0.44 1.64-0.93 3.27-1.4 4.9-0.52 1.81-0.68 3.7-1.21 5.49m38.67-14a16.84 16.84 0 0 1 3.12 3.76c.52.82 1 1.65 1.59 2.46a5.09 5.09 0 0 1 1.09 2 6.35 6.35 0 0 1-1.61-1.91c-0.49-0.69-1.08-1.28-1.58-2s-1.08-1.38-1.55-2.1c-0.35-0.56-1.26-1.51-1-2.22m-53.24 1c-0.06.43.41.81.74.57s.26-0.71.26-1.08a2.71 2.71 0 0 0-1 .51m35.75-0.19c.06.46.09 1.15.75 1-0.08-0.51 0-1.17-0.75-1m5 0a3.23 3.23 0 0 0-0.47.9c-0.07.27.79.32 1 .34 0-0.52 0-1-0.5-1.24m11.75-0.07a38.59 38.59 0 0 0 3.51 4.8 13.75 13.75 0 0 1 1.91 2.72c.25.63 1.06 2.93-0.37 2.29-0.82-0.37-1.22-1.45-1.75-2.13-0.7-0.87-1.41-1.74-2.08-2.63-0.85-1.12-3.92-4.41-1.3-5m-29.5.91c1 1.62 1 3.57 1.31 5.4.19 1 .41 1.93.63 2.89s.33 2.16 1.12 2.69c0-1.81-0.73-3.65-1-5.43a42.4 42.4 0 0 1-0.83-5.56c.92.59.93 1.79 1.11 2.75s.31 2.16.46 3.24c.31 2.2 1.08 4.26 1.25 6.47a16 16 0 0 1-3.17.63c-1.32.19-1.56-0.89-1.59-2-0.07-2.31-0.52-4.57-0.55-6.9 0-1.16-0.25-2.29-0.25-3.46.91.35.72 1.72.76 2.49.05 1.15.23 2.27.25 3.42a21.09 21.09 0 0 0 .38 3.21 4.41 4.41 0 0 0 .81 1.71c.26.39 1 .09 1.37 0-0.24-0.13-1.13-0.13-1.25-0.25s-0.19-1.27-0.23-1.55c-0.16-1.12-0.13-2.26-0.29-3.39s.07-2.21 0-3.3c-0.07-0.74-0.74-2.33-0.25-3m-3.5.52a5.58 5.58 0 0 1 .27 2.54 18.69 18.69 0 0 1-0.21 3.08c-0.18 1.06-0.06 5.2-1.76 5s-0.1-4.2.12-5.17.5-1.92.68-2.89.14-2 .9-2.6m-1.24.25a29.44 29.44 0 0 1-1.15 5.78c-0.25 1-0.52 2-0.72 3a2.35 2.35 0 0 0 0 1.39 1.9 1.9 0 0 0 1.21.64c.38 0 1.17.1 1.47-0.15a2 2 0 0 0 .5-1.28 16.65 16.65 0 0 0 .18-3.33 21.33 21.33 0 0 1 .43-3 22.2 22.2 0 0 0 0-3.16c.52.58.26 2.11.26 2.85v3.4c0 1.13-0.16 2.18-0.23 3.25-0.05.76 0 2.43-0.94 2.59a4.35 4.35 0 0 1-3.06-0.68c-0.53-0.41-0.77-0.57-0.68-1.26s.17-1.12.26-1.68c.34-2.18 1.12-4.26 1.43-6.43a3.09 3.09 0 0 1 1-2m-13.25.32c0 .46 0 .9.5 1 0-0.59.23-1.1-0.5-1m-7.5 1c0 .11-0.05.5.06.5s.62.07.7 0 0-0.5-0.06-0.5h-0.7m5 2.48a2.63 2.63 0 0 0-0.25 1h1c-0.08-0.5 0-1.17-0.75-1m35.25-0.19v1c.39-0.06 1 0 1-0.5s-0.62-0.44-1-0.5m-4.5 1a.82.82 0 0 0 .76.75c-0.05-0.46-0.24-0.8-0.76-0.75m15 .18c.9.27 1.45 1.25 2 2s1.2 1.6 1.83 2.39 1.2 1.56 1.78 2.35c.28.38 1.17 2.35.05 2.35-0.81 0-1.56-1.44-2-2-0.54-0.73-1-1.51-1.57-2.24-0.9-1.2-3.31-3.22-2.11-4.82m-53.75.53c.85 1.54-2.56 4.09-3.47 5a67.69 67.69 0 0 1-5 4.58c-1 .8-1.9 1.62-2.83 2.47-0.75.69-1.65 1.2-2.41 1.88a10.94 10.94 0 0 1-2.71 2c-0.32.15-1 .46-1.26 0s.24-1 .5-1.31a45.37 45.37 0 0 1 4.26-3.56c1.56-1.27 3.14-2.49 4.7-3.76s2.7-2.58 4.11-3.84c.71-0.62 1.33-1.33 2-2s1.25-1.38 2.06-1.54m12.76 1.18c-0.32.19-0.45.92.1.75.3-0.09.37-0.49.4-0.75a2.78 2.78 0 0 0-0.5 0m34.25-0.18c0 .11-0.05.5.06.5s.62.07.69 0 0-0.5-0.06-0.5h-0.69m-46 1a8.33 8.33 0 0 1 .77 2.25c-0.35 0-2-0.13-2.18.29a4.4 4.4 0 0 0-0.56 2.25v1.33c0 .44-0.15.39-0.69.4-0.72 0-1.47-0.08-2.18 0s-1.12.52-1.13 1.41a6.64 6.64 0 0 1-0.37 2.62c-0.27.72-3.75.05-4.36 0v2.92a3.88 3.88 0 0 1-0.33 1.45c-0.13.34-0.81.38-1.16.39a22.4 22.4 0 0 0-2.71-0.1c-0.83.11-0.71 1.48-1 2.12-0.71-0.39-1.7-1.59-1.25-2.43a7.58 7.58 0 0 1 2.14-2c1.8-1.41 3.56-2.94 5.24-4.5s3.33-2.91 4.92-4.45c.82-0.64 1.72-1.3 2.49-2.1s1.45-1.7 2.45-1.73m4.5 0c0 .13-0.07.67 0 .75a2.7 2.7 0 0 0 .75 0 2.7 2.7 0 0 0 0-0.75c-0.08-0.08-0.62 0-0.75 0m47.5-0.25c1.28 1.39 2.34 2.93 3.54 4.38.86 1 2.8 3.11 2 4.59-0.36-0.35-0.55-1.44-1.11-1.5-0.88-0.08-1.72 0-2.6 0-0.2 0-0.07-4.35-0.07-4.75-1.18 0-2.31.26-3.5.27a5 5 0 0 1 1.73-3m-11.73 2.08v1c.39-0.06 1 0 1-0.5s-0.62-0.44-1-0.5m-14.24.33a14 14 0 0 0 .39 2.72 13.06 13.06 0 0 1 .13 2.58 2.85 2.85 0 0 0 .23 1.22c.22.51.58.44 1.12.55a12.47 12.47 0 0 0 2.66.15 43.26 43.26 0 0 1-1.12 6.28 47.39 47.39 0 0 0-1.07 6.68c0 1.07-0.2 2.18-0.32 3.25A26.87 26.87 0 0 0 80 95a1.26 1.26 0 0 1-0.55 1.27c-0.54.4-1.11.35-1.36-0.34a12.11 12.11 0 0 1-0.1-3.56v-4.16c0-1.45-0.16-2.82-0.27-4.25a19.09 19.09 0 0 1 .12-4c.13-1 .28-3.18-0.66-3.75 0 2.32.1 4.67-0.09 7-0.09 1 .13 2 .14 3v3.6c0 .47-0.18.92-0.22 1.38a13.61 13.61 0 0 0 .1 1.56 9.2 9.2 0 0 1-0.2 3.25c-0.2.58-0.3 1-1 .7s-0.85-0.48-0.92-1.27c-0.11-1.08-0.2-2.16-0.3-3.25-0.33-3.53-1.23-7-1.72-10.52-0.25-1.82-0.71-3.58-1-5.39-0.15-0.94.67-1.4.8-2.27s.44-1.69.57-2.56c1.51.21-0.27 3.28-0.48 4 1.66.39 4.83 1.38 4.74-1.35a20.32 20.32 0 0 1-0.11-2.92c.07-0.74-0.11-2.28.59-2.75m-27.17 4.89c0-0.47.07-0.91.06-1.38a9 9 0 0 1 0-1.55c.24-1.48 1.59-1 2.58-0.56.31.14.14 1.12.14 1.44s-0.79 1.08-1 1.37a20.79 20.79 0 0 1-2.3 2.37c-1.55 1.49-3.2 2.85-4.72 4.38a51.92 51.92 0 0 1-5 4.33l-1.59 1.24c-0.21.17-1.15.56-1.3.36a2.85 2.85 0 0 1-0.25-3c.42-0.86 2.27-0.12 3-0.17C42 82 42 80.69 42.14 79.49s-0.14-2.17 1.42-2c.68.08 2.57.47 2.93-0.2a7.19 7.19 0 0 0 .51-3.14c.07-1 1.88-0.83 2.59-0.83h1.35m10.48-4.06l-0.25.5c.64.13.66-0.55.25-0.5m24.25.13c.2 1 1.13 1.79 1.27 2.79.11.77-0.07.81-0.64 1.35a6.53 6.53 0 0 0-1.14 1c-0.42.66-0.57.78-0.4 1.54.12.56.57 1 .7 1.56.3 1.24-0.85 1.72-1.68 2.36-1 .81-0.28 2 .2 2.9a1.67 1.67 0 0 1-0.6 2.51c-1 .76-1.63 1.34-0.87 2.6.56 1 1.36 2 .33 3a4.34 4.34 0 0 0-1.08 1.26c-0.26.51.14 1.1.4 1.54a7.81 7.81 0 0 1 .66 1.2c.22.55.36.89-0.32 1-0.43.06-1.24.2-1.46-0.22a3.15 3.15 0 0 1-0.27-1.64v-3.27a64.2 64.2 0 0 1 .84-6.61c.39-2.12.67-4.31 1.21-6.4.39-1.54.81-3.05 1.18-4.6.17-0.71.38-1.42.57-2.14.11-0.38.22-0.75.34-1.12s.1-0.7.69-0.63m2.25 0c0 .12-0.08.66 0 .75a2.69 2.69 0 0 0 .75 0 2.36 2.36 0 0 0 0-0.75c-0.08-0.08-0.62 0-0.75 0m-35.75.68a2.67 2.67 0 0 0-0.24 1 2.68 2.68 0 0 0 1-0.25c-0.22-0.44-0.17-0.9-0.76-0.75m43.76.52c-0.05.25.12.88.5.5s-0.25-0.55-0.5-0.5
  M65.9 71c-0.2.33-0.07.65 0 1 .3-0.34.44-0.71 0-1m37.75 0c0 .13-0.08.67 0 .75a2.69 2.69 0 0 0 .75 0 2.36 2.36 0 0 0 0-0.75c-0.08-0.08-0.62 0-0.75 0m-21.5.62v1.49c-0.25-0.16-0.49-0.34-0.75-0.49v1.28a2.27 2.27 0 0 1-0.25-1.5 1.32 1.32 0 0 1-0.75.25c.15-0.78 1-1 1.74-1m1.5 0a9.68 9.68 0 0 1-0.49 1.75 1.57 1.57 0 0 1-0.25-1.07c0-0.77 0-0.68.74-0.68m-29.51.54c1-0.35 1.52 2 1.4 2.6-0.17.91-1.43 1.83-2.07 2.38-1.73 1.48-3.43 3-5.14 4.49s-3.47 2.81-5.18 4.25c-0.83.69-1.76 1.66-2.92 1.36-1.39-0.36-1.24-1.5-0.38-2.37 1.09-1.12 2.47-1.94 3.61-3s2.44-2.23 3.7-3.28 2.34-2.12 3.42-3.19c.64-0.62 1.28-1.2 2-1.78a13.77 13.77 0 0 1 1.6-1.45m17.48-0.2v1a.8.8 0 0 1 0-1m3.26.23c0 .8.21 2.4-0.74 2.76 0-0.85 0-2.18.74-2.76m1.5 0c.72.75.5 2.31.51 3.25-1-0.14-1-2.62-0.51-3.25m-17.25.35v.69c0 .08.45.11.5.05s0-0.58 0-0.69-0.4-0.07-0.5 0m16.5-0.09a5.86 5.86 0 0 1-0.24 2.5 2.09 2.09 0 0 1 .24-2.5m15.25.67a2.62 2.62 0 0 0-0.24 1c.18 0 1-0.07 1-0.33 0-0.52-0.18-0.78-0.75-0.67m-11.5.31v1.5a1.23 1.23 0 0 1 0-1.5m22.5.13c-0.61.34.23.62.51.75a1.68 1.68 0 0 0-0.51-0.75m-54 .78c0 .11-0.05.5 0 .5s.62.08.7 0 0-0.5-0.06-0.5h-0.69m4.5 0a1.31 1.31 0 0 0 .06 1c.07.15.63.64.72.4.24-0.63.06-1.46-0.78-1.43m10.25.2c-0.21 1.16.9.56 1.25 0a1.35 1.35 0 0 0-1.25 0m23.76 1.62a.81.81 0 0 0 .74-0.75.81.81 0 0 0-0.74.75m-30.26-0.34a3.79 3.79 0 0 1-0.1 1c-0.15.62-0.16.4.26.7A2.24 2.24 0 0 1 57.44 79c-1.09 0-2.12-0.34-3.19-0.23-0.27 0-0.74.92-0.76 1.2-0.05.57-0.08 1.12-0.18 1.68 0 .15-0.16 1.38-0.13 1.38a9.16 9.16 0 0 1-1.74 0 7.25 7.25 0 0 0-1.73-0.21c-0.84 0-0.88.14-1.26.9-0.46.92-0.27 2-0.81 3s-2.09.34-3 .49c-0.6.09-0.79.37-1.19.82-0.18.21-0.42 1-0.68 1.12-0.55.22-0.91-0.62-1.05-0.94s.62-1 .87-1.17c2.32-1.86 4.45-3.94 6.79-5.79a40.6 40.6 0 0 0 3.47-2.78c.9-0.92 2-2.43 3.35-2.64m51-0.27c-0.15.79 1 .52 0 0
  M66.93 77a.75.75 0 0 0 1 .25.79.79 0 0 0-1-0.25m26.75-0.39c0 .13-0.08.67 0 .75a2.36 2.36 0 0 0 .75 0 2.69 2.69 0 0 0 0-0.75c-0.08-0.08-0.62 0-0.75 0m10.5.2c-0.94.56.3.93.76 1-0.08-0.51-0.06-1.17-0.76-1m-69 8.11c-2 .69-3.8 2.27-5.48 3.53s-3.35 3-5.08 4.51A30.77 30.77 0 0 0 20.37 98a42 42 0 0 0-3.55 5.47 37 37 0 0 0-2.76 6.08c-0.7 2.09-1.27 4.22-1.93 6.32a38.06 38.06 0 0 0-1.31 6.59 48 48 0 0 0-0.87 6.4c0 2.22-0.3 4.42-0.21 6.65 0 1.09.26 2.15.26 3.24v3.5c-0.85-0.64-0.59-1.7-0.65-2.64s.09-2.12 0-3.17c-0.2-2.21 0-4.41-0.14-6.62-0.13-1.81 0-3.67-0.05-5.48v-9.86q0-6.1-0.07-12.22a20.73 20.73 0 0 1 1.21-6.2 23.42 23.42 0 0 1 3-6.31 38.82 38.82 0 0 1 3.91-5 37.73 37.73 0 0 1 4.89-4.9c1.57-1.13 4-2.2 6-1.76a7 7 0 0 1 2.73 1.75 25.58 25.58 0 0 1 2.5 2c.73.82 1.93 1.89 1.95 3.09m25.47-6.38c.15.3.46.36.75.49 0-0.12.08-0.67 0-0.75s-0.65.09-0.75.26m-12.5.06a2.89 2.89 0 0 0-0.25 1h1c-0.08-0.51 0-1.17-0.75-1m41.5-0.21a2.63 2.63 0 0 0-0.25 1h.75a1.27 1.27 0 0 0-0.5-1m11.25.19a.76.76 0 0 0 1 .24.78.78 0 0 0-1-0.24m-57.75.3c0 .25.12.88.5.5s-0.25-0.55-0.5-0.5
  M57.45 80c-0.21 1.14-2.13 2.6-3.24 2.77a9.55 9.55 0 0 1 .1-3.16c.22-0.56.8-0.22 1.33-0.1s1.2.31 1.81.49m7.24-0.28c-0.14.29-0.23 1.79.51 1.24.17-0.12.14-0.57.14-0.76 0-0.44-0.23-0.56-0.65-0.48
  M51.2 80.81c.13.58.49.78 1 1a.72.72 0 0 0-1-1m34.25.07c-0.61.33.23.62.51.74a1.6 1.6 0 0 0-0.51-0.74
  M68.46 82v1c.5-0.25.92-1.23 0-1
  M43 82.85c0 .33.22 1.54.82.93s-0.3-0.85-0.82-0.93m14.25-0.07c0 .63-0.25 1.84-1 2a3.47 3.47 0 0 1 1-2m1.25 0c-0.11.52-0.22 1-0.74 1.25.08-0.53 0-1.42.74-1.25m34-0.18c-0.32.19-0.45.92.1.75.3-0.09.37-0.48.4-0.75a2.78 2.78 0 0 0-0.5 0m-54.5.53c0 .13-0.08.67 0 .75a2.7 2.7 0 0 0 .75 0 2.7 2.7 0 0 0 0-0.75c-0.08-0.08-0.62 0-0.75 0m14.76.67c-0.11.73-1 1.35-1.6 1.73A8.36 8.36 0 0 1 49 86.82c-0.49-0.94.08-2.29.52-3.13s2.55-0.07 3.22.11m3.26-0.52a7.48 7.48 0 0 1-0.73 2.26 2.56 2.56 0 0 1 .73-2.26m6.26.47v.69c0 .09.44.11.5.06s0-0.58 0-0.7-0.4-0.07-0.5 0m-15.5.83a2.67 2.67 0 0 0-0.24 1h.75a1.32 1.32 0 0 0-0.51-1m7.75 0a19.1 19.1 0 0 1-0.74 2.25c-0.48-0.62.22-1.83.74-2.25m34-0.18a2.89 2.89 0 0 0-0.25 1c.67.15.7-0.54.75-1a2.78 2.78 0 0 0-0.5 0m-35.25.69c0 .8-0.61 2.3-1.48 2.5a4.12 4.12 0 0 1 1.48-2.5m7.54 7.21c-1.26-0.41-1.84-1.7-2.32-2.82-0.38-0.9-1.86-3.39-0.39-4 .69-0.28 1.45-0.25 1.65.7.16.71.34 1.41.51 2.12.23 1 1.06 3 .55 4m-21.31-3.98a12.76 12.76 0 0 0-4.09-0.81c-1 .08-0.4 3.06-0.39 3.83a22.38 22.38 0 0 1-3.26-0.39c-1.24-0.24-2.15-0.23-2.24 1.2-0.06 1.09.2 2.13.18 3.22s-1.92 1.05-2.59 1.05-2.51-0.17-3 .48-0.14 2.21 0 3c.16 1.19.54 2.22-1 2.51-1.18.22-2.17-0.1-3.33.36-0.63.26-0.1 2.07 0 2.52a7.93 7.93 0 0 1 .38 2.49c-0.05.77-1.44 1.06-2.07 1.26s-2 .57-2.3 1.31.48 2.11.74 2.74.85 1.7.33 2.31a10.13 10.13 0 0 1-4.41 2.81c1.67-8.58 5.5-17.36 11.7-23.64a72.2 72.2 0 0 1 7.39-6.82 10.49 10.49 0 0 1 4.33-2.29c.61-0.12 1.64.79 2.12 1.16s1.45.94 1.55 1.7m26.24-2.89a1.2 1.2 0 0 0 1 .5v-0.75a2.58 2.58 0 0 0-1 .25m32.75.08v3.5a3.11 3.11 0 0 1 0-3.5m1.25.74a7 7 0 0 1-0.23 3c-0.51-0.6-0.46-2.53.23-3m-49.69 19.51c-0.26-2.08-1.67-4.28-2.8-6A4 4 0 0 1 46.5 97a12.28 12.28 0 0 0-0.35-3.42 10.69 10.69 0 0 0-0.53-1.32c-0.21-0.55.17-0.69.64-0.91 1-0.49 2.13-1 3.2-1.41a28.31 28.31 0 0 0 3-1.44 9.34 9.34 0 0 1 2.85-1.36c.66-0.1.8-0.24 1.25.23a3.46 3.46 0 0 1 .72 1.13 28.26 28.26 0 0 1 1.2 2.91 6.41 6.41 0 0 1-0.34 2.79 11.18 11.18 0 0 1-0.79 2.8c-0.36.8-1.27 1.32-1.83 2-0.71.84-1.39 1.69-2.06 2.56s-1.13 1.61-1.69 2.41c-0.42.59-0.92 1.7-1.69 1.88m19.4-19.1c-0.26.5.07.81.51 1 0-0.59.23-1.1-0.51-1m15-0.08c-0.32.33-0.87 1 0 1s.37-0.7 0-1m-34.25.43v1a11.7 11.7 0 0 1 1-0.75c-0.66 2.43-4.28 3.37-6.48 3.53.22-1 1.9-1.69 2.63-2.18a9.36 9.36 0 0 1 2.85-1.6m47-0.24v1.5a.94.94 0 0 1 0-1.5m-50.49 1c0 .7-0.63 1.09-1.2 1.39-0.39.21-1.79 1.07-1.79.31 0-0.51-0.09-1.94.51-1.93a15.89 15.89 0 0 1 2.48.23m54.26-0.31a1.87 1.87 0 0 1-0.5 1.25c-0.25-0.5-0.23-1.4.5-1.25m-58.49 3c-2.22 0-4 1.57-5.69 2.78a36.1 36.1 0 0 0-4.87 4.38 77.89 77.89 0 0 0-8.46 10.92 58.47 58.47 0 0 0-5.85 11.74 47.94 47.94 0 0 0-2.94 12.83c-0.17 1.67-0.19 3.34-0.44 5a4.49 4.49 0 0 1-2-2.13c-0.22-0.55-0.57-1-0.27-1.57a4.68 4.68 0 0 1 1.2-1.23 6.69 6.69 0 0 0 1-1.29c.21-0.3-0.39-1.11-0.52-1.35a11.25 11.25 0 0 1-1.42-3.07c-0.16-0.89 1.5-1.79 2.14-2.26 1.17-0.87.89-1.8.4-2.95a9.79 9.79 0 0 1-1.08-3c-0.06-0.6-0.16-0.92.38-1.3s1-0.64 1.46-0.94a7.86 7.86 0 0 0 1.82-1.11c.25-0.3.44-0.39.38-0.77a5.44 5.44 0 0 0-0.22-1.28 19.9 19.9 0 0 1-0.92-2.19c-0.3-1-0.16-1.28.7-1.73a18.06 18.06 0 0 1 2.16-0.81c.93-0.35 1.38-0.49 1.37-1.48 0-1.52-0.68-3-0.77-4.5a19.39 19.39 0 0 0 2.64 0 12.18 12.18 0 0 1 1.35-0.19c.43 0 1 .16 1-0.33a26.3 26.3 0 0 0-0.25-2.66c-0.09-0.59-0.62-2.31 0-2.69a4.61 4.61 0 0 1 2.5-0.39c.72 0 2 .22 2.67-0.23s.29-1.61.29-2.33v-3a15.71 15.71 0 0 1 2.73.48 17.42 17.42 0 0 0 2.79.24c0-0.9-0.2-1.87-0.16-2.75 0-0.56.15-1 .67-1.11a3.24 3.24 0 0 1 1.41.14c.89.17 1.73.58 2.62.7s2.06.51 2.2 1.48m48.74-2.5v.75c.62-0.32.62-0.44 0-0.75m-27.78.9c0 .11-0.05.5.06.5s.62.07.7 0 0-0.5-0.06-0.5h-0.7m-1.74 1a10.83 10.83 0 0 1 1.38 1c.75.71.18 1-0.42 1.59s-1.53-1.92-1-2.63m5 0c0 .13-0.08.66 0 .75a2.69 2.69 0 0 0 .75 0 2.69 2.69 0 0 0 0-0.75c-0.08-0.08-0.62 0-0.75 0m20.5.64a2.69 2.69 0 0 0 .26 1 1.24 1.24 0 0 0 .49-1h-0.75m-41.42 6.74a4.67 4.67 0 0 1-1.85-1.26c-0.61-0.54-1.49-1.11-1.67-2 .42 0 1.26 0 1.5.37.36.53.65 1.1 1 1.62a2.19 2.19 0 0 0-1.1-2.55 4.24 4.24 0 0 0-3-0.2A18 18 0 0 0 35 97.17a58.62 58.62 0 0 0-8.27 10.11c-2.46 3.73-5.11 7.47-6.84 11.63a39.76 39.76 0 0 0-3.24 12.7c-0.05.9-0.21 1.76-0.21 2.67a22.64 22.64 0 0 1-0.13 3.19 49.64 49.64 0 0 0-0.07 6.57v6.16c0 2 .21 3.85.28 5.79-1.07-0.21-1.07-1.77-1.24-2.61-0.08-0.47 0-0.95 0-1.41a15.48 15.48 0 0 1-0.24-1.76v-6.81c0-2.29.22-4.53.21-6.83 0-1.06.21-2.11.22-3.18a19.43 19.43 0 0 1 .28-3c.4-2.23.94-4.38 1.51-6.58a47 47 0 0 1 2.24-6.18 61.31 61.31 0 0 1 6.59-11.78c1.33-1.86 2.68-3.79 4.13-5.57a38.07 38.07 0 0 1 4.66-4.67 21.83 21.83 0 0 1 5.69-3.93 4.33 4.33 0 0 1 3.09.08 4.18 4.18 0 0 1 2.1 2.56 5.81 5.81 0 0 1 0 3.07m24.47-4.88c-0.26.5.07.81.51 1 0-0.59.23-1.11-0.51-1m13 .18c-0.1.57.16.75.68.75.26 0 .29-0.82.32-1a2.9 2.9 0 0 0-1 .26m-9.5.3v3.5c-0.85-0.15-1.87-0.74-1.54-1.68.23-0.66.66-2 1.52-1.82m-33.19 1.61c.31.34.94.76.9 1.25s-0.84.85-1.23 1.12a3.65 3.65 0 0 0-1 1.06A4.12 4.12 0 0 1 38 99.12a6 6 0 0 0-1.19 1.23c-0.34.41-0.4.9-0.8 1.27a6.39 6.39 0 0 0-1.22 1.38c-0.27.44-0.34 1.15-0.77 1.44-0.78.52-2.51-0.36-2.53-1.24s1.36-2 1.84-2.54A47.8 47.8 0 0 1 38 95.85a4.81 4.81 0 0 1 2.52-1.24m-5.44 10.78c.14-0.4.29-0.81.43-1.22s0-0.66.14-1c.17-0.49.39-0.51.87-0.73.22-0.1.75-0.21.8-0.5.11-0.72 0-1.67.58-2.21s1.65-0.2 2.4-0.39a1.92 1.92 0 0 1-0.21-1.15c.06-0.54.41-0.56.87-0.73a3.07 3.07 0 0 1 1.13-0.12c.68 0 .44-0.39.44-1 .73.09.94.56 1.32 1.12s-0.48 1.11-0.78 1.41c-0.85.86-1.76 1.66-2.58 2.56s-1.64 1.94-2.48 2.92a5.43 5.43 0 0 1-1.3 1.23c-0.46.28-1.15 0-1.63-0.2m10.71-6.55c-0.87 1.54-2.5 2.64-3.68 3.94-0.65.71-1.35 1.37-2 2.1a8.71 8.71 0 0 1-1.1 1c-0.13.11-1.19.88-1.2.39 0-1.69 2.14-3.57 3.24-4.68.93-0.92 3.18-4 4.72-2.75m12.26.43c-0.86 1.87-2.22 3.5-3 5.4-0.93 2.13-1.9 4.23-2.78 6.38s-1.36 4.24-2 6.36a52.75 52.75 0 0 0-1.53 6.22c-0.8 4.34-1.45 8.73-2.19 13.08-0.09.51-0.24.75-0.72.41a1.57 1.57 0 0 1-0.61-1.51 25.41 25.41 0 0 1 .39-3.23 40.46 40.46 0 0 1 1.14-6.08c.58-2.08 1-4.18 1.44-6.29s1.23-4.3 1.92-6.42a51.24 51.24 0 0 1 5.82-12.06c.4-0.62 1.43-2.4 2.2-2.26m3 0c.49.91-0.34 2.07-0.76 2.85s-0.88 1.79-1.31 2.71a51.26 51.26 0 0 0-2.3 6.24 116.29 116.29 0 0 0-3.16 13c-0.52 2.71-1 5.41-1.46 8.12-0.23 1.23-0.28 2.5-0.5 3.74a14.26 14.26 0 0 1-0.8 3.63c-2-1.1-1.52-3.93-1.18-5.74.42-2.2.74-4.41 1.18-6.6.88-4.39 2.14-8.74 3.33-13A51.59 51.59 0 0 1 57 106.4c.61-1.3 1.21-2.59 1.86-3.87.55-1.09 1.12-2.57 2.18-3.27m-23.87 24.37c.37-0.78 1.34-0.74 2.07-0.77A6.14 6.14 0 0 0 42 122a3.92 3.92 0 0 0 2-1.8c.25-0.72-0.27-2.11-0.45-2.84-0.8-3.33-2.19-7.08-1.38-10.52-0.48 0-1 .13-1.45.19-0.82.11-0.8-0.42-0.74-1s.62-0.94.94-1.28.64-0.82 1-1.2c.82-0.82 1.62-1.66 2.46-2.46s1.82-1.84 2.73-0.73a12.19 12.19 0 0 1 2.53 6.14 6.74 6.74 0 0 1-0.89 3.27c-0.41 1-0.88 2-1.32 2.94a79.66 79.66 0 0 0-2.9 8.64 3.39 3.39 0 0 1-1.16 2 4.84 4.84 0 0 1-2 1 6.33 6.33 0 0 1-4.13-0.8
  M59.05 100a12.39 12.39 0 0 1-1.38 3.2c-0.49 1-0.88 2-1.34 3.06-0.94 2.08-1.76 4.21-2.53 6.36s-1.22 4.29-1.8 6.41-1 4.4-1.49 6.62-0.87 4.45-1.3 6.69c-0.19 1-0.34 2-0.5 3a13.81 13.81 0 0 1-0.57 2.86c-0.2.49-0.73.49-0.81-0.11a8.07 8.07 0 0 1-0.09-1.55c.09-1.06.29-2.16.46-3.21.34-2.12.67-4.27 1-6.37a97.09 97.09 0 0 1 3.08-12.81c1.38-4.17 3-8.57 5.55-12.19a7 7 0 0 1 1.67-2m-3.5.27a17 17 0 0 1-1.47 2.62c-0.5.93-1.09 1.83-1.56 2.77a52.09 52.09 0 0 0-2.47 6.23 77.59 77.59 0 0 0-3.6 12.85c-0.32 1.83-0.81 3.63-1.15 5.45-0.19 1-0.34 2-0.5 3a8.71 8.71 0 0 1-0.46 2.45c-2.42-0.77-1.32-4-1-5.75.41-2.1.82-4.19 1.41-6.25s.87-4.34 1.62-6.45a55.56 55.56 0 0 1 2.39-6.08c1-1.93 1.86-3.87 2.93-5.73a30.13 30.13 0 0 1 2-3 7.2 7.2 0 0 1 1.89-2.07m10.26 1.94a4.16 4.16 0 0 1-1.49 4.45c-0.4.31-1.55.77-2 .3l-1-1.06c-0.29-0.29-0.27-0.74-0.34-1.14a4.25 4.25 0 0 1 .14-2.37c.19-0.54 1-1.56 1.68-1.52 1 0 .46 1.29.92 1.74s1.5-0.39 2.11-0.4m2 1.24c.56.32-0.34 2.27-0.5 2.8-0.34 1.09-0.58 2.21-0.92 3.3a18.71 18.71 0 0 0-0.6 3.14c-0.13 1-0.44 1.89-0.63 2.84-0.44 2.26-0.81 4.52-1.22 6.78a53.35 53.35 0 0 0-0.78 6.17c-0.15 2.45-0.67 4.88-0.7 7.35 0 1.2-0.18 2.4-0.23 3.6s-0.38 2.74-2 2.81c0-2.24.46-4.43.46-6.69 0-1.09.23-2.17.24-3.27a10.67 10.67 0 0 1 .2-1.49c.08-0.52-0.05-1.08 0-1.6.38-2.08.48-4.19.82-6.26.37-2.23.83-4.44 1.22-6.66a69.24 69.24 0 0 1 1.68-6.82c.32-1.14.74-2.24 1.12-3.35.25-0.71.86-2.82 1.77-2.65m1.47 1c.41.44.55.59.47 1.22a12.83 12.83 0 0 1-0.42 1.73 28.11 28.11 0 0 0-0.76 3c-0.3 2.19-1.12 4.33-1.23 6.54a30.6 30.6 0 0 1-0.51 3.28c-0.17 1.1-0.15 2.2-0.34 3.31s-0.1 2.2-0.29 3.31a23.33 23.33 0 0 0-0.27 3.23 20.83 20.83 0 0 1-0.37 3.15c-0.2 1.11-0.1 2.25-0.25 3.37s-0.27 2.11-0.31 3.14.28 2.26-0.06 3.16c-0.18.47-0.27 1.1-0.92 1.09a1.32 1.32 0 0 1-1-0.9A14.7 14.7 0 0 1 63 140c0-2.2.46-4.37.47-6.56a21.67 21.67 0 0 1 .31-3.22c.17-1.15.14-2.29.33-3.44.35-2 .41-4.11.82-6.1.44-2.17.83-4.35 1.27-6.52s.76-4.33 1.39-6.43c.35-1.17.55-2.61 1.7-3.22m-38.72.18c.33 1 .86 1.9 1.11 3s.4 2 .57 3a38.38 38.38 0 0 1 .3 6.25 33.06 33.06 0 0 1-3 12.88 23.4 23.4 0 0 1-3.43 5.47 26.32 26.32 0 0 1-4.91 5 10 10 0 0 1-2.95 1.67c-0.69.2-0.75.08-0.75-0.61a1.78 1.78 0 0 1 .55-1.5c.8-0.68 1.9-1 2.71-1.69a21.29 21.29 0 0 0 2.46-2.18 30.4 30.4 0 0 0 4-5.66 37.34 37.34 0 0 0 2.4-5.91 21.14 21.14 0 0 0 1.27-6.67 21.73 21.73 0 0 0 .17-3c-0.13-1.07-0.24-2.14-0.44-3.2-0.24-1.24-0.4-2.44-0.76-3.67-0.3-1-0.91-2.9.71-3.12m52.06.61c.18 0 .84.1.93.26l.68 1.24a3 3 0 0 1-0.07 1.9 4.39 4.39 0 0 1-1.73 1.57c-0.58.38-1.61 0-2.21-0.12a3.5 3.5 0 0 1-1.24-1.59 3 3 0 0 1 .23-2.24c.55-0.77 1.28.28 1.88.35.8.09.94-1.13 1.54-1.45m-50 .63c.73.52.42 1.76.26 2.49a2.17 2.17 0 0 1-0.26-2.49m1.75.24a10.3 10.3 0 0 1 .26 1.74 2.69 2.69 0 0 0 1-1.25 1.44 1.44 0 0 1 .43.72c.12.47.62.15 1 .08.71-0.14.54 1.56.55 2 0 .27-0.56.2-0.81.29s-0.89.43-1.22.37a3.32 3.32 0 0 0-2.47.27c.1-0.69.4-1.34.52-2s.09-1.81.71-2.23m26.25.36c.3.55-0.31 2.25.35 2.51.26.1 1-0.35 1.2-0.5.45-0.27.71-0.56 1.19-0.22s.62 2 .46 2.69a3.93 3.93 0 0 1-1.82 2.45 2.44 2.44 0 0 1-2.57.17 3.06 3.06 0 0 1-1.5-2.45c-0.35-1.7.88-4.33 2.69-4.64m-22 1.11c.62.52.46 1.61.47 2.33 0 .92-0.16 1.89-0.19 2.81 0 .5.15 5.11-0.3 5.11s-0.43 0-0.43-0.55v-4.74c0-1.36-0.58-3.88.47-5m1.75.49c.37.68 0 1.53 0 2.25v5.25c0 .43 0 .84-0.09 1.26a11.08 11.08 0 0 1-0.14 1.25c-0.75.61-0.51-1.67-0.51-1.88v-5.87c0-0.72-0.24-2.39.74-2.26m-5.25.28a3 3 0 0 0 .29 1.17c.12.15.69.46.75.22.21-0.82-0.11-1.43-1-1.39m-8.24 1a4 4 0 0 1 .56 3.1c-0.1.91-0.58 2.08-1.58 2.31-0.72.16-0.91.13-1.13.85-0.16.48.79.66 1.13.44s.72-0.93 1.08-0.94 1.47-0.22 1.74 0c.48.4.89.59 1 1.2a6.72 6.72 0 0 1 .17 1.95c-0.05.84-0.85 2.41-1.84 2.47h-1.68c-0.41 0-1 .54-0.67.9.83.85 2.13-0.29 2.62 1.09a3.17 3.17 0 0 1 .36 1.59 4.43 4.43 0 0 1-0.9 1.57c-0.54.84-2 .69-2.74.28-0.49-0.28-0.88-0.6-1.31-0.12s.28.93.82 1.07c.35.09 1 .29 1.13.65a4.72 4.72 0 0 1 .54 1.72 4.61 4.61 0 0 1-0.43 1.79c-0.21.45-1 .89-1.36 1.22a1.07 1.07 0 0 1-1.09.18c-0.32-0.17-1.48-0.53-1.61-0.86s-0.37-1.31-0.65-1.41c-0.62-0.23-1.13-0.15-0.91.7.11.45.45.91.59 1.37a3.33 3.33 0 0 1 .21 1.53 6.47 6.47 0 0 1-1.07 3.1 3.88 3.88 0 0 1-1.27 1c-0.54.27-0.84.45-1-0.21a9.61 9.61 0 0 1 .12-3.25c.09-1.09 0-2.16.16-3.25a13.58 13.58 0 0 1 .32-1.54c.22-0.73.5-0.81 1.16-1.23a16.43 16.43 0 0 0 2.57-2 8.71 8.71 0 0 0 2.49-6.21 7.21 7.21 0 0 0-0.62-3.07c-0.22-0.53-0.38-1.07-0.55-1.62s.22-1.16.33-1.6A11.25 11.25 0 0 1 25 111.7a5.92 5.92 0 0 1 1.88-2.26m10.76 1.44a10.41 10.41 0 0 0-0.24 2c-0.57-0.09-0.82-0.73-0.94-1.22 0-0.11-0.17-0.77 0-0.78h1.21m-2.75.26c0 1.31-0.78 2.27-1 3.51a9.25 9.25 0 0 0 2.52 0c1.07-0.27.91 1 .87 1.75a5.76 5.76 0 0 1-0.05 1.1c-0.1.32 0 .4-0.33.4s-0.27 0-0.38-0.33c-0.28-0.72.09-1.45-0.38-2.16a10 10 0 0 0-0.48 3.07 21.37 21.37 0 0 1-0.31 3.39c-0.08.5 1.47 2.16 1.95 2.32.85.28 2.58.56 2.51 1.7-0.13 2-1.58 4.17-2.59 5.84-0.56.92-1.22 1.76-1.77 2.68a10.35 10.35 0 0 1-1.9 2.6 1.73 1.73 0 0 1-0.79.42 11.72 11.72 0 0 1 .12-1.88 10.31 10.31 0 0 0 .36-2.13c-1.15.55-2.11 1.45-3.24 2-0.29.15-0.5.15-0.5.49s.25.31.45.56c.42.52 0 1.41-0.19 1.94.42-0.22.79-0.54 1.22-0.74.77-0.38.78-0.25 1 .54.3 1.11-1 2.14-1.69 2.88a43.05 43.05 0 0 1-4.58 4.48 30 30 0 0 1-6.08 3.55 3.32 3.32 0 0 1-1.44.44c-0.57 0-0.59-0.9-0.62-1.28a29.34 29.34 0 0 1 0-3.11 17.09 17.09 0 0 1 .22-2c.08-0.51.89-0.85 1.29-1s1.11-0.56 1.66-0.77.69.62.84 1.12c.41-0.54.73-1.14 1.12-1.69.27-0.38.27-0.52.72-0.54s.77 0 1.15 0c-0.07-0.45-0.48-1.2-0.27-1.61a7.39 7.39 0 0 1 1.16-1.8 29.21 29.21 0 0 0 2.24-2.94c.77-1.13 1.42-2.28 2.09-3.47a12.61 12.61 0 0 0 .85-1.63c.21-0.57 1-0.13 1.37.16a7.59 7.59 0 0 1 .17-2.52 1.06 1.06 0 0 1 .87-0.85c.33-0.1.44-0.05.44-0.39s-0.14-0.16-0.38-0.41a1.53 1.53 0 0 1-0.21-2.07 4.23 4.23 0 0 0 .59-2.34c.06-0.9 0-1.79.1-2.69a4.41 4.41 0 0 1 .11-1c0-0.05.5 0 .5 0v.89A23.4 23.4 0 0 1 34 120a12.89 12.89 0 0 0 .21 2.7c.83-1.08.74-2.32.73-3.63s.05-2.41 0-3.63c-0.42.15-0.82.37-1.25.51v-3c0-1 .11-1.81 1.24-1.78m6.76 1.72c-0.13.72.28 1.6.22 2.37 0 .39-0.12.78-0.14 1.17s.16 1.21-0.31 1.21-0.25-0.3-0.25-0.66v-3.7c0-0.59 0-0.41.5-0.39
  M58.37 114c0 .73.16 2.62 1.21 1.55.81-0.83 1.69-0.84 2.11.35.63 1.82.46 4.65-1.58 5.62-5.7 2.68-5.67-7.59-1.74-7.52m-35.73 2.69c1.23 1.66 1.24 4.42.64 6.31s-2.39 5.18-4.83 5c.17-1 1.47-1.56 2.12-2.26a6.54 6.54 0 0 0 1.82-3 6.61 6.61 0 0 0 .15-3.06c-0.2-0.84-0.81-2.34.1-3m20.26 1.64c0 .25.3.59.25.75s-0.47.29-0.6.37a12.18 12.18 0 0 1-1.89.8 3.39 3.39 0 0 1-3.1-0.44c-0.31-0.2-0.42-0.09-0.37-0.48a.72.72 0 0 1 .33-0.47c.46-0.32 1.2-0.08 1.71 0a3.91 3.91 0 0 0 2 0 7.5 7.5 0 0 1 1.66-0.48
  M12.4 119a6.64 6.64 0 0 1 1 1.94 7.79 7.79 0 0 1 .86 2.45c0 .44.18.74-0.11 1.08a5.87 5.87 0 0 1-0.88 1 6.85 6.85 0 0 1-2 1.31 21.16 21.16 0 0 1 .3-4.13c.21-1 .21-2.81.91-3.63m9.25.2a10.29 10.29 0 0 1-0.1 3.87c-0.1.61-0.84 1.31-1.18 1.81a2.05 2.05 0 0 1-1.18.84A14.55 14.55 0 0 1 20 122c.24-0.74.67-3 1.67-2.83m21.75.64c-0.2 1.29-2 2.33-3.23 2.52a16.68 16.68 0 0 1-2 0 5.63 5.63 0 0 1-2.05-0.16c-0.73-0.29.76-1.06 1-1.13a7.38 7.38 0 0 1 2.2-0.16 3.35 3.35 0 0 0 2.21-0.53 4 4 0 0 1 1.83-0.55m12.71 2.44c.51.12.85 2.38 1.6 1.81s1.31-2 2.37-1c1.58 1.48.68 4.22-0.65 5.49a2.79 2.79 0 0 1-2.66 1 3.24 3.24 0 0 1-2.36-2 5.91 5.91 0 0 1-0.11-3.07 3.65 3.65 0 0 1 .53-1.27 2.29 2.29 0 0 1 1.28-1m-12.66 1.9c.47.85-0.09 2-0.22 2.9-0.16 1.13-0.47 2.23-0.69 3.35s-0.35 2.24-0.49 3.36a5.92 5.92 0 0 0 .13 1.62 6.54 6.54 0 0 1-0.14 1.76 3.17 3.17 0 0 1-1.74 2.44c-0.79.42-2.42.15-2.56 1.25-0.07.5 0 1-0.16 1.47a7.44 7.44 0 0 1-0.75 1.68c-0.22.42-0.84.59-1.24.8a2.92 2.92 0 0 1-1.71.43c-1.09 0-1.28.55-1.68 1.46a10.49 10.49 0 0 1-1.18 2.16 3.48 3.48 0 0 1-2.2.9 4.88 4.88 0 0 1-2.25-0.24c-0.52 1.64-1.43 4.91-3.86 4.23a15.17 15.17 0 0 1-1.62-0.5c-0.59-0.23-0.54-0.09-0.81.45S18.77 155.78 18 155c-0.55-0.52-0.51-2.38-0.38-3.06s.11-1 .68-1.43a7.41 7.41 0 0 1 1.55-0.67 23.33 23.33 0 0 0 5.7-3.54 41.69 41.69 0 0 0 8.85-9.47c.65-1 1.3-2 2-2.91a21.84 21.84 0 0 0 1.6-2.62l1.65-3.42c.39-0.79.71-2.28 1.51-2.73a10.38 10.38 0 0 1 2.3-1.05
  M11.2 128a8.62 8.62 0 0 1 2 3.55c.22 1.06-1.47 2.41-2.45 2.7 0-0.53-0.1-1.07-0.15-1.59a14.73 14.73 0 0 1 .11-1.48c0-0.83-0.27-2.65.51-3.18m45.52 4.26c.24-0.84.8-2.12 1.86-1.91.44.09.93.91 1.22 1.23a2.29 2.29 0 0 1 .4 1.36 5.22 5.22 0 0 1-0.88 3.3c-0.69 1.1-1.72 1.32-2.89 1.71a3 3 0 0 1-2.65-1 4.28 4.28 0 0 1-1.05-3.08 5.11 5.11 0 0 1 .73-3.06 4 4 0 0 1 1.25-0.92c.7-0.14.83.67 1 1.14a2.75 2.75 0 0 0 1 1.26m-23 .37a1.44 1.44 0 0 0 1-1.51c-0.91 0-1.43.66-1 1.51m-1.73-0.75a2.46 2.46 0 0 0-0.24.92c0 .17.71.27.9.31s.47-0.51.34-0.74a3.11 3.11 0 0 0-1-0.49m1.76 1.49c.12.58.49.78 1 1a.71.71 0 0 0-1-1
  M11 135.77a7.16 7.16 0 0 1 2 3c.29.91-1.43 2-2.25 2 0-0.92-0.26-1.8-0.26-2.73 0-0.68-0.13-1.81.49-2.27m32 .08c2.94.6.47 3.85-0.54 5.11a66.174 66.174 0 0 1-4.41 4.92 65.82 65.82 0 0 1-10.41 8.48 29.57 29.57 0 0 1-5.82 3.1 5.22 5.22 0 0 1-3.15.19.91.91 0 0 1-0.63-1c0-0.4.74-0.82 1.06-1.06.82-0.63 1.38-1.66 2.54-1.42a3.58 3.58 0 0 0 3.12-0.7 10.57 10.57 0 0 0 2.19-2.56c.6-0.76 2-0.28 2.78-0.7a5.21 5.21 0 0 0 2-1.66c.4-0.55.77-1.83 1.36-2.09a20.68 20.68 0 0 0 2.3-0.77 5.47 5.47 0 0 0 2.08-1.91 13.47 13.47 0 0 0 .89-2.23c.32-0.78 1.32-1.1 2-1.54a5.32 5.32 0 0 0 1.77-2.09c.4-0.67.49-1.38.83-2.06m5.3 10.22a3.87 3.87 0 0 1-1.24 1.76c-0.46.46-1.16 1.31-1.84 1.45s-0.48-0.18-0.58-0.63-0.2-0.88-0.27-1.33a20.88 20.88 0 0 0-0.58-2.72c-1.26.45-2 1.88-3.23 2.26-0.8-1.74.4-3.19 1.41-4.5s1.85-3 3.12-3.9a1.27 1.27 0 0 1 1.93.63c.33.73 0 1.73 0 2.53a16.14 16.14 0 0 0 .14 2.37 2.4 2.4 0 0 0 1.19 2m6.71-5.46h.93c.49 0 .18 0 .32-0.4s.26-0.93.71-1.14.91-0.53 1.42-0.08a2.47 2.47 0 0 1 .87 1.39 5.11 5.11 0 0 1-0.35 3.31c-0.51 1.19-1.79 1.43-2.89 1.63a3.25 3.25 0 0 1-2.66-1 4.23 4.23 0 0 1-1.43-3 2.63 2.63 0 0 1 0-1.39c.25-0.85.2-1 1-1.33.44-0.19.94-0.58 1.37-0.14a2.94 2.94 0 0 1 .68 1.56 2.8 2.8 0 0 1 .08.58m-5.5-1.47c.34 1 1 1.81 1.43 2.74a10.08 10.08 0 0 0 1.93 2.86 4.19 4.19 0 0 0 5.74.39 9.22 9.22 0 0 1 2.79-1.94c.53-0.15.69-0.13.8.45a2.08 2.08 0 0 1-0.2 1.74c-0.49 1-1 2.07-1.41 3.12a2.82 2.82 0 0 1-0.86 1.21 2.57 2.57 0 0 1-1.56-0.17 67.91 67.91 0 0 1-8.5-3.3c-0.4-0.19-1.59-0.66-1.67-1.13a18.18 18.18 0 0 1-0.23-2.56c0-1.13.26-3.36 1.74-3.41m-35.25.43v5c-0.77-0.4-2.17-1.64-2.27-2.56-0.11-1.1 1.3-2.1 2.25-2.44m-3 3a6.91 6.91 0 0 1 1.59 2.38c.33.74-1 1.68-1.57 1.87a5.1 5.1 0 0 1-0.26-2.3c0-0.62-0.16-1.43.24-1.95m3 3v4.25a3.41 3.41 0 0 1-1.81-2.33c-0.19-0.75 1.13-1.79 1.79-1.92m25.25.37v1.5c-1.15 0-1.06-1.37 0-1.5m3.75 0c.27 1.07.54 2.12.71 3.2 0 .14 0 1.11-0.25 1a9.33 9.33 0 0 1-1.32-0.62c-0.46-0.26-0.93-0.5-1.37-0.77s-0.5-0.37-0.18-0.88a4.71 4.71 0 0 1 2.41-2m4.76 2.48a16.53 16.53 0 0 1-0.21 2.62c0 .22.09.88-0.12.88a2.83 2.83 0 0 1-1.15-0.34c-0.91-0.39-1-1.13-0.46-1.9a3 3 0 0 1 1.94-1.26m-35.49.93c.56.35 1.34 1.8.26 2-0.09-0.6-0.68-1.44-0.26-2m36.09 16.56c-0.9-0.17-1.29-0.24-1.75-1.06-0.35-0.62-0.62-1.24-0.94-1.87-0.68-1.37-1.35-2.78-1.91-4.2s-1-2.84-1.52-4.27a14.64 14.64 0 0 1-1-4.31 5.79 5.79 0 0 1 2.38.95c.7.37 1.43.67 2.13 1a2.83 2.83 0 0 1 1.73 1.7 10 10 0 0 1 .27 2.33c.11 1.62 0 3.23.21 4.84a33.06 33.06 0 0 1 .37 4.87
  M14.32 151.5a11.42 11.42 0 0 1 .26 2.25c-0.69-0.39-1-1.77-0.26-2.25m43.51 2.5c.08.46.11 1 .51 1.25.27-0.53-0.14-0.92-0.51-1.25m-9.18 12.8a2 2 0 0 1-1.24 1 1.12 1.12 0 0 1 1.24-1"/>
<!-- fin du trac de la partie haute -->
</g>
</g>
<!-- coins -->
<g id="Hogier" style="font-family:serif;font-size:9.5px;fill:black;stroke:none">
<text id="HogierHaut" x="154" y="44" stroke="none" transform="rotate(-90,154,44)">HOGIER</text>
<use href="#HogierHaut" transform="rotate(180,84,121)"/>
</g>
<g id="Pique">
 <path id="PiqueHaut" fill="black" transform="scale(1.5)"
  d="M16,24 c 0.00,-2.28 -3.43,-3.94 -4.43,-5.74 -1,1.8 -4.41,3.46 -4.42,5.74 a2.08,2.08 0,0,0 2.21,1.95 2.09,2.09 0,0,0 2.21,-1.95 2.09,2.09 0,0,0 2.22,1.95 2.09,2.09 0,0,0 2.21,-1.95 z
  m-1.85,4.75 c-1.09,0 -1.67,-1.16 -2,-2.33 a11.94,11.94 0,0,1 -0.33,-2.34 h-0.56 s-0.1,4.68 -2.3,4.68 z"/>
<use href="#PiqueHaut" transform="rotate(180,84,121)"/>
</g>
<g id="V" style="font-family:serif;font-size:18px;fill:black;stroke:none">
<text id="VHaut" x="10.5" y="17" transform="scale(1,1.534)">V</text>
<use href="#VHaut" transform="rotate(180,84,121)"/>
</g>
<use href="#PartieHaute"  transform="rotate(180.25,84,121)"/>
<!-- diagonale -->
<g id="Separation">
<path id="BandeauHaut" fill="none" stroke="black" stroke-width="7.5" transform="rotate(-57.25,84,121)"
  d="M84,121 h66"/>
<use href="#BandeauHaut" transform="rotate(180,84,121)"/>
<g id="DisqueBandeau0">
<circle cx="84" cy="121" r="2" fill="white" stroke="none"/>
<circle cx="84" cy="121" r="0.65" fill="black" stroke="none"/>
</g>
<g id="DisquesHaut">
  <use href="#DisqueBandeau0" transform="translate(3.02,-4.66)"/>
  <use href="#DisqueBandeau0" transform="translate(6.34,-9.79)"/>
  <use href="#DisqueBandeau0" transform="translate(9.66,-14.91)"/>
  <use href="#DisqueBandeau0" transform="translate(12.99,-20.04)"/>
  <use href="#DisqueBandeau0" transform="translate(16.31,-25.16)"/>
  <use href="#DisqueBandeau0" transform="translate(19.73,-30.29)"/>
  <use href="#DisqueBandeau0" transform="translate(22.72,-35.42)"/>
  <use href="#DisqueBandeau0" transform="translate(26.27,-40.54)"/>
  <use href="#DisqueBandeau0" transform="translate(29.60,-45.63)"/>
  <use href="#DisqueBandeau0" transform="translate(33.22,-51.26)"/>
</g>
<use href="#DisquesHaut" transform="rotate(180.25,84,121)"/>
</g>
</svg>